<svg xmlns="http://www.w3.org/2000/svg" xmlns:xlink="http://www.w3.org/1999/xlink" width="1129" height="79" viewBox="0 0 1129 79">
  <defs>
    <clipPath id="clip-logo_ipr_fullname">
      <rect width="1129" height="79"/>
    </clipPath>
  </defs>
  <g id="logo_ipr_fullname" clip-path="url(#clip-logo_ipr_fullname)">
    <path id="ipr-fullname" d="M-954.7,75a15.717,15.717,0,0,1-6.3-5.3l2.6-2.8c3.3,4.1,7.2,6.1,11.8,6.1,3.9,0,7-1.2,9.1-3.5s3.3-5.5,3.4-9.6V54.6c-3,4.2-7.4,6.3-13.1,6.3A14.19,14.19,0,0,1-959,55c-3-3.9-4.5-9.2-4.5-15.8v-.6h.2c0-6.6,1.5-11.9,4.4-15.7A14.283,14.283,0,0,1-947,17.1c5.8,0,10.1,2.3,13.1,6.9l.2-6.1h4.4V59.3c0,5.4-1.5,9.8-4.6,12.9A16.8,16.8,0,0,1-946.3,77,19.2,19.2,0,0,1-954.7,75Zm-.6-49.3c-2.2,3.1-3.2,7.7-3.2,13.7,0,5.4,1.1,9.6,3.2,12.8a10.557,10.557,0,0,0,9.1,4.7c5.8,0,9.8-2.6,12.2-7.7V29.4a13.678,13.678,0,0,0-4.7-6.2,12.874,12.874,0,0,0-7.4-2.1A10.644,10.644,0,0,0-955.3,25.7ZM-1232.4,75a15.711,15.711,0,0,1-6.3-5.3l2.6-2.8c3.3,4.1,7.2,6.1,11.8,6.1,3.9,0,7-1.2,9.1-3.5s3.3-5.5,3.4-9.6V54.6c-3,4.2-7.4,6.3-13.1,6.3a14.189,14.189,0,0,1-11.8-5.9c-3-3.9-4.5-9.2-4.5-15.8v-.6h.2c0-6.6,1.5-11.9,4.4-15.7a14.284,14.284,0,0,1,11.9-5.8c5.8,0,10.1,2.3,13.1,6.9l.2-6.1h4.4V59.3c0,5.4-1.5,9.8-4.6,12.9A16.8,16.8,0,0,1-1224,77,19.2,19.2,0,0,1-1232.4,75Zm-.6-49.3c-2.2,3.1-3.2,7.7-3.2,13.7,0,5.4,1.1,9.6,3.2,12.8a10.556,10.556,0,0,0,9.1,4.7c5.8,0,9.8-2.6,12.2-7.7V29.4a13.68,13.68,0,0,0-4.7-6.2,12.874,12.874,0,0,0-7.4-2.1A10.643,10.643,0,0,0-1233,25.7Zm148.2,32.5a18.029,18.029,0,0,1-6.8-7.4,23.261,23.261,0,0,1-2.4-10.6V38.5a24.669,24.669,0,0,1,2.4-11,19.148,19.148,0,0,1,6.6-7.7,15.988,15.988,0,0,1,9.1-2.8,15.32,15.32,0,0,1,12.2,5.3q4.5,5.25,4.5,14.4v2.6h-30.2v.9a18,18,0,0,0,4.1,12,13.037,13.037,0,0,0,10.4,4.8,15.259,15.259,0,0,0,6.6-1.4,14.269,14.269,0,0,0,5.2-4.4l2.9,2.2c-3.4,5-8.4,7.5-14.9,7.5A17.938,17.938,0,0,1-1084.8,58.2Zm-.1-33.3a17.738,17.738,0,0,0-4.4,10.4h25.4v-.5a15.049,15.049,0,0,0-3.5-9.9A10.641,10.641,0,0,0-1076,21,11.679,11.679,0,0,0-1084.9,24.9Zm-41.3,33.3a18.033,18.033,0,0,1-6.8-7.4,23.261,23.261,0,0,1-2.4-10.6V38.5a24.669,24.669,0,0,1,2.4-11,19.148,19.148,0,0,1,6.6-7.7,15.988,15.988,0,0,1,9.1-2.8,15.32,15.32,0,0,1,12.2,5.3q4.5,5.25,4.5,14.4v2.6h-30.2v.9a18,18,0,0,0,4.1,12,13.036,13.036,0,0,0,10.4,4.8,15.259,15.259,0,0,0,6.6-1.4,14.269,14.269,0,0,0,5.2-4.4l2.9,2.2c-3.3,5-8.3,7.5-14.9,7.5A17.944,17.944,0,0,1-1126.2,58.2Zm0-33.3a17.739,17.739,0,0,0-4.4,10.4h25.4v-.5a15.049,15.049,0,0,0-3.5-9.9,10.776,10.776,0,0,0-8.6-3.9A11.681,11.681,0,0,0-1126.2,24.9Zm-259.9,33.3a18.036,18.036,0,0,1-6.8-7.4,23.273,23.273,0,0,1-2.4-10.6V38.5a24.67,24.67,0,0,1,2.4-11,19.143,19.143,0,0,1,6.6-7.7,15.985,15.985,0,0,1,9.1-2.8,15.319,15.319,0,0,1,12.2,5.3q4.5,5.25,4.5,14.4v2.6h-30.2v.9a18,18,0,0,0,4.1,12,13.036,13.036,0,0,0,10.4,4.8,15.259,15.259,0,0,0,6.6-1.4,14.27,14.27,0,0,0,5.2-4.4l2.9,2.2c-3.4,5-8.3,7.5-14.9,7.5A17.942,17.942,0,0,1-1386.1,58.2Zm0-33.3a17.734,17.734,0,0,0-4.4,10.4h25.4v-.5a15.044,15.044,0,0,0-3.5-9.9,10.775,10.775,0,0,0-8.6-3.9A11.679,11.679,0,0,0-1386.1,24.9Zm-191,33.3a18.029,18.029,0,0,1-6.8-7.4,23.261,23.261,0,0,1-2.4-10.6V38.5a24.669,24.669,0,0,1,2.4-11,19.148,19.148,0,0,1,6.6-7.7,15.989,15.989,0,0,1,9.1-2.8,15.319,15.319,0,0,1,12.2,5.3q4.5,5.25,4.5,14.4v2.6h-30.2v.9a18,18,0,0,0,4.1,12,13.036,13.036,0,0,0,10.4,4.8,15.258,15.258,0,0,0,6.6-1.4,14.27,14.27,0,0,0,5.2-4.4l2.9,2.2c-3.4,5-8.4,7.5-14.9,7.5A17.938,17.938,0,0,1-1577.1,58.2Zm-.1-33.3a17.733,17.733,0,0,0-4.4,10.4h25.4v-.5a15.049,15.049,0,0,0-3.5-9.9,10.778,10.778,0,0,0-8.6-3.9A11.677,11.677,0,0,0-1577.2,24.9Zm-45.3,30.2c-3.2-3.9-4.9-9-4.9-15.5V38.2a25.894,25.894,0,0,1,2.2-11.1,16.409,16.409,0,0,1,6.3-7.4,17.665,17.665,0,0,1,9.6-2.6,16.689,16.689,0,0,1,11.5,4.1,15.158,15.158,0,0,1,4.8,10.9h-4.6a11.314,11.314,0,0,0-3.6-8,11.68,11.68,0,0,0-8.2-3c-4.2,0-7.5,1.5-9.8,4.6-2.3,3-3.5,7.3-3.5,12.8v1.4c0,5.4,1.2,9.6,3.5,12.6a11.86,11.86,0,0,0,9.8,4.4,12.012,12.012,0,0,0,8.2-2.8,9.688,9.688,0,0,0,3.6-7.1h4.5a13.141,13.141,0,0,1-2.4,7.1,15.961,15.961,0,0,1-5.9,5,17.623,17.623,0,0,1-7.9,1.8C-1614.8,60.9-1619.2,59-1622.5,55.1Zm-44.7-.1c-3.5-3.9-5.3-9.2-5.3-15.7l.1-1a24.688,24.688,0,0,1,2.4-11,17.763,17.763,0,0,1,6.7-7.6,18.04,18.04,0,0,1,9.8-2.7,17.63,17.63,0,0,1,13.7,5.9c3.5,3.9,5.2,9.2,5.2,15.7v1a24.368,24.368,0,0,1-2.4,11,17.758,17.758,0,0,1-6.7,7.6,18.043,18.043,0,0,1-9.8,2.7A17.628,17.628,0,0,1-1667.2,55Zm3.5-29.1c-2.6,3.3-3.9,7.5-3.9,12.8l-.1.9c0,5.1,1.3,9.2,3.9,12.4a12.659,12.659,0,0,0,10.3,4.9,12.646,12.646,0,0,0,10.3-4.9c2.7-3.3,3.9-7.5,3.9-12.8v-.9a21.768,21.768,0,0,0-1.8-8.9,14.2,14.2,0,0,0-5-6.2,12.647,12.647,0,0,0-7.4-2.2A12.327,12.327,0,0,0-1663.7,25.9ZM-1807.8,55q-4.5-5.85-4.5-15.9v-.5h.1c0-6.6,1.5-11.8,4.4-15.7a14.028,14.028,0,0,1,11.9-5.8c5.7,0,10.1,2.3,13,6.8V.1h4.6v60h-4.3l-.2-5.6c-3,4.3-7.4,6.4-13.2,6.4A14.189,14.189,0,0,1-1807.8,55Zm3.5-29.3c-2.2,3.1-3.2,7.7-3.2,13.7,0,5.4,1.1,9.6,3.2,12.8a10.557,10.557,0,0,0,9.1,4.7c5.8,0,9.8-2.5,12.3-7.6v-20c-2.4-5.5-6.5-8.2-12.2-8.2A10.644,10.644,0,0,0-1804.3,25.7ZM-1878.7,55c-3.5-3.9-5.3-9.2-5.3-15.7v-1h.1a24.688,24.688,0,0,1,2.4-11,17.763,17.763,0,0,1,6.7-7.6A18.04,18.04,0,0,1-1865,17a17.63,17.63,0,0,1,13.7,5.9c3.5,3.9,5.2,9.2,5.2,15.7v1a24.368,24.368,0,0,1-2.4,11,17.758,17.758,0,0,1-6.7,7.6,18.043,18.043,0,0,1-9.8,2.7A17.628,17.628,0,0,1-1878.7,55Zm3.4-3a12.659,12.659,0,0,0,10.3,4.9,12.646,12.646,0,0,0,10.3-4.9c2.7-3.3,3.9-7.5,3.9-12.8v-.9a21.769,21.769,0,0,0-1.8-8.9,14.2,14.2,0,0,0-5-6.2A12.645,12.645,0,0,0-1865,21a12.327,12.327,0,0,0-10.2,4.9c-2.6,3.3-3.9,7.5-3.9,12.8v.9h-.1C-1879.2,44.7-1877.9,48.8-1875.3,52Zm-92.6,5.7a20.273,20.273,0,0,1-7.5-9,31.284,31.284,0,0,1-2.7-13.3V28a31.432,31.432,0,0,1,2.7-13.4,20.47,20.47,0,0,1,7.6-9,20.9,20.9,0,0,1,11.5-3.2c6.1,0,10.9,1.6,14.4,4.9s5.6,7.8,6.2,13.6h-4.9c-1.2-9.7-6.4-14.5-15.7-14.5a14.634,14.634,0,0,0-12.3,5.8c-3.1,3.9-4.6,9.2-4.6,16v7c0,6.6,1.5,11.8,4.5,15.7a14.476,14.476,0,0,0,12.1,5.9q7.5,0,11.4-3.6c2.6-2.4,4.1-6,4.7-10.8h4.688c-.712,5.952-2.808,10.518-6.388,13.7-3.6,3.2-8.5,4.8-14.5,4.8A20.377,20.377,0,0,1-1967.9,57.7Zm-58.5-4c-4.1-4.8-6.1-11.2-6.1-19.2V28.6a31.806,31.806,0,0,1,2.8-13.8,20.254,20.254,0,0,1,7.8-9.2,21.493,21.493,0,0,1,11.6-3.2,21.494,21.494,0,0,1,11.6,3.2,21.88,21.88,0,0,1,7.8,8.9,33.008,33.008,0,0,1,2.9,13.4v6.8h-.2a33.32,33.32,0,0,1-2.7,13.8,19.982,19.982,0,0,1-7.8,9.1,21.5,21.5,0,0,1-11.6,3.2A20.432,20.432,0,0,1-2026.4,53.7Zm3.5-41.2c-3.1,3.9-4.7,9.3-4.7,16.3v5.9c0,6.7,1.6,12.1,4.7,16a15.475,15.475,0,0,0,12.7,5.9c5.4,0,9.7-1.9,12.7-5.8s4.6-9.3,4.6-16.3l-.1-5.9c0-6.8-1.5-12.2-4.6-16.1s-7.3-5.8-12.7-5.8C-2015.6,6.7-2019.8,8.6-2022.9,12.5Zm523.4,44.6a10.911,10.911,0,0,1-4.6-9h4.7a8.047,8.047,0,0,0,3.5,6.4,14.172,14.172,0,0,0,8.4,2.3,13.438,13.438,0,0,0,7.9-2.1,6.485,6.485,0,0,0,2.9-5.4,6.609,6.609,0,0,0-2.8-5.6,22.217,22.217,0,0,0-8.4-3.3,37.617,37.617,0,0,1-8.7-2.7,11.088,11.088,0,0,1-4.6-3.8,9.512,9.512,0,0,1-1.5-5.4,10.19,10.19,0,0,1,4.2-8.3,16.862,16.862,0,0,1,10.7-3.3c4.7,0,8.5,1.2,11.3,3.5a11.087,11.087,0,0,1,4.3,9.1h-4.7a7.579,7.579,0,0,0-3.1-6.2,11.969,11.969,0,0,0-7.8-2.5,12.031,12.031,0,0,0-7.4,2.1,6.213,6.213,0,0,0-2.8,5.3,5.935,5.935,0,0,0,2.3,4.9c1.5,1.2,4.4,2.2,8.5,3.2a40.263,40.263,0,0,1,9.2,3.1,12.862,12.862,0,0,1,4.6,3.9,9.956,9.956,0,0,1,1.5,5.6,10.175,10.175,0,0,1-4.3,8.6c-2.9,2.1-6.6,3.2-11.3,3.2Q-1494.85,60.7-1499.5,57.1Zm-40.5,0a10.911,10.911,0,0,1-4.6-9h4.7a8.047,8.047,0,0,0,3.5,6.4,14.172,14.172,0,0,0,8.4,2.3,13.437,13.437,0,0,0,7.9-2.1,6.485,6.485,0,0,0,2.9-5.4,6.609,6.609,0,0,0-2.8-5.6,22.217,22.217,0,0,0-8.4-3.3,37.617,37.617,0,0,1-8.7-2.7,11.088,11.088,0,0,1-4.6-3.8,9.512,9.512,0,0,1-1.5-5.4,10.19,10.19,0,0,1,4.2-8.3,16.862,16.862,0,0,1,10.7-3.3c4.7,0,8.5,1.2,11.3,3.5a11.087,11.087,0,0,1,4.3,9.1h-4.7a7.579,7.579,0,0,0-3.1-6.2,11.969,11.969,0,0,0-7.8-2.5,12.031,12.031,0,0,0-7.4,2.1,6.213,6.213,0,0,0-2.8,5.3,5.935,5.935,0,0,0,2.3,4.9c1.5,1.2,4.4,2.2,8.5,3.2a40.263,40.263,0,0,1,9.2,3.1,12.862,12.862,0,0,1,4.6,3.9,9.956,9.956,0,0,1,1.5,5.6,10.175,10.175,0,0,1-4.3,8.6c-2.9,2.1-6.6,3.2-11.3,3.2Q-1535.35,60.7-1540,57.1Zm517.3,3V17.8h4.7V60.1Zm-171.5,0V17.8h4.7V60.1Zm-133.2,0V3.2h35.2V7.3h-30.4V28.8h26.6v4h-26.6V56h30.6v4.1Zm-80.8,0-12.4-23H-1434v23h-7.5V3.2h18.8c6.4,0,11.3,1.5,14.8,4.4s5.2,7.2,5.2,12.7a15.8,15.8,0,0,1-2.9,9.3,17.348,17.348,0,0,1-8,5.9l13.4,24.1v.5ZM-1434,30.9h11.5a13.23,13.23,0,0,0,8.9-2.9,9.7,9.7,0,0,0,3.3-7.7c0-3.5-1-6.2-3.1-8.1s-5.1-2.8-9.1-2.9H-1434Zm-311.9,29.2V3.2h21c6.2,0,11.1,1.6,14.6,4.8a16.3,16.3,0,0,1,5.3,12.6c0,5.5-1.7,9.8-5.2,12.8s-8.4,4.5-14.8,4.5l-13.4-.1V60.1Zm7.5-28.4h13.5c4,0,7.1-.9,9.2-2.8s3.2-4.6,3.2-8.2a10.69,10.69,0,0,0-3.2-8.1,12.92,12.92,0,0,0-8.8-3.2h-13.9ZM-2052,60.1V3.2h7.5V60.1Zm1046.8-.1V17.8h4.3l.2,7.2a17.845,17.845,0,0,1,5.9-6,15.312,15.312,0,0,1,7.9-2.1c4.5,0,7.9,1.3,10.1,3.8,2.2,2.6,3.3,6.4,3.4,11.5V59.9H-978V32.3q0-5.7-2.4-8.4c-1.6-1.8-4.1-2.8-7.6-2.8a12.052,12.052,0,0,0-7.7,2.7,15.77,15.77,0,0,0-4.9,7.3V60Zm-44.9,0V17.8h4.6l.1,6.7c2.5-5,6.4-7.5,11.9-7.5a8.726,8.726,0,0,1,3.1.5l-.2,4.3a15.837,15.837,0,0,0-3.2-.3,11.533,11.533,0,0,0-7.4,2.4,13.028,13.028,0,0,0-4.3,7.1V60Zm-126.5,0V17.8h4.3l.2,7.2a17.841,17.841,0,0,1,5.9-6,15.317,15.317,0,0,1,7.9-2.1c4.5,0,7.9,1.3,10.1,3.8,2.2,2.6,3.3,6.4,3.4,11.5V59.9h-4.6V32.3q0-5.7-2.4-8.4c-1.6-1.8-4.1-2.8-7.6-2.8a12.056,12.056,0,0,0-7.7,2.7,15.777,15.777,0,0,0-4.9,7.3V60Zm-106.3,0V17.8h4.3l.2,7.2a17.852,17.852,0,0,1,5.9-6,15.317,15.317,0,0,1,7.9-2.1c4.5,0,7.9,1.3,10.1,3.8,2.2,2.6,3.3,6.4,3.4,11.5V59.9h-4.6V32.3q0-5.7-2.4-8.4c-1.6-1.8-4.1-2.8-7.6-2.8a12.054,12.054,0,0,0-7.7,2.7,15.776,15.776,0,0,0-4.9,7.3V60Zm-413,0V17.8h4.6l.1,6.7c2.5-5,6.4-7.5,11.9-7.5a8.732,8.732,0,0,1,3.1.5l-.2,4.3a15.834,15.834,0,0,0-3.2-.3,11.535,11.535,0,0,0-7.4,2.4,13.026,13.026,0,0,0-4.3,7.1V60Zm-140.6,0V17.8h4.6l.1,6.7c2.5-5,6.4-7.5,11.9-7.5a8.727,8.727,0,0,1,3.1.5l-.2,4.3a15.835,15.835,0,0,0-3.2-.3,11.534,11.534,0,0,0-7.4,2.4,13.028,13.028,0,0,0-4.3,7.1V60Zm-61.4,0V32.3q0-5.7-2.4-8.4c-1.6-1.8-4.1-2.8-7.6-2.8a12.056,12.056,0,0,0-7.7,2.7,15.776,15.776,0,0,0-4.9,7.3V60h-4.6V0h4.6l-.1,25a16.677,16.677,0,0,1,5.9-5.9,15.312,15.312,0,0,1,7.9-2.1c4.5,0,7.9,1.3,10.1,3.8,2.2,2.6,3.3,6.4,3.4,11.5V60Zm-37.912-17.6.012-.1v.1ZM-1355.6,37V33.1h18.7V37Zm333-29.2a2.941,2.941,0,0,1-.9-2.2,2.937,2.937,0,0,1,.9-2.2,3.165,3.165,0,0,1,2.3-.9,3.244,3.244,0,0,1,2.4.9,3.1,3.1,0,0,1,.9,2.2,3.1,3.1,0,0,1-.9,2.2,3.247,3.247,0,0,1-2.4.9A2.87,2.87,0,0,1-1022.6,7.8Zm-171.5,0a2.944,2.944,0,0,1-.9-2.2,2.937,2.937,0,0,1,.9-2.2,3.168,3.168,0,0,1,2.3-.9,3.24,3.24,0,0,1,2.4.9,3.1,3.1,0,0,1,.9,2.2,3.1,3.1,0,0,1-.9,2.2,3.244,3.244,0,0,1-2.4.9A2.873,2.873,0,0,1-1194.1,7.8Z" transform="translate(2055 1)" fill="#2a0b44"/>
  </g>
</svg>
