<svg xmlns="http://www.w3.org/2000/svg" xmlns:xlink="http://www.w3.org/1999/xlink" width="32" height="32" viewBox="0 0 32 32">
  <defs>
    <clipPath id="clip-path">
      <rect id="사각형_69" data-name="사각형 69" width="32" height="32"/>
    </clipPath>
  </defs>
  <g id="ico_alarm" clip-path="url(#clip-path)">
    <g id="ico_alarm-2" data-name="ico_alarm" clip-path="url(#clip-path)">
      <path id="iconmonstr-bell-1" d="M19.078,5.26a2.818,2.818,0,0,1-1.353-2.427h0a2.727,2.727,0,1,0-5.451,0h0A2.814,2.814,0,0,1,10.921,5.26C4.854,8.876,8.34,20.88,2,23v2.332H28V23C21.66,20.88,25.146,8.876,19.078,5.26ZM15,1.333a1.318,1.318,0,0,1,1.3,1.333,1.3,1.3,0,1,1-2.6,0A1.318,1.318,0,0,1,15,1.333ZM18.9,28a4.039,4.039,0,0,1-3.862,4A4.1,4.1,0,0,1,11.1,28Z" transform="translate(1)" fill="#a6a6a6"/>
    </g>
  </g>
</svg>
