<svg xmlns="http://www.w3.org/2000/svg" xmlns:xlink="http://www.w3.org/1999/xlink" width="32" height="32" viewBox="0 0 32 32">
  <defs>
    <clipPath id="clip-ico_mxml">
      <rect width="32" height="32"/>
    </clipPath>
  </defs>
  <g id="ico_mxml" clip-path="url(#clip-ico_mxml)">
    <path id="합치기_77" data-name="합치기 77" d="M28-2934v-8H25v-16h3v-8H54v8h3v16H54v8Zm.813-1H53.187v-7H28.813Zm22.165-11h4.463v-.986H52.214v-6.123H50.978Zm-2.568-5.472-.122,3.128V-2946h1.23v-7.109h-1.6l-2.046,5.449-2.051-5.449h-1.6V-2946h1.23v-2.344l-.122-3.13,2.1,5.474h.884l2.1-5.473Zm-10.068,2.866L39.87-2946h1.44l-2.2-3.584,2.148-3.525H39.836l-1.495,2.568-1.494-2.568H35.421l2.154,3.525-2.2,3.584h1.436l1.532-2.605v0Zm-5.1-2.866-.122,3.128V-2946h1.23v-7.109h-1.6l-2.046,5.449-2.051-5.449h-1.6V-2946h1.231v-2.344l-.122-3.13,2.1,5.474h.883l2.1-5.473ZM28.813-2958H53.187v-7H28.813Z" transform="translate(-25 2966)" fill="#5b48d9"/>
  </g>
</svg>
