<svg xmlns="http://www.w3.org/2000/svg" xmlns:xlink="http://www.w3.org/1999/xlink" width="24" height="24" viewBox="0 0 24 24">
  <defs>
    <clipPath id="clip-ico_progress">
      <rect width="24" height="24"/>
    </clipPath>
  </defs>
  <g id="ico_progress" clip-path="url(#clip-ico_progress)">
    <path id="iconmonstr-time-16" d="M18.513,7.119A6.306,6.306,0,0,0,20,3.083V0H4V3.083A6.3,6.3,0,0,0,5.487,7.118L8.574,10.8A1.784,1.784,0,0,1,8.583,13.1L5.453,16.9a6.3,6.3,0,0,0-1.453,4V24H20V20.893A6.306,6.306,0,0,0,18.547,16.9l-3.13-3.794a1.782,1.782,0,0,1,.009-2.306l3.087-3.68ZM18,3a4.3,4.3,0,0,1-1.02,2.834L16,7H8L7.02,5.833A4.3,4.3,0,0,1,6,3ZM17,18.171A4.3,4.3,0,0,1,18,21H16.939A7.6,7.6,0,0,0,12,19a7.6,7.6,0,0,0-4.939,2H6a4.3,4.3,0,0,1,1-2.829l3.129-3.793A3.774,3.774,0,0,0,10.836,13H11v1h2V13h.163a3.778,3.778,0,0,0,.711,1.376ZM11,17h2v1H11Zm0-2h2v1H11Z" transform="translate(0)" fill="#0476d9"/>
  </g>
</svg>
