<svg xmlns="http://www.w3.org/2000/svg" xmlns:xlink="http://www.w3.org/1999/xlink" width="24" height="24" viewBox="0 0 24 24">
  <defs>
    <clipPath id="clip-ico_delete">
      <rect width="24" height="24"/>
    </clipPath>
  </defs>
  <g id="ico_delete" clip-path="url(#clip-ico_delete)">
    <path id="합치기_62" data-name="합치기 62" d="M26.565-2942A1.541,1.541,0,0,1,25-2943.5v-14.25H43v14.25a1.541,1.541,0,0,1-1.565,1.5Zm12.522-12.75v9.75a.773.773,0,0,0,.783.75.773.773,0,0,0,.783-.75v-9.75a.768.768,0,0,0-.783-.75A.768.768,0,0,0,39.087-2954.748Zm-3.913,0v9.75a.773.773,0,0,0,.783.75.773.773,0,0,0,.783-.75v-9.75a.768.768,0,0,0-.783-.75A.768.768,0,0,0,35.174-2954.748Zm-3.913,0v9.75a.773.773,0,0,0,.783.75.773.773,0,0,0,.783-.75v-9.75a.768.768,0,0,0-.783-.75A.768.768,0,0,0,31.261-2954.748Zm-3.913,0v9.75a.773.773,0,0,0,.783.75.773.773,0,0,0,.783-.75v-9.75a.768.768,0,0,0-.783-.75A.768.768,0,0,0,27.348-2954.748ZM25-2960v-2.25a1.536,1.536,0,0,1,1.565-1.5h6.261v-1.5a.768.768,0,0,1,.783-.75h.783a.768.768,0,0,1,.783.75v1.5h6.261a1.536,1.536,0,0,1,1.565,1.5v2.25Z" transform="translate(-22 2965.998)" fill="#a6a6a6"/>
  </g>
</svg>
