<svg xmlns="http://www.w3.org/2000/svg" xmlns:xlink="http://www.w3.org/1999/xlink" width="32" height="32" viewBox="0 0 32 32">
  <defs>
    <clipPath id="clip-ico_xes">
      <rect width="32" height="32"/>
    </clipPath>
  </defs>
  <g id="ico_xes" clip-path="url(#clip-ico_xes)">
    <path id="합치기_78" data-name="합치기 78" d="M28-2934v-8H25v-16h3v-8H54v8h3v16H54v8Zm.813-1H53.187v-7H28.813Zm15.881-11.976a2.406,2.406,0,0,0,1.005.788,3.488,3.488,0,0,0,1.419.285,2.968,2.968,0,0,0,1.848-.525,1.7,1.7,0,0,0,.681-1.413,1.887,1.887,0,0,0-.235-.955,2.115,2.115,0,0,0-.737-.723,5.479,5.479,0,0,0-1.333-.562,4.205,4.205,0,0,1-1.192-.508.784.784,0,0,1-.361-.652.864.864,0,0,1,.334-.722,1.512,1.512,0,0,1,.941-.259,1.446,1.446,0,0,1,1,.315,1.117,1.117,0,0,1,.349.871h1.23a2.01,2.01,0,0,0-.332-1.12,2.179,2.179,0,0,0-.913-.779,3.072,3.072,0,0,0-1.323-.274,2.844,2.844,0,0,0-1.819.557,1.738,1.738,0,0,0-.7,1.416,1.833,1.833,0,0,0,.972,1.592,5.766,5.766,0,0,0,1.367.576,3.931,3.931,0,0,1,1.189.512.861.861,0,0,1,.329.723.843.843,0,0,1-.325.691,1.53,1.53,0,0,1-.968.261,1.76,1.76,0,0,1-1.148-.332,1.155,1.155,0,0,1-.4-.937H44.335A1.972,1.972,0,0,0,44.694-2946.976Zm-5.652.977h4.649v-.986H40.278v-2.188H43.2v-.977h-2.92v-1.963h3.379v-1H39.042Zm-3.881-2.605L36.688-2946h1.44l-2.2-3.584,2.148-3.525H36.654l-1.494,2.568-1.494-2.568H32.24l2.154,3.525-2.2,3.584h1.436l1.533-2.605v0Zm-6.349-9.4H53.187v-7H28.813Z" transform="translate(-25 2966)" fill="#8c6151"/>
  </g>
</svg>
