<svg xmlns="http://www.w3.org/2000/svg" xmlns:xlink="http://www.w3.org/1999/xlink" width="32" height="32" viewBox="0 0 32 32">
  <defs>
    <clipPath id="clip-ico_error">
      <rect width="32" height="32"/>
    </clipPath>
  </defs>
  <g id="ico_error" clip-path="url(#clip-ico_error)">
    <path id="패스_510" data-name="패스 510" d="M-2417,5085a16,16,0,0,1,16-16,16,16,0,0,1,16,16,16,16,0,0,1-16,16A16,16,0,0,1-2417,5085Zm16,13a12.914,12.914,0,0,0,9.193-3.807A12.914,12.914,0,0,0-2388,5085a12.9,12.9,0,0,0-3.108-8.437l-18.328,18.329A12.9,12.9,0,0,0-2401,5098Zm-9.192-22.192A12.915,12.915,0,0,0-2414,5085a12.9,12.9,0,0,0,2.518,7.694l18.176-18.176A12.9,12.9,0,0,0-2401,5072,12.913,12.913,0,0,0-2410.192,5075.808Z" transform="translate(2417 -5069)" fill="#f23005"/>
  </g>
</svg>
