<svg xmlns="http://www.w3.org/2000/svg" xmlns:xlink="http://www.w3.org/1999/xlink" width="24" height="24" viewBox="0 0 24 24">
  <defs>
    <clipPath id="clip-ico_help">
      <rect width="24" height="24"/>
    </clipPath>
  </defs>
  <g id="ico_help" clip-path="url(#clip-ico_help)">
    <path id="ico_help_round_01" d="M20.491,3.538a11.994,11.994,0,1,0,.037,16.974A11.98,11.98,0,0,0,20.491,3.538ZM12.728,18.076a1.144,1.144,0,0,1-.9.3,1.3,1.3,0,0,1-.9-.3,1.042,1.042,0,0,1-.3-.787,1.1,1.1,0,0,1,1.2-1.124,1.076,1.076,0,0,1,.862.337,1.1,1.1,0,0,1,.337.824A1.015,1.015,0,0,1,12.728,18.076Zm1.725-6.37-1.087,1.049a2.734,2.734,0,0,0-.6,1.874H10.778a4.72,4.72,0,0,1,.3-1.8,5,5,0,0,1,1.125-1.5,8.3,8.3,0,0,0,1.087-1.162,1.982,1.982,0,0,0,.337-1.124,1.82,1.82,0,0,0-.412-1.237,1.514,1.514,0,0,0-1.2-.412,1.79,1.79,0,0,0-1.2.412,1.413,1.413,0,0,0-.45,1.124h-2.1a3.06,3.06,0,0,1,1.05-2.4,4.017,4.017,0,0,1,2.737-.9,4.128,4.128,0,0,1,2.737.862,3.158,3.158,0,0,1,.975,2.436A4.068,4.068,0,0,1,14.453,11.706Z" transform="translate(-0.025 -0.025)" fill="#a6a6a6"/>
  </g>
</svg>
