<svg xmlns="http://www.w3.org/2000/svg" xmlns:xlink="http://www.w3.org/1999/xlink" width="32" height="32" viewBox="0 0 32 32">
  <defs>
    <clipPath id="clip-ico_xlsx">
      <rect width="32" height="32"/>
    </clipPath>
  </defs>
  <g id="ico_xlsx" clip-path="url(#clip-ico_xlsx)">
    <path id="ico-xlsx" d="M28-2934v-8H25v-16h3v-8H54v8h3v16H54v8Zm.813-1H53.187v-7H28.813Zm12.6-11.976a2.389,2.389,0,0,0,1.005.788,3.481,3.481,0,0,0,1.418.285,2.971,2.971,0,0,0,1.849-.525,1.7,1.7,0,0,0,.681-1.413,1.887,1.887,0,0,0-.235-.955,2.132,2.132,0,0,0-.737-.723,5.525,5.525,0,0,0-1.333-.562,4.205,4.205,0,0,1-1.192-.508.784.784,0,0,1-.361-.652.863.863,0,0,1,.334-.722,1.512,1.512,0,0,1,.941-.259,1.449,1.449,0,0,1,1,.315,1.117,1.117,0,0,1,.349.871h1.23a2.01,2.01,0,0,0-.332-1.12,2.183,2.183,0,0,0-.913-.779,3.079,3.079,0,0,0-1.324-.274,2.847,2.847,0,0,0-1.819.557,1.739,1.739,0,0,0-.7,1.416,1.833,1.833,0,0,0,.972,1.592,5.766,5.766,0,0,0,1.367.576,3.953,3.953,0,0,1,1.189.512.861.861,0,0,1,.329.723.843.843,0,0,1-.325.691,1.533,1.533,0,0,1-.969.261,1.763,1.763,0,0,1-1.148-.332,1.157,1.157,0,0,1-.4-.937H41.049A1.972,1.972,0,0,0,41.408-2946.976Zm8.484-1.629L51.42-2946h1.441l-2.2-3.584,2.148-3.525H51.386l-1.494,2.568-1.494-2.568H46.972l2.153,3.525-2.2,3.584h1.436l1.532-2.605v0ZM36-2946h4.463v-.986H37.236v-6.123H36Zm-3.881-2.605L33.646-2946h1.44l-2.2-3.584,2.148-3.525H33.612l-1.494,2.568-1.494-2.568H29.2l2.154,3.525-2.2,3.584h1.436l1.533-2.605v0Zm-3.307-9.4H53.187v-7H28.813Z" transform="translate(-25 2965.999)" fill="#fedb4b"/>
  </g>
</svg>
