<svg xmlns="http://www.w3.org/2000/svg" xmlns:xlink="http://www.w3.org/1999/xlink" width="24" height="24" viewBox="0 0 24 24">
  <defs>
    <clipPath id="clip-ico_delete">
      <rect width="24" height="24"/>
    </clipPath>
  </defs>
  <g id="ico_delete" clip-path="url(#clip-ico_delete)">
    <path id="ico-delete" d="M26.5-2942a1.507,1.507,0,0,1-1.5-1.5v-14.25H42.25v14.25a1.508,1.508,0,0,1-1.5,1.5Zm12-12.75v9.75a.756.756,0,0,0,.75.75A.756.756,0,0,0,40-2945v-9.75a.751.751,0,0,0-.75-.75A.751.751,0,0,0,38.5-2954.748Zm-3.75,0v9.75a.756.756,0,0,0,.75.75.756.756,0,0,0,.75-.75v-9.75a.751.751,0,0,0-.75-.75A.751.751,0,0,0,34.75-2954.748Zm-3.75,0v9.75a.756.756,0,0,0,.75.75.756.756,0,0,0,.75-.75v-9.75a.751.751,0,0,0-.75-.75A.751.751,0,0,0,31-2954.748Zm-3.75,0v9.75a.756.756,0,0,0,.75.75.756.756,0,0,0,.75-.75v-9.75a.751.751,0,0,0-.75-.75A.751.751,0,0,0,27.25-2954.748ZM25-2960v-2.25a1.5,1.5,0,0,1,1.5-1.5h6v-1.5a.751.751,0,0,1,.75-.75H34a.751.751,0,0,1,.75.75v1.5h6a1.5,1.5,0,0,1,1.5,1.5v2.25Z" transform="translate(-22 2965.998)" fill="#a4a4a4"/>
  </g>
</svg>
