<svg xmlns="http://www.w3.org/2000/svg" xmlns:xlink="http://www.w3.org/1999/xlink" width="32" height="32" viewBox="0 0 32 32">
  <defs>
    <clipPath id="clip-ico_progress">
      <rect width="32" height="32"/>
    </clipPath>
  </defs>
  <g id="ico_progress" clip-path="url(#clip-ico_progress)">
    <path id="ico-progress" d="M22.141,9.492A8.749,8.749,0,0,0,24,4.111V0H4V4.111a8.738,8.738,0,0,0,1.859,5.38L9.718,14.4a2.5,2.5,0,0,1,.011,3.075L5.816,22.531A8.751,8.751,0,0,0,4,27.857V32H24V27.857a8.755,8.755,0,0,0-1.816-5.325l-3.913-5.059a2.5,2.5,0,0,1,.011-3.075l3.859-4.907ZM21.5,4a5.972,5.972,0,0,1-1.275,3.779L19,9.333H9L7.775,7.777A5.961,5.961,0,0,1,6.5,4ZM20.255,24.228A5.979,5.979,0,0,1,21.5,28H20.174A9.142,9.142,0,0,0,14,25.333,9.142,9.142,0,0,0,7.826,28H6.5a5.976,5.976,0,0,1,1.245-3.772l3.911-5.057a5.16,5.16,0,0,0,.889-1.836h.2v1.333h2.5V17.335h.2a5.165,5.165,0,0,0,.889,1.835Zm-7.5-1.561h2.5V24h-2.5Zm0-2.667h2.5v1.333h-2.5Z" transform="translate(2)" fill="#2c9cfe"/>
  </g>
</svg>
