<svg xmlns="http://www.w3.org/2000/svg" xmlns:xlink="http://www.w3.org/1999/xlink" width="32" height="32" viewBox="0 0 32 32">
  <defs>
    <clipPath id="clip-ico_success">
      <rect width="32" height="32"/>
    </clipPath>
  </defs>
  <g id="ico_success" clip-path="url(#clip-ico_success)">
    <path id="ico-success" d="M25-2950a16,16,0,0,1,16-16,16,16,0,0,1,16,16,16,16,0,0,1-16,16A16,16,0,0,1,25-2950Zm6.1-9.9A13.908,13.908,0,0,0,27-2950a13.909,13.909,0,0,0,4.1,9.9A13.909,13.909,0,0,0,41-2936a13.907,13.907,0,0,0,9.9-4.1A13.909,13.909,0,0,0,55-2950a13.908,13.908,0,0,0-4.1-9.9A13.908,13.908,0,0,0,41-2964,13.91,13.91,0,0,0,31.1-2959.9Zm.9,9.213,1.414-1.414,6.364,6.364,9.9-9.9,1.415,1.414-9.9,9.9h0l-1.415,1.414Z" transform="translate(-25 2966)" fill="#7bffb6"/>
  </g>
</svg>
