<svg xmlns="http://www.w3.org/2000/svg" xmlns:xlink="http://www.w3.org/1999/xlink" width="32" height="32" viewBox="0 0 32 32">
  <defs>
    <clipPath id="clip-ico_csv_dark">
      <rect width="32" height="32"/>
    </clipPath>
  </defs>
  <g id="ico_csv_dark" clip-path="url(#clip-ico_csv_dark)">
    <path id="ico-csv" d="M28-2934v-8H25v-16h3v-8H54v8h3v16H54v8Zm.813-1H53.187v-7H28.813Zm9.919-11.976a2.4,2.4,0,0,0,1.006.788,3.481,3.481,0,0,0,1.418.285,2.971,2.971,0,0,0,1.849-.525,1.7,1.7,0,0,0,.68-1.413,1.891,1.891,0,0,0-.234-.955,2.13,2.13,0,0,0-.737-.723,5.541,5.541,0,0,0-1.333-.562,4.205,4.205,0,0,1-1.192-.508.783.783,0,0,1-.362-.652.862.862,0,0,1,.335-.722,1.511,1.511,0,0,1,.94-.259,1.452,1.452,0,0,1,1,.315,1.117,1.117,0,0,1,.349.871h1.23a2.01,2.01,0,0,0-.332-1.12,2.189,2.189,0,0,0-.913-.779,3.082,3.082,0,0,0-1.324-.274,2.844,2.844,0,0,0-1.819.557,1.739,1.739,0,0,0-.7,1.416,1.833,1.833,0,0,0,.972,1.592,5.766,5.766,0,0,0,1.367.576,3.953,3.953,0,0,1,1.189.512.861.861,0,0,1,.329.723.846.846,0,0,1-.325.691,1.535,1.535,0,0,1-.969.261,1.762,1.762,0,0,1-1.147-.332,1.155,1.155,0,0,1-.4-.937H38.373A1.981,1.981,0,0,0,38.732-2946.976Zm-5.37-5.816a2.7,2.7,0,0,0-1.023,1.182,4.179,4.179,0,0,0-.356,1.773v.663a4.152,4.152,0,0,0,.366,1.724,2.658,2.658,0,0,0,1,1.145,2.8,2.8,0,0,0,1.5.4,2.877,2.877,0,0,0,1.948-.637,2.585,2.585,0,0,0,.84-1.775H36.4a1.711,1.711,0,0,1-.464,1.089,1.607,1.607,0,0,1-1.093.328,1.376,1.376,0,0,1-1.209-.607,3.14,3.14,0,0,1-.412-1.76v-.63a2.953,2.953,0,0,1,.442-1.728,1.447,1.447,0,0,1,1.237-.589,1.478,1.478,0,0,1,1.052.339,1.763,1.763,0,0,1,.447,1.106h1.23a2.68,2.68,0,0,0-.835-1.8,2.759,2.759,0,0,0-1.895-.637A2.864,2.864,0,0,0,33.361-2952.792ZM46.684-2946h1.2l2.559-7.109H49.082l-1.807,5.561-1.787-5.561H44.135Zm-17.871-12H53.187v-7H28.813Z" transform="translate(-25 2965.999)" fill="#121212"/>
  </g>
</svg>
