<svg xmlns="http://www.w3.org/2000/svg" xmlns:xlink="http://www.w3.org/1999/xlink" width="24" height="24" viewBox="0 0 24 24">
  <defs>
    <clipPath id="clip-ico_help">
      <rect width="24" height="24"/>
    </clipPath>
  </defs>
  <g id="ico_help" clip-path="url(#clip-ico_help)">
    <path id="ico_help_round_01" d="M13.669,2.367a8,8,0,1,0,.025,11.316A7.986,7.986,0,0,0,13.669,2.367ZM8.494,12.059a.763.763,0,0,1-.6.2.866.866,0,0,1-.6-.2.7.7,0,0,1-.2-.525.731.731,0,0,1,.8-.749.718.718,0,0,1,.575.225.734.734,0,0,1,.225.55A.677.677,0,0,1,8.494,12.059Zm1.15-4.247-.725.7a1.823,1.823,0,0,0-.4,1.249H7.194a3.147,3.147,0,0,1,.2-1.2,3.334,3.334,0,0,1,.75-1,5.533,5.533,0,0,0,.725-.774,1.321,1.321,0,0,0,.225-.749,1.213,1.213,0,0,0-.275-.824,1.009,1.009,0,0,0-.8-.275,1.193,1.193,0,0,0-.8.275.942.942,0,0,0-.3.749h-1.4a2.04,2.04,0,0,1,.7-1.6,2.678,2.678,0,0,1,1.825-.6,2.752,2.752,0,0,1,1.825.575,2.105,2.105,0,0,1,.65,1.624A2.712,2.712,0,0,1,9.644,7.813Z" transform="translate(3.975 3.975)" fill="#a4a4a4"/>
  </g>
</svg>
