<svg xmlns="http://www.w3.org/2000/svg" xmlns:xlink="http://www.w3.org/1999/xlink" width="32" height="32" viewBox="0 0 32 32">
  <defs>
    <clipPath id="clip-ico_readying.">
      <rect width="32" height="32"/>
    </clipPath>
  </defs>
  <g id="ico_readying." clip-path="url(#clip-ico_readying.)">
    <path id="ico-readying" d="M10.9,9.836,6.844,2.809,9.153,1.476l4.06,7.031A8.07,8.07,0,0,0,10.9,9.836ZM9.835,10.9,2.808,6.847,1.475,9.156l7.032,4.06A8.017,8.017,0,0,1,9.835,10.9ZM8,16a7.981,7.981,0,0,1,.12-1.332H0v2.665H8.12A8,8,0,0,1,8,16Zm15.135-3.607,6.944-4.009-.444-.769-6.941,4.009A8.263,8.263,0,0,1,23.135,12.393ZM16,8a7.981,7.981,0,0,1,1.332.12V0H14.667V8.12A8,8,0,0,1,16,8Zm4.187,1.192,4.005-6.939-.384-.221-4,6.929Zm2.247,11.549,6.979,4.029.888-1.539-6.972-4.025a8.113,8.113,0,0,1-.895,1.535ZM8.508,18.785,1.476,22.847l1.333,2.309L9.836,21.1a8.025,8.025,0,0,1-1.328-2.315Zm15.459-3.452L24,16l-.033.667H32V15.333ZM19,23.415l4.04,7L24.96,29.3l-4.041-7A8.053,8.053,0,0,1,19,23.415ZM16,24a8,8,0,0,1-1.333-.12V32h2.665V23.88A7.981,7.981,0,0,1,16,24Zm-5.1-1.835L6.845,29.192l2.309,1.333,4.06-7.032A8.035,8.035,0,0,1,10.9,22.165Z" fill="#d1b77a"/>
  </g>
</svg>
