<svg xmlns="http://www.w3.org/2000/svg" xmlns:xlink="http://www.w3.org/1999/xlink" width="24" height="24" viewBox="0 0 24 24">
  <defs>
    <clipPath id="clip-ico_option_log">
      <rect width="24" height="24"/>
    </clipPath>
  </defs>
  <g id="ico_option_log" clip-path="url(#clip-ico_option_log)">
    <path id="ico-log-disabled" d="M2.25,5870v-6H0v-12H2.25v-6h19.5v6H24v12H21.751v6Zm.61-.75H21.141V5864H2.86Zm13.266-13.869a2.472,2.472,0,0,0-.968,1.1,4,4,0,0,0-.336,1.7v.447a3.765,3.765,0,0,0,.364,1.665,2.505,2.505,0,0,0,1,1.081,3.022,3.022,0,0,0,1.515.373,4.438,4.438,0,0,0,1.5-.243,2.4,2.4,0,0,0,1.047-.678v-2.622H17.633v1h1.246v1.133a1.534,1.534,0,0,1-1.1.324,1.375,1.375,0,0,1-1.165-.527,2.587,2.587,0,0,1-.4-1.561v-.42a2.723,2.723,0,0,1,.37-1.543,1.224,1.224,0,0,1,1.064-.518,1.141,1.141,0,0,1,1.267,1.086H20.25a2.385,2.385,0,0,0-.791-1.622,2.813,2.813,0,0,0-1.85-.558A2.84,2.84,0,0,0,16.126,5855.381Zm-6.447.013a2.628,2.628,0,0,0-1,1.133,3.91,3.91,0,0,0-.355,1.708v.326a3.826,3.826,0,0,0,.362,1.675,2.623,2.623,0,0,0,1,1.121,2.965,2.965,0,0,0,2.96,0,2.6,2.6,0,0,0,.992-1.128,3.931,3.931,0,0,0,.347-1.7v-.294a3.9,3.9,0,0,0-.354-1.7,2.628,2.628,0,0,0-1-1.133,2.963,2.963,0,0,0-2.956,0Zm-5.928,6.266H8.031v-1.088H5.12v-5.482H3.751ZM2.86,5852H21.141v-5.25H2.86Zm7.228,8.085a2.781,2.781,0,0,1-.375-1.561v-.321a2.713,2.713,0,0,1,.379-1.555,1.334,1.334,0,0,1,2.134.007,2.754,2.754,0,0,1,.374,1.57v.319a2.776,2.776,0,0,1-.374,1.561,1.323,1.323,0,0,1-2.139-.021Z" transform="translate(0 -5846)" fill="#0367a6"/>
  </g>
</svg>
