<svg xmlns="http://www.w3.org/2000/svg" xmlns:xlink="http://www.w3.org/1999/xlink" width="24" height="24" viewBox="0 0 24 24">
  <defs>
    <clipPath id="clip-ico_bottleneck">
      <rect width="24" height="24"/>
    </clipPath>
  </defs>
  <g id="ico_bottleneck" clip-path="url(#clip-ico_bottleneck)">
    <path id="ico-bottleneck" d="M2033.733-1168.333a1.333,1.333,0,0,1,1.333-1.334,1.333,1.333,0,0,1,1.333,1.334,1.333,1.333,0,0,1-1.333,1.333A1.333,1.333,0,0,1,2033.733-1168.333Zm-.7-2.267v-6.378L2026.467-1187h17.067l-6.565,10.021v6.378Zm.985-1.692a1,1,0,0,0,.985.976,1,1,0,0,0,.984-.976,1,1,0,0,0-.984-.976A1,1,0,0,0,2034.015-1172.292Zm0-2.993a1,1,0,0,0,.985.976,1,1,0,0,0,.984-.976,1,1,0,0,0-.984-.976A1,1,0,0,0,2034.015-1175.286Zm0-3.059a1.006,1.006,0,0,0,.985.977,1,1,0,0,0,.984-.977,1,1,0,0,0-.984-.976A1.006,1.006,0,0,0,2034.015-1178.345Zm1.9-3.254a1.006,1.006,0,0,0,.985.977,1,1,0,0,0,.985-.977,1,1,0,0,0-.985-.976A1,1,0,0,0,2035.919-1181.6Zm-3.807,0a1,1,0,0,0,.985.977,1.006,1.006,0,0,0,.985-.977,1,1,0,0,0-.985-.976A.963.963,0,0,0,2032.112-1181.6Zm5.776-3.123a1,1,0,0,0,.985.976,1,1,0,0,0,.985-.976,1,1,0,0,0-.985-.977A1,1,0,0,0,2037.888-1184.722Zm-3.873,0a1,1,0,0,0,.985.976,1,1,0,0,0,.984-.976,1,1,0,0,0-.984-.977A1,1,0,0,0,2034.015-1184.722Zm-3.873,0a1,1,0,0,0,.984.976,1,1,0,0,0,.985-.976,1,1,0,0,0-.985-.977A1,1,0,0,0,2030.143-1184.722Zm12.19-4.945a1.333,1.333,0,0,1,1.334-1.333,1.333,1.333,0,0,1,1.333,1.333,1.334,1.334,0,0,1-1.333,1.334A1.334,1.334,0,0,1,2042.333-1189.667Zm-5.778,0a1.334,1.334,0,0,1,1.334-1.333,1.333,1.333,0,0,1,1.333,1.333,1.334,1.334,0,0,1-1.333,1.334A1.334,1.334,0,0,1,2036.555-1189.667Zm-5.777,0a1.333,1.333,0,0,1,1.333-1.333,1.334,1.334,0,0,1,1.334,1.333,1.334,1.334,0,0,1-1.334,1.334A1.334,1.334,0,0,1,2030.778-1189.667Zm-5.778,0a1.333,1.333,0,0,1,1.333-1.333,1.333,1.333,0,0,1,1.334,1.333,1.334,1.334,0,0,1-1.334,1.334A1.334,1.334,0,0,1,2025-1189.667Z" transform="translate(-2023 1191)" fill="#0367a6"/>
  </g>
</svg>
