<svg xmlns="http://www.w3.org/2000/svg" xmlns:xlink="http://www.w3.org/1999/xlink" width="32" height="32" viewBox="0 0 32 32">
  <defs>
    <clipPath id="clip-ico_setting_w">
      <rect width="32" height="32"/>
    </clipPath>
  </defs>
  <g id="ico_setting_w" clip-path="url(#clip-ico_setting_w)">
    <path id="iconmonstr-construction-7" d="M22.745,24.08l-5.327-5.888c-1.423-1.456-.053-3.084,3.387-3.436A10.111,10.111,0,0,0,16.78,13.8a5.1,5.1,0,0,0-3.179.993c-1.632,1.256-1.3,2.261-2.033,3.013a1.149,1.149,0,0,1-1.485.1L8.916,19.1l3.3,3.372,1.165-1.193s-.481-.848.049-1.389a1.154,1.154,0,0,1,1.713.071c.26.265,5.531,5.936,5.531,5.936A1.377,1.377,0,0,0,22.745,24.08ZM32,17.364H28V31H4V17.364H0L16,1,32,17.364Zm-5.333-7.4-4-4.091V2.365h4Z" transform="translate(0 0)" fill="#fff" fill-rule="evenodd"/>
  </g>
</svg>
