<svg xmlns="http://www.w3.org/2000/svg" xmlns:xlink="http://www.w3.org/1999/xlink" width="24" height="24" viewBox="0 0 24 24">
  <defs>
    <clipPath id="clip-ico_dotted_w">
      <rect width="24" height="24"/>
    </clipPath>
  </defs>
  <g id="ico_dotted_w" clip-path="url(#clip-ico_dotted_w)">
    <path id="합치기_5" data-name="합치기 5" d="M26.5-2942H25v-24h1.5v22.5H49v1.5Zm17.25-4.875a1.873,1.873,0,0,1,1.875-1.875,1.873,1.873,0,0,1,1.875,1.875A1.878,1.878,0,0,1,45.625-2945,1.878,1.878,0,0,1,43.75-2946.873Zm-5.25,0a1.873,1.873,0,0,1,1.875-1.875,1.873,1.873,0,0,1,1.875,1.875A1.878,1.878,0,0,1,40.375-2945,1.878,1.878,0,0,1,38.5-2946.873Zm-5.25,0a1.873,1.873,0,0,1,1.875-1.875A1.873,1.873,0,0,1,37-2946.873,1.878,1.878,0,0,1,35.125-2945,1.878,1.878,0,0,1,33.25-2946.873Zm-5.25,0a1.873,1.873,0,0,1,1.875-1.875,1.873,1.873,0,0,1,1.875,1.875A1.878,1.878,0,0,1,29.875-2945,1.878,1.878,0,0,1,28-2946.873Zm15.75-5.25A1.873,1.873,0,0,1,45.625-2954a1.873,1.873,0,0,1,1.875,1.875,1.878,1.878,0,0,1-1.875,1.875A1.878,1.878,0,0,1,43.75-2952.123Zm-5.25,0A1.873,1.873,0,0,1,40.375-2954a1.873,1.873,0,0,1,1.875,1.875,1.878,1.878,0,0,1-1.875,1.875A1.878,1.878,0,0,1,38.5-2952.123Zm-5.25,0A1.873,1.873,0,0,1,35.125-2954,1.873,1.873,0,0,1,37-2952.123a1.878,1.878,0,0,1-1.875,1.875A1.878,1.878,0,0,1,33.25-2952.123Zm10.5-5.25a1.873,1.873,0,0,1,1.875-1.875,1.873,1.873,0,0,1,1.875,1.875,1.878,1.878,0,0,1-1.875,1.875A1.878,1.878,0,0,1,43.75-2957.373Zm-5.25,0a1.873,1.873,0,0,1,1.875-1.875,1.873,1.873,0,0,1,1.875,1.875,1.878,1.878,0,0,1-1.875,1.875A1.878,1.878,0,0,1,38.5-2957.373Zm0-5.25a1.873,1.873,0,0,1,1.875-1.875,1.873,1.873,0,0,1,1.875,1.875,1.878,1.878,0,0,1-1.875,1.875A1.878,1.878,0,0,1,38.5-2962.623Z" transform="translate(-25 2965.998)" fill="#fff"/>
  </g>
</svg>
