<svg xmlns="http://www.w3.org/2000/svg" xmlns:xlink="http://www.w3.org/1999/xlink" width="200" height="123" viewBox="0 0 200 123">
  <defs>
    <clipPath id="clip-img_filter_time_02">
      <rect width="200" height="123"/>
    </clipPath>
  </defs>
  <g id="img_filter_time_02" clip-path="url(#clip-img_filter_time_02)">
    <rect width="200" height="123" fill="#fff"/>
    <path id="filter" d="M-2100,3800v-15h20v15Zm1-1h18v-13h-18Zm-122,1v-15h100v15Zm-19-20v-15h130v15Zm70-20v-15h85v15Zm-95-8v-15h47v15Zm1-1h45v-13h-45Zm20-19v-15h82v15Zm-26,0v-15h20v15Zm1-1h18v-13h-18Z" transform="translate(2275 -3697)" fill="#a6a6a6"/>
    <rect id="line" width="1" height="103" transform="translate(30 10)" fill="#bfbfbf"/>
    <rect id="line-2" data-name="line" width="1" height="103" transform="translate(169 10)" fill="#bfbfbf"/>
  </g>
</svg>
