<svg xmlns="http://www.w3.org/2000/svg" xmlns:xlink="http://www.w3.org/1999/xlink" width="24" height="24" viewBox="0 0 24 24">
  <defs>
    <clipPath id="clip-ico_svg">
      <rect width="24" height="24"/>
    </clipPath>
  </defs>
  <g id="ico_svg" clip-path="url(#clip-ico_svg)">
    <path id="패스_340" data-name="패스 340" d="M-2319,5282h-18v-5h-3v-14h3v-5h18v5h3v14h-3v5h0Zm-17-1h16v-4h-16Zm12.7-14.1a4.647,4.647,0,0,0-.8,2.8v.7a4.059,4.059,0,0,0,.4,1.9,3.029,3.029,0,0,0,1.2,1.3,3.368,3.368,0,0,0,1.7.5,4.316,4.316,0,0,0,1.7-.3,2.447,2.447,0,0,0,1.1-.9V5270h-2.8v.7h1.8v1.8a1.6,1.6,0,0,1-.7.4,3.026,3.026,0,0,1-1,.1,2.134,2.134,0,0,1-1.7-.8,3.3,3.3,0,0,1-.6-2.1v-.6a3.2,3.2,0,0,1,.5-2.1,1.873,1.873,0,0,1,1.6-.7,1.719,1.719,0,0,1,1.9,1.6h1a2.619,2.619,0,0,0-.9-1.8,3.175,3.175,0,0,0-2-.6A2.719,2.719,0,0,0-2323.3,5266.9Zm-5.4,7.1h.9l2.9-8h-1.1l-2.3,6.6-2.3-6.6h-1.1Zm-9-1.2a3.139,3.139,0,0,0,1.1.9,3.649,3.649,0,0,0,1.5.3,3.168,3.168,0,0,0,2-.6,1.763,1.763,0,0,0,.8-1.5,1.805,1.805,0,0,0-.3-1.1,2.048,2.048,0,0,0-.8-.8,5.689,5.689,0,0,0-1.5-.6,4.875,4.875,0,0,1-1.4-.6.913.913,0,0,1-.4-.8.968.968,0,0,1,.4-.9,2.152,2.152,0,0,1,1.2-.3,2.3,2.3,0,0,1,1.3.3,1.3,1.3,0,0,1,.5,1.1h1a2.859,2.859,0,0,0-.4-1.2,1.8,1.8,0,0,0-1-.9,4.047,4.047,0,0,0-1.5-.3,2.435,2.435,0,0,0-1.9.6,2.131,2.131,0,0,0-.7,1.6,1.812,1.812,0,0,0,.6,1.4,5.437,5.437,0,0,0,2,1,3.4,3.4,0,0,1,1.5.7.972.972,0,0,1,.4.9.968.968,0,0,1-.4.9,2.26,2.26,0,0,1-1.3.3,2.608,2.608,0,0,1-1.4-.4,1.291,1.291,0,0,1-.5-1.1h-1.1A1.535,1.535,0,0,0-2337.7,5272.8Zm17.7-9.8v-4h-16v4Z" transform="translate(2340 -5258)" fill="#6f6f7a"/>
  </g>
</svg>
