<svg xmlns="http://www.w3.org/2000/svg" xmlns:xlink="http://www.w3.org/1999/xlink" width="24" height="24" viewBox="0 0 24 24">
  <defs>
    <clipPath id="clip-ico_png">
      <rect width="24" height="24"/>
    </clipPath>
  </defs>
  <g id="ico_png" clip-path="url(#clip-ico_png)">
    <path id="합치기_86" data-name="합치기 86" d="M-2295,5282v-5h-3v-14h3v-5h18v5h3v14h-3v5h-18Zm1-1h16v-4h-16Zm12.9-14a4.548,4.548,0,0,0-.8,2.7v.7a3.741,3.741,0,0,0,.4,1.9,2.554,2.554,0,0,0,1.1,1.2,3.268,3.268,0,0,0,1.7.4,4.153,4.153,0,0,0,1.6-.3,2.232,2.232,0,0,0,1.1-.8V5270h-2.7v.9h1.8v1.7a1.6,1.6,0,0,1-.7.4,3.04,3.04,0,0,1-1,.1,1.93,1.93,0,0,1-1.6-.8,3,3,0,0,1-.6-2v-.6a4.107,4.107,0,0,1,.5-2.1,1.573,1.573,0,0,1,1.5-.7,1.674,1.674,0,0,1,1.8,1.5h1a2.572,2.572,0,0,0-.9-1.7,2.875,2.875,0,0,0-1.9-.6A2.874,2.874,0,0,0-2281.1,5267Zm-7.1.9,3.8,5.9h1v-7.6h-1v5.9l-3.8-5.9h-1v7.6h1v-5.9Zm-7.8,5.9h1v-3h1.8a2.993,2.993,0,0,0,2-.6,2.052,2.052,0,0,0,.7-1.7,2.056,2.056,0,0,0-.7-1.7,3.166,3.166,0,0,0-2-.6h-2.8Zm18-10.8v-4h-16v4Zm-17,7v-3h1.9a1.606,1.606,0,0,1,1.1.4,1.372,1.372,0,0,1,.4,1.1,1.365,1.365,0,0,1-.4,1.1,1.57,1.57,0,0,1-1.2.4Z" transform="translate(2298 -5258)" fill="#6f6f7a"/>
  </g>
</svg>
