<svg xmlns="http://www.w3.org/2000/svg" xmlns:xlink="http://www.w3.org/1999/xlink" width="24" height="24" viewBox="0 0 24 24">
  <defs>
    <clipPath id="clip-ico_error_report">
      <rect width="24" height="24"/>
    </clipPath>
  </defs>
  <g id="ico_error_report" clip-path="url(#clip-ico_error_report)">
    <path id="합치기_90" data-name="합치기 90" d="M-2238,5235h-14v-6h14v6h0Zm-13-1h12v-4h-12Zm19.45-1.292-1.75,1.792-.7-.7,1.759-1.8-1.759-1.8.7-.7,1.75,1.792,1.751-1.792.7.7-1.758,1.8,1.758,1.8-.7.7ZM-2238,5226h-14v-6h14v6h0Zm-13-1h12v-4h-12Zm19.45-1.851-1.75,1.75-.7-.7,1.751-1.75-1.751-1.75.7-.7,1.75,1.75,1.751-1.75.7.7-1.75,1.75,1.75,1.75-.7.7ZM-2238,5217h-14v-6h14v6h0Zm-13-1h12v-4h-12Zm15.9-2.9.7-.7,2.188,2.112,3.513-3.512.7.7-3.5,3.5-.7.7Z" transform="translate(2252 -5211)" fill="#6f6f7a"/>
  </g>
</svg>
