<svg xmlns="http://www.w3.org/2000/svg" xmlns:xlink="http://www.w3.org/1999/xlink" width="32" height="32" viewBox="0 0 32 32">
  <defs>
    <clipPath id="clip-ico_log_db_disabled">
      <rect width="32" height="32"/>
    </clipPath>
  </defs>
  <g id="ico_log_db_disabled" clip-path="url(#clip-ico_log_db_disabled)">
    <path id="ico_log_db" d="M-2588,4808v-8h-3v-16h3v-8h26v8h3v16h-3v8Zm1-1h24v-7h-24Zm13.954-10h3.37a3.647,3.647,0,0,0,2.39-.7,2.472,2.472,0,0,0,.835-2,2.249,2.249,0,0,0-.41-1.35,2.055,2.055,0,0,0-1.158-.764,2.213,2.213,0,0,0,1-.787,2,2,0,0,0,.343-1.143,2.222,2.222,0,0,0-.819-1.873,3.877,3.877,0,0,0-2.385-.629h-3.167Zm-9.014,0h2.659a4.494,4.494,0,0,0,2.218-.539,3.692,3.692,0,0,0,1.493-1.537,4.917,4.917,0,0,0,.524-2.31v-.463a4.925,4.925,0,0,0-.521-2.3,3.739,3.739,0,0,0-1.469-1.55,4.312,4.312,0,0,0-2.174-.545h-2.729Zm19.06-13v-7h-24v7Zm-8.442,11.718v-2.888h1.917a1.322,1.322,0,0,1,1.473,1.472,1.322,1.322,0,0,1-.426,1.042,1.736,1.736,0,0,1-1.18.374Zm-9.012,0v-6.666h1.124a2.331,2.331,0,0,1,1.9.794,3.549,3.549,0,0,1,.654,2.3v.514a3.455,3.455,0,0,1-.689,2.27,2.422,2.422,0,0,1-1.939.791Zm9.012-4.069v-2.6h1.563a1.98,1.98,0,0,1,1.215.3,1.186,1.186,0,0,1,.391.992,1.173,1.173,0,0,1-.422.962,1.83,1.83,0,0,1-1.172.339Z" transform="translate(2591 -4776)" fill="#a6a6a6"/>
  </g>
</svg>
