<?xml version="1.0" encoding="utf-8"?>
<!-- Generator: Adobe Illustrator 22.1.0, SVG Export Plug-In . SVG Version: 6.00 Build 0)  -->
<svg version="1.0" id="Layer_1" xmlns="http://www.w3.org/2000/svg" xmlns:xlink="http://www.w3.org/1999/xlink" x="0px" y="0px"
	 viewBox="0 0 16 16" style="enable-background:new 0 0 16 16;" xml:space="preserve">
<style type="text/css">
	.st0{fill:#D81A60;}
</style>
<g>
	<path d="M-38.7,22.5h-4.6v12.6h-8.6V-0.5h14c4.2,0,7.5,0.9,9.9,2.8c2.4,1.9,3.6,4.5,3.6,7.9c0,2.5-0.5,4.5-1.5,6.1
		c-1,1.6-2.6,2.9-4.7,4l7.4,14.4v0.4h-9.2L-38.7,22.5z M-43.3,15.9h5.4c1.6,0,2.9-0.4,3.7-1.3c0.8-0.9,1.2-2.1,1.2-3.6
		s-0.4-2.7-1.2-3.6c-0.8-0.9-2.1-1.3-3.7-1.3h-5.4V15.9z"/>
</g>
<g>
	<g>
		<path d="M6.9,8.9H5.5v4H2.7V1.6h4.5c1.3,0,2.4,0.3,3.2,0.9c0.8,0.6,1.1,1.4,1.1,2.5c0,0.8-0.2,1.4-0.5,2c-0.3,0.5-0.8,0.9-1.5,1.3
			l2.4,4.6v0.1H9L6.9,8.9z M5.5,6.8h1.7c0.5,0,0.9-0.1,1.2-0.4s0.4-0.7,0.4-1.1S8.6,4.4,8.4,4.1S7.7,3.7,7.2,3.7H5.5V6.8z"/>
	</g>
	<g>
		<path class="st0" d="M8.6,10.3H7.1v4H4.3V3h4.5c1.3,0,2.4,0.3,3.2,0.9c0.8,0.6,1.1,1.4,1.1,2.5c0,0.8-0.2,1.4-0.5,2
			c-0.3,0.5-0.8,0.9-1.5,1.3l2.4,4.6v0.1h-2.9L8.6,10.3z M7.1,8.2h1.7c0.5,0,0.9-0.1,1.2-0.4c0.3-0.3,0.4-0.7,0.4-1.1
			S10.3,5.8,10,5.5S9.3,5.1,8.8,5.1H7.1V8.2z"/>
	</g>
</g>
<g>
	<g>
		<path d="M6.9,28.5H5.5v4H2.7V21.1h4.5c1.3,0,2.4,0.3,3.2,0.9c0.8,0.6,1.1,1.4,1.1,2.5c0,0.8-0.2,1.4-0.5,2
			c-0.3,0.5-0.8,0.9-1.5,1.3l2.4,4.6v0.1H9L6.9,28.5z M5.5,26.3h1.7c0.5,0,0.9-0.1,1.2-0.4s0.4-0.7,0.4-1.1s-0.1-0.9-0.4-1.2
			s-0.7-0.4-1.2-0.4H5.5V26.3z"/>
	</g>
	<g>
		<path class="st0" d="M8.6,29.9H7.1v4H4.3V22.5h4.5c1.3,0,2.4,0.3,3.2,0.9c0.8,0.6,1.1,1.4,1.1,2.5c0,0.8-0.2,1.4-0.5,2
			c-0.3,0.5-0.8,0.9-1.5,1.3l2.4,4.6v0.1h-2.9L8.6,29.9z M7.1,27.7h1.7c0.5,0,0.9-0.1,1.2-0.4s0.4-0.7,0.4-1.1S10.3,25.3,10,25
			s-0.7-0.4-1.2-0.4H7.1V27.7z"/>
	</g>
</g>
<g>
	<g>
		<path d="M6.9,215.9H5.5v4H2.7v-11.4h4.5c1.3,0,2.4,0.3,3.2,0.9c0.8,0.6,1.1,1.4,1.1,2.5c0,0.8-0.2,1.4-0.5,2
			c-0.3,0.5-0.8,0.9-1.5,1.3l2.4,4.6v0.1H9L6.9,215.9z M5.5,213.8h1.7c0.5,0,0.9-0.1,1.2-0.4s0.4-0.7,0.4-1.1s-0.1-0.9-0.4-1.2
			s-0.7-0.4-1.2-0.4H5.5V213.8z"/>
	</g>
	<g>
		<path class="st0" d="M8.6,217.3H7.1v4H4.3v-11.4h4.5c1.3,0,2.4,0.3,3.2,0.9c0.8,0.6,1.1,1.4,1.1,2.5c0,0.8-0.2,1.4-0.5,2
			c-0.3,0.5-0.8,0.9-1.5,1.3l2.4,4.6v0.1h-2.9L8.6,217.3z M7.1,215.2h1.7c0.5,0,0.9-0.1,1.2-0.4s0.4-0.7,0.4-1.1s-0.1-0.9-0.4-1.2
			S9.3,212,8.8,212H7.1V215.2z"/>
	</g>
</g>
<image style="overflow:visible;" width="89" height="216" xlink:href="B7DBE846.jpg"  transform="matrix(1 0 0 1 51.7982 -92.0789)">
</image>
</svg>
