<?xml version="1.0" encoding="utf-8"?>
<!-- Generator: Adobe Illustrator 22.1.0, SVG Export Plug-In . SVG Version: 6.00 Build 0)  -->
<svg version="1.0" id="Layer_1" xmlns="http://www.w3.org/2000/svg" xmlns:xlink="http://www.w3.org/1999/xlink" x="0px" y="0px"
	 viewBox="0 0 200 100" style="enable-background:new 0 0 200 100;" xml:space="preserve">
<style type="text/css">
	.st0{fill:none;}
	.st1{fill:#383D45;}
</style>
<polygon class="st0" points="43,75 35,75 35,75 "/>
<g>
	<path class="st1" d="M52.5,78.4H40.8V21.6h11.7V78.4z"/>
	<path class="st1" d="M75.1,58.4v20H63.3V21.6h22.2c4.3,0,8,0.8,11.3,2.3s5.7,3.8,7.5,6.7c1.7,2.9,2.6,6.2,2.6,9.8
		c0,5.6-1.9,10-5.7,13.2c-3.8,3.2-9.1,4.8-15.8,4.8C85.4,58.4,75.1,58.4,75.1,58.4z M75.1,48.9h10.5c3.1,0,5.5-0.7,7.1-2.2
		s2.4-3.5,2.4-6.3s-0.8-5-2.5-6.8s-3.9-2.6-6.8-2.7H75.1V48.9z"/>
	<path class="st1" d="M136,57.6h-9.3v20.8H115V21.6h21.1c6.7,0,11.9,1.5,15.5,4.5s5.5,7.2,5.5,12.7c0,3.9-0.8,7.1-2.5,9.7
		c-1.7,2.6-4.2,4.7-7.6,6.2l12.3,23.2v0.5h-12.6L136,57.6z M126.7,48.1h9.5c2.9,0,5.2-0.7,6.8-2.2s2.4-3.6,2.4-6.2
		c0-2.7-0.8-4.8-2.3-6.3s-3.9-2.3-7-2.3h-9.4C126.7,31.1,126.7,48.1,126.7,48.1z"/>
</g>
</svg>
