<?xml version="1.0" encoding="utf-8"?>
<!-- Generator: Adobe Illustrator 22.1.0, SVG Export Plug-In . SVG Version: 6.00 Build 0)  -->
<svg version="1.0" id="Layer_1" xmlns="http://www.w3.org/2000/svg" xmlns:xlink="http://www.w3.org/1999/xlink" x="0px" y="0px"
	 viewBox="0 0 584 160" style="enable-background:new 0 0 584 160;" xml:space="preserve">
<style type="text/css">
	.st0{fill:#6F6F7A;}
</style>
<g>
	<rect x="74" y="40.8" class="st0" width="17.8" height="77.7"/>
	<path class="st0" d="M83,22.2c-31.8,0-57.6,25.7-57.6,57.5s25.8,57.5,57.6,57.5c31.8,0,57.6-25.7,57.6-57.5S114.8,22.2,83,22.2z
		 M83,123.3c-24.2,0-43.7-19.5-43.7-43.6C39.2,55.6,58.8,36,83,36s43.7,19.5,43.7,43.6C126.7,103.7,107.1,123.3,83,123.3z"/>
	<path class="st0" d="M82.6,143c-34.9,0-63.2-28.2-63.2-63c0-34.8,28.3-63,63.2-63c16.3,0,31.1,6.1,42.3,16.2
		c3.2-1.6,9.8-5.1,13.9-7.2C124.7,11.2,104.7,2.1,82.6,2.1C39.5,2.1,4.5,37,4.5,80s35,77.9,78.1,77.9c25.1,0,47.4-11.8,61.7-30.2
		l-13.6-6.9C119.2,134.4,101.9,143,82.6,143z"/>
	<rect x="164.9" y="40.1" class="st0" width="16.4" height="79.9"/>
	<path class="st0" d="M253.4,45c-6.4-4.6-13.9-6.9-22.4-6.9c-8.6,0-16.1,2.3-22.5,6.9c-9.8,7.1-14.7,18.8-14.7,35.1
		c0,16.1,4.9,27.7,14.7,34.9c6.5,4.7,14,7,22.5,7c8.4,0,15.9-2.3,22.4-7c9.9-7.1,14.8-18.8,14.8-34.9
		C268.2,63.8,263.2,52.1,253.4,45z M244.7,102.1c-3.7,3.7-8.2,5.5-13.7,5.5c-5.5,0-10.1-1.8-13.8-5.5c-4.8-4.8-7.2-12.1-7.2-22
		c0-10,2.4-17.4,7.2-22.2c3.7-3.7,8.3-5.5,13.8-5.5c5.5,0,10,1.8,13.7,5.5c4.8,4.8,7.3,12.2,7.3,22.2
		C251.9,90,249.5,97.3,244.7,102.1z"/>
	<path class="st0" d="M312.3,52.8c5.7,0,10,1.7,13,5.1c1.6,1.9,3,4.8,4,8.7h16.5c-0.6-7.1-3.4-13.4-8.5-18.7
		c-6.3-6.5-14.7-9.7-25.2-9.7c-10.5,0-19,3.5-25.4,10.6c-6.9,7.5-10.3,17.8-10.3,31.1c0,13.4,3.3,23.8,10,31.3
		c6.3,7.1,14.9,10.7,25.7,10.7c9.3,0,17-2.8,22.9-8.4c5.5-5.1,9.1-12.2,10.9-21.3h-16.5c-1,4.9-3,8.6-5.9,11.2
		c-2.9,2.6-6.5,3.9-11,3.9c-6.6,0-11.6-2.8-15-8.3c-3-4.8-4.5-11.1-4.5-18.9c0-10,2.2-17.4,6.7-22.1
		C302.9,54.6,307.2,52.8,312.3,52.8z"/>
	<path class="st0" d="M388.2,59.5c-4.1,0-7.8,0.9-11,2.8c-3,1.8-5,3.9-6,6.5H371V40.1h-15.1V120H371V86.3c0-4.3,1.2-7.7,3.5-10.2
		c2.2-2.3,5.1-3.5,8.6-3.5c4.3,0,7.2,1.4,8.7,4.2c0.8,1.6,1.3,4.1,1.3,7.4V120h15.1V79.3c0-6.4-1.9-11.4-5.7-14.9
		C398.8,61.1,394.1,59.5,388.2,59.5z"/>
	<path class="st0" d="M446.7,59.5c-8.2,0-14.9,2.5-20.2,7.5c-5.9,5.7-8.9,13.6-8.9,23.8c0,10.1,3,17.9,8.9,23.6
		c5.3,5.1,12.1,7.6,20.2,7.6c8,0,14.6-2.5,19.8-7.6c5.9-5.6,8.9-13.5,8.9-23.6c0-10.1-3-18.1-8.9-23.8
		C461.3,62,454.6,59.5,446.7,59.5z M457.4,102.5c-2.2,4.1-5.8,6.2-10.7,6.2c-5.1,0-8.8-2.1-11-6.2c-1.6-3.1-2.4-7-2.4-11.7
		c0-5,0.8-9,2.4-12c2.2-4.1,5.9-6.1,11-6.1c4.9,0,8.5,2,10.7,6.1c1.6,3.1,2.5,7.1,2.5,12C459.9,95.5,459,99.4,457.4,102.5z"/>
	<path class="st0" d="M505.6,63c-1.8,1.6-3.7,4.4-5.7,8.4h-0.1V61.1h-14.6V120h15.2V89.4c0-4.1,0.9-7.3,2.6-9.6
		c2.4-3.1,6.4-4.6,12.1-4.6c0.8,0,1.5,0,1.9,0c0.8,0.1,1.6,0.2,2.2,0.4v-16l-3-0.2C511.9,59.5,508.3,60.6,505.6,63z"/>
	<path class="st0" d="M564.4,40.1v28.7h-0.2c-1.6-2.6-3.4-4.6-5.5-6c-3.1-2.2-6.9-3.3-11.2-3.3c-6.7,0-12.3,2.5-16.8,7.5
		c-4.8,5.5-7.3,13.2-7.3,22.9c0,9,1.9,16.4,5.7,22.1c4.4,6.6,10.6,9.9,18.8,9.9c3.3,0,6.4-0.7,9.3-2.1c3.2-1.6,5.7-3.9,7.5-6.9v7.1
		h14.8V40.1H564.4z M562.1,103.8c-2.5,3.5-6,5.3-10.5,5.3c-4.5,0-7.8-2.1-10-6.4c-1.6-3.3-2.5-7.1-2.5-11.5c0-5.3,1-9.5,2.9-12.6
		c2.2-3.7,5.7-5.5,10.2-5.5c4.7,0,8.1,1.9,10.3,5.8c1.8,3.2,2.8,7.5,2.8,13.1C565.3,96.7,564.2,100.7,562.1,103.8z"/>
</g>
</svg>
