<svg xmlns="http://www.w3.org/2000/svg" xmlns:xlink="http://www.w3.org/1999/xlink" width="321" height="140" viewBox="0 0 321 140">
  <defs>
    <clipPath id="clip-img_delimeter">
      <rect width="321" height="140"/>
    </clipPath>
  </defs>
  <g id="img_delimeter" clip-path="url(#clip-img_delimeter)">
    <path id="img-delimeter" d="M320,140H0V0H320V140ZM78.388,118.422v12.67H79.83v-6.608H81.8v-1.191H79.83v-4.872Zm-11.382.014v12.641h1.442V118.436ZM21.884,124.61v1.19h4.942v5.278h1.455V125.8h5.04v-1.19H31.558a22.287,22.287,0,0,0,.322-4.3v-1.106H23.256v1.162h7.21v.012a19.292,19.292,0,0,1-.365,4.231Zm25.871,1.722v4.592h8.078v-4.592H54.406v1.162H49.184v-1.162Zm-12.446,1.05v3.458H44.1v-1.176H36.752v-2.282Zm48.146.532a1.09,1.09,0,0,0-1.078,1.147,1.079,1.079,0,1,0,2.156,0A1.09,1.09,0,0,0,83.456,127.914Zm-49.546-2.9v1.162h5.124v2.254h1.442v-2.254h4.9v-1.162Zm36.638-5.39v8.357h1.036a31.129,31.129,0,0,0,5.908-.419l-.154-1.19a30.637,30.637,0,0,1-5.348.406V120.8h4.438v-1.175Zm-11.8.041v8.219h1.078a30.25,30.25,0,0,0,6.174-.6l-.154-1.2a29.218,29.218,0,0,1-5.67.574v-6.987Zm-4.353-1.231v7.377h1.442v-3.037h1.792v-1.19H55.834v-3.15ZM49.7,121.264c-1.833,0-3.065.894-3.065,2.226s1.232,2.24,3.065,2.24,3.066-.9,3.066-2.24S51.536,121.264,49.7,121.264Zm-14.307-2.422v5.109h8.483v-5.109H42.45V120.3H36.822v-1.455Zm10.584.8V120.8H53.44V119.64H50.43v-1.316H48.988v1.316Zm203.7-18.455v15.75h1.078v-15.75Zm-37.856,11.787h0a2.159,2.159,0,0,1-1.526,1.917l.365.91a3.286,3.286,0,0,0,2.3-3.15c0-1.087-.466-1.736-1.246-1.736a1.045,1.045,0,0,0-1.12,1.036,1.015,1.015,0,0,0,1.078,1.036.565.565,0,0,0,.153-.014Zm-61.349-11.535v12.656h1.456v-6.37h1.946v-1.2H151.93v-5.081Zm110.6,8.036c-2.726,0-4.354.858-4.354,2.3s1.628,2.309,4.354,2.309,4.354-.863,4.354-2.309S263.8,109.472,261.074,109.472Zm-72.184-8.036v12.641h1.442V107.61h1.974V106.42h-1.974v-4.983Zm-70.854,6.174v1.19h4.942v5.278h1.456V108.8h5.04v-1.19H127.71a22.281,22.281,0,0,0,.322-4.3v-1.106h-8.624v1.162h7.21v.012a19.245,19.245,0,0,1-.366,4.231Zm-50.078-6.174v12.641H69.4V107.61h1.974V106.42H69.4v-4.983ZM21.184,107.61v1.19h4.942v5.278h1.456V108.8h5.04v-1.19H30.858a22.343,22.343,0,0,0,.321-4.3v-1.106H22.556v1.162h7.21v.012a19.3,19.3,0,0,1-.365,4.231Zm83.874,3.178v3.178h8.988V112.86h-7.56v-1.05h7.2v-3.024H105.03v1.093h7.238v.91ZM93.774,109.5v4.424h8.344V109.5Zm-11.9,1.106v3.317h8.554V112.79H83.3v-1.12h6.776v-3.22H81.846v1.12h6.8v1.037Zm88.018-.42v3.654h8.792v-1.176h-7.35v-2.478Zm-38.43.2v3.458h8.792v-1.176H132.9v-2.282Zm-82.5-.2v3.654h8.792v-1.176H50.4v-2.478Zm-14.35.2v3.458H43.4v-1.176H36.052v-2.282Zm198.058-.309V113.8H241.5v-1.162H234.11v-2.562Zm-77.126,0V113.8h8.834v-1.162h-7.392v-2.562Zm-80.205.841a1.09,1.09,0,0,0-1.078,1.147,1.079,1.079,0,1,0,2.155,0A1.09,1.09,0,0,0,75.336,110.914ZM12,110.62a1.064,1.064,0,0,0-1.049,1.05,1.05,1.05,0,0,0,2.1,0A1.064,1.064,0,0,0,12,110.62Zm-4.62-7.966-.406.406,4.62,4.62L6.96,112.314l.406.406L12,108.086l4.621,4.62.406-.406-4.621-4.621,4.621-4.62-.406-.406L12,107.274Zm272.09,8.75v1.19h11.453V111.4H285.9v-2.155h3.948v-1.162H282.27v-1.764h7.294v-4h-8.736v1.162h7.308v1.694h-7.28v4.074h3.6V111.4Zm-86.884,0v1.19h11.452V111.4h-5.027v-2.155h3.948v-1.162h-7.573v-1.764h7.294v-4h-8.736v1.162h7.308v1.694h-7.28v4.074h3.6V111.4Zm26.656-.056v1.19h11.452v-1.19h-5.04v-2.506h-1.443v2.506Zm48.188-.056v1.19h11.452v-1.19Zm-86.659-8.6v1.19h2.758V105.1a6.28,6.28,0,0,1-3.22,5.418l.826,1.148a6.55,6.55,0,0,0,3.136-3.991,6.368,6.368,0,0,0,3.066,3.668l.8-1.134a5.883,5.883,0,0,1-3.164-5.11v-1.218h2.674V102.7Zm-120.932,0v1.19H62.6V105.1a6.28,6.28,0,0,1-3.22,5.418l.826,1.148a6.555,6.555,0,0,0,3.136-3.991,6.363,6.363,0,0,0,3.065,3.668l.8-1.134a5.883,5.883,0,0,1-3.164-5.11v-1.218h2.674V102.7Zm70.223,5.32v1.162h5.125v2.254h1.442v-2.254h4.9v-1.162Zm-96.852,0v1.162h5.124v2.254h1.443v-2.254h4.9v-1.162ZM145.8,105.454a2.959,2.959,0,1,0,3.136,2.954A2.949,2.949,0,0,0,145.8,105.454Zm22.693,2.352v1.163h5.125v2.365h1.442v-2.365h4.9v-1.163Zm-120.932,0v1.163h5.125v2.365h1.442v-2.365h4.9v-1.163Zm225.582-5.656c-2.736,0-4.648,1.468-4.648,3.57s1.911,3.569,4.648,3.569,4.648-1.468,4.648-3.569C277.79,103.652,275.835,102.15,273.142,102.15Zm-41.874,5.6v1.162h11.48V107.75Zm-77.125,0v1.162h11.479V107.75Zm-55.65-3.569v1.162h2.183v3.528h1.442v-7.42h-1.442v2.731Zm-82.5,2.45a1.05,1.05,0,1,0,1.049,1.049A1.064,1.064,0,0,0,15.99,106.63Zm-7.98,0a1.05,1.05,0,1,0,1.05,1.049A1.064,1.064,0,0,0,8.01,106.63Zm247.394.714v1.19h11.424v-1.19Zm-163.254-2.7v3.794h.994a34.692,34.692,0,0,0,5.712-.349l-.112-1.176a31.623,31.623,0,0,1-5.18.35v-1.526h4.214v-3.682H92.122v1.176H96.35v1.414Zm-8.344.546v0a6.946,6.946,0,0,1-3.9,2.07l.518,1.106c3.9-.975,5.712-2.99,5.712-6.342H80.516v1.134H84.6a4.029,4.029,0,0,1-.21,1.008l-4.494.168.21,1.134,3.694-.28Zm141.5-2.646v5.711h4.564v-1.162h-3.122v-3.374h3v-1.175Zm-5.125.014v5.7h.743a17.42,17.42,0,0,0,3.836-.322l-.126-1.19a15.941,15.941,0,0,1-3.01.322v-3.332h2.9v-1.176ZM86.172,104.32V105.5h2.463V107.9h1.443v-6.467H88.636v2.884Zm17.5,2.408v1.147h11.452v-1.147Zm-28.336-1.317a1.09,1.09,0,0,0-1.078,1.148,1.079,1.079,0,1,0,2.155,0A1.09,1.09,0,0,0,75.336,105.412Zm56.209-3.569v5.11h8.484v-5.11H138.6V103.3h-5.628v-1.456Zm-96.852,0v5.11h8.484v-5.11H41.75V103.3H36.122v-1.456Zm217.9.308.042,1.652.322,2.785h.938l.322-2.785.042-1.652Zm-6.426,0,.042,1.652.322,2.785h.938l.322-2.785.042-1.652Zm-32.032,0,.042,1.652.322,2.785h.938l.322-2.785.042-1.652Zm-6.664,0,.042,1.652.321,2.785h.939l.321-2.785.042-1.652ZM169.948,102v4.564h8.526V102ZM49.016,102v4.564h8.527V102Zm207.8-.126v4.424h8.694v-1.162h-7.266v-2.1h7.182V101.87Zm-24.066.013v4.354h8.681v-1.175h-7.239v-3.179Zm-77.125,0v4.354h8.68v-1.175h-7.238v-3.179Zm-46.229-.252c-2.865,0-4.508.8-4.508,2.184s1.643,2.17,4.508,2.17,4.508-.791,4.508-2.17S112.263,101.632,109.4,101.632ZM12,102.64a1.05,1.05,0,1,0,1.05,1.05A1.064,1.064,0,0,0,12,102.64Zm130.046.743v1.176h7.406v-1.176H146.5v-1.751h-1.443v1.751Zm89.332-31.276V86.627h.832V72.106ZM46.028,83h0a1.955,1.955,0,0,1-1.3,1.767l.286.7a2.886,2.886,0,0,0,1.9-2.717c0-.879-.374-1.4-1-1.4a.847.847,0,0,0-.9.832.818.818,0,0,0,.87.833A.514.514,0,0,0,46.027,83ZM311.445,72.652V81.6c0,1.059.408,1.573,1.248,1.573a1.831,1.831,0,0,0,.689-.1l-.169-.91a1.029,1.029,0,0,1-.247.026c-.212,0-.338-.189-.338-.507V72.652Zm-3.705,0V81.6c0,1.059.408,1.573,1.248,1.573a1.834,1.834,0,0,0,.689-.1l-.169-.91a1.039,1.039,0,0,1-.247.026c-.1,0-.337-.049-.337-.507V72.652Zm-4.888,4.1c.966,0,1.456.6,1.456,1.781-3.043.343-4.342,1.132-4.342,2.64a1.907,1.907,0,0,0,2.066,2,3.716,3.716,0,0,0,2.34-1.014h.04l.1.845h.975V78.658c0-1.9-.845-2.9-2.443-2.9a5.2,5.2,0,0,0-2.782.922l.468.819A3.794,3.794,0,0,1,302.852,76.747ZM295.9,73.289c-2.527,0-4.225,1.991-4.225,4.954,0,2.947,1.667,4.927,4.147,4.927a3.686,3.686,0,0,0,2.925-1.365l-.663-.753a2.89,2.89,0,0,1-2.21,1.066c-1.829,0-2.965-1.5-2.965-3.913,0-2.345,1.179-3.861,3-3.861a2.6,2.6,0,0,1,1.95.91l.65-.779A3.536,3.536,0,0,0,295.9,73.289Zm-12.207,2.47c-1.481,0-3.055,1.3-3.055,3.718,0,2.312,1.088,3.692,2.911,3.692a3.181,3.181,0,0,0,2.146-1h.039l.1.832h.962V72.652h-1.17v2.717l.052,1.222A2.858,2.858,0,0,0,283.69,75.759Zm-18.473.182v4.472c0,1.854.7,2.756,2.145,2.756a2.981,2.981,0,0,0,2.34-1.274h.039L269.832,83h.988V75.941h-1.183v5c-.706.883-1.207,1.2-1.912,1.2-.929,0-1.326-.56-1.326-1.872V75.941Zm-5.044-.182a3.733,3.733,0,1,0,3.276,3.718A3.393,3.393,0,0,0,260.173,75.759Zm-9.724,6.512h.051a3.152,3.152,0,0,0,2,.9c1.525,0,3.068-1.313,3.068-3.822,0-2.246-1.055-3.587-2.822-3.587a3.526,3.526,0,0,0-2.21,1l.039-1.274V72.652H249.4V83h.949l.1-.727Zm-33.891-6.512c-1.544,0-3.185,1.3-3.185,3.718a3.392,3.392,0,0,0,3.38,3.692,4.163,4.163,0,0,0,2.34-.728l-.429-.78a3.038,3.038,0,0,1-1.768.56,2.34,2.34,0,0,1-2.34-2.47h4.757a4.612,4.612,0,0,0,.052-.676C219.366,77,218.316,75.759,216.558,75.759Zm-8.944,5.655-.585.78a4.282,4.282,0,0,0,2.639.975c1.778,0,2.574-1.051,2.574-2.093,0-1.326-1.131-1.755-2.129-2.134l-.028-.011L210,78.9c-.769-.289-1.433-.538-1.433-1.189,0-.49.345-1.013,1.313-1.013a2.6,2.6,0,0,1,1.6.624l.572-.767a3.608,3.608,0,0,0-2.184-.793c-1.462,0-2.443.8-2.443,2,0,1.18,1.067,1.672,2.066,2.041l.019.007c.783.3,1.592.61,1.592,1.332,0,.534-.365,1.1-1.391,1.1A3.16,3.16,0,0,1,207.614,81.414Zm-4.68-4.667c.966,0,1.456.6,1.456,1.781-3.043.343-4.342,1.132-4.342,2.64a1.907,1.907,0,0,0,2.066,2,3.715,3.715,0,0,0,2.34-1.014h.04l.1.845h.975V78.658c0-1.9-.845-2.9-2.443-2.9a5.2,5.2,0,0,0-2.782.922l.468.819A3.794,3.794,0,0,1,202.934,76.747Zm-6.955-3.458c-2.527,0-4.225,1.991-4.225,4.954,0,2.947,1.667,4.927,4.147,4.927a3.686,3.686,0,0,0,2.925-1.365l-.663-.753a2.89,2.89,0,0,1-2.21,1.066c-1.829,0-2.965-1.5-2.965-3.913,0-2.345,1.179-3.861,3-3.861a2.6,2.6,0,0,1,1.95.91l.65-.779A3.536,3.536,0,0,0,195.979,73.289Zm-70.417-.637V81.6c0,1.059.408,1.573,1.248,1.573a1.834,1.834,0,0,0,.689-.1l-.169-.91a1.04,1.04,0,0,1-.248.026c-.1,0-.337-.049-.337-.507V72.652Zm-3.7,0V81.6c0,1.059.408,1.573,1.247,1.573a1.834,1.834,0,0,0,.689-.1l-.169-.91a1.029,1.029,0,0,1-.247.026c-.215,0-.338-.185-.338-.507V72.652Zm-4.888,4.1c.966,0,1.455.6,1.455,1.781-3.043.343-4.342,1.132-4.342,2.64a1.907,1.907,0,0,0,2.067,2,3.72,3.72,0,0,0,2.34-1.014h.039l.1.845h.976V78.658c0-1.9-.845-2.9-2.444-2.9a5.2,5.2,0,0,0-2.782.922l.468.819A3.847,3.847,0,0,1,116.969,76.747Zm-6.955-3.458c-2.527,0-4.226,1.991-4.226,4.954,0,2.947,1.667,4.927,4.147,4.927a3.686,3.686,0,0,0,2.925-1.365l-.663-.753a2.887,2.887,0,0,1-2.21,1.066c-1.828,0-2.964-1.5-2.964-3.913,0-2.345,1.178-3.861,3-3.861a2.6,2.6,0,0,1,1.95.91l.65-.779A3.536,3.536,0,0,0,110.014,73.289Zm-12.208,2.47c-1.481,0-3.055,1.3-3.055,3.718,0,2.312,1.089,3.692,2.912,3.692a3.176,3.176,0,0,0,2.145-1h.039l.1.832h.962V72.652h-1.17v2.717l.051,1.222A2.859,2.859,0,0,0,97.807,75.759Zm-18.473.182v4.472c0,1.854.7,2.756,2.145,2.756a2.978,2.978,0,0,0,2.34-1.274h.04L83.949,83h.987V75.941H83.754v5c-.706.883-1.206,1.2-1.911,1.2-.93,0-1.327-.56-1.327-1.872V75.941Zm-5.045-.182a3.733,3.733,0,1,0,3.276,3.718A3.393,3.393,0,0,0,74.29,75.759Zm-9.724,6.512h.052a3.151,3.151,0,0,0,2,.9c1.525,0,3.068-1.313,3.068-3.822,0-2.246-1.054-3.587-2.821-3.587a3.527,3.527,0,0,0-2.21,1l.039-1.274V72.652H63.513V83h.949l.1-.727ZM30.558,75.759c-1.544,0-3.185,1.3-3.185,3.718a3.392,3.392,0,0,0,3.38,3.692,4.158,4.158,0,0,0,2.34-.728l-.429-.78a3.034,3.034,0,0,1-1.768.56,2.341,2.341,0,0,1-2.34-2.47h4.758a4.777,4.777,0,0,0,.051-.676C33.366,77,32.316,75.759,30.558,75.759Zm-8.943,5.655-.585.78a4.282,4.282,0,0,0,2.639.975c1.778,0,2.574-1.051,2.574-2.093,0-1.326-1.131-1.755-2.13-2.134l-.028-.011L24,78.9c-.769-.289-1.433-.538-1.433-1.189,0-.49.345-1.013,1.313-1.013a2.6,2.6,0,0,1,1.6.624l.572-.767a3.608,3.608,0,0,0-2.184-.793c-1.462,0-2.444.8-2.444,2,0,1.18,1.021,1.655,2.067,2.041l.022.008c.782.3,1.59.609,1.59,1.331,0,.534-.365,1.1-1.391,1.1A3.155,3.155,0,0,1,21.614,81.414Zm-4.68-4.667c.966,0,1.455.6,1.455,1.781-3.043.343-4.342,1.132-4.342,2.64a1.907,1.907,0,0,0,2.067,2,3.72,3.72,0,0,0,2.34-1.014h.039l.1.845h.976V78.658c0-1.9-.845-2.9-2.444-2.9a5.2,5.2,0,0,0-2.782.922l.468.819A3.847,3.847,0,0,1,16.934,76.747ZM9.979,73.289c-2.527,0-4.226,1.991-4.226,4.954,0,2.947,1.667,4.927,4.147,4.927A3.686,3.686,0,0,0,12.826,81.8l-.663-.753a2.887,2.887,0,0,1-2.209,1.066c-1.828,0-2.964-1.5-2.964-3.913,0-2.345,1.179-3.861,3-3.861a2.6,2.6,0,0,1,1.95.91l.65-.779A3.536,3.536,0,0,0,9.979,73.289Zm266.34,3.51c.939,0,1.339.564,1.339,1.886V83h1.183V78.528c0-1.863-.706-2.768-2.157-2.768a3.422,3.422,0,0,0-2.366,1.2h-.04l-.1-1.014H273.2V83h1.184V77.878A2.688,2.688,0,0,1,276.319,76.8Zm-31.746,0c.939,0,1.339.564,1.339,1.886V83h1.183V78.528c0-1.863-.706-2.768-2.158-2.768a3.422,3.422,0,0,0-2.366,1.2h-.039l-.1-1.014h-.975V83h1.184V77.878A2.688,2.688,0,0,1,244.573,76.8Zm-6.826-3.341V83h1.21V73.458Zm-11.739,1.066a1.637,1.637,0,0,1,1.755,1.807c0,1.541-1.66,3.271-4.368,5.967V83h5.993V81.973H226.7c-.427,0-.92.04-1.355.075l-.205.016c2.03-2.138,3.784-3.983,3.784-5.785a2.571,2.571,0,0,0-2.769-2.716,3.689,3.689,0,0,0-2.808,1.4l.689.662A2.752,2.752,0,0,1,226.009,74.524ZM90.436,76.8c.939,0,1.339.564,1.339,1.886V83h1.183V78.528c0-1.863-.706-2.768-2.158-2.768a3.422,3.422,0,0,0-2.366,1.2H88.4l-.1-1.014h-.975V83H88.5V77.878A2.692,2.692,0,0,1,90.436,76.8Zm-31.746,0c.939,0,1.339.564,1.339,1.886V83h1.183V78.528c0-1.863-.706-2.768-2.157-2.768a3.422,3.422,0,0,0-2.366,1.2h-.04l-.1-1.014H55.57V83h1.184V77.878A2.688,2.688,0,0,1,58.69,76.8Zm-6.825-3.341V83h1.209V73.458ZM40.009,74.524a1.637,1.637,0,0,1,1.755,1.807c0,1.542-1.66,3.272-4.368,5.967V83h5.993V81.973H40.7c-.427,0-.919.04-1.353.074l-.206.016c2.029-2.137,3.783-3.982,3.783-5.785a2.571,2.571,0,0,0-2.769-2.716,3.69,3.69,0,0,0-2.808,1.4l.689.662A2.756,2.756,0,0,1,40.009,74.524Zm191.37-23.418V65.627h.832V51.106ZM46.028,62h0a1.953,1.953,0,0,1-1.3,1.766l.286.7a2.886,2.886,0,0,0,1.9-2.717c0-.879-.374-1.4-1-1.4a.847.847,0,0,0-.9.833.818.818,0,0,0,.87.832A.551.551,0,0,0,46.027,62ZM311.445,51.652V60.6c0,1.059.408,1.573,1.248,1.573a1.85,1.85,0,0,0,.689-.1l-.169-.91a1.027,1.027,0,0,1-.247.026c-.212,0-.338-.189-.338-.507V51.652Zm-3.705,0V60.6c0,1.059.408,1.573,1.248,1.573a1.852,1.852,0,0,0,.689-.1l-.169-.91a1.038,1.038,0,0,1-.247.026c-.1,0-.337-.049-.337-.507V51.652Zm-4.888,4.1c.966,0,1.456.6,1.456,1.781-3.043.343-4.342,1.132-4.342,2.639a1.907,1.907,0,0,0,2.066,2,3.715,3.715,0,0,0,2.34-1.014h.04l.1.845h.975V57.658c0-1.9-.845-2.9-2.443-2.9a5.2,5.2,0,0,0-2.782.923l.468.819A3.794,3.794,0,0,1,302.852,55.747ZM295.9,52.289c-2.527,0-4.225,1.99-4.225,4.953,0,2.947,1.667,4.927,4.147,4.927a3.686,3.686,0,0,0,2.925-1.365l-.663-.754a2.888,2.888,0,0,1-2.21,1.067c-1.829,0-2.965-1.5-2.965-3.913,0-2.345,1.179-3.861,3-3.861a2.6,2.6,0,0,1,1.95.91l.65-.78A3.536,3.536,0,0,0,295.9,52.289Zm-12.207,2.47c-1.481,0-3.055,1.3-3.055,3.718,0,2.312,1.088,3.693,2.911,3.693a3.178,3.178,0,0,0,2.146-1h.039l.1.833h.962V51.652h-1.17v2.717l.052,1.222A2.86,2.86,0,0,0,283.69,54.759Zm-18.473.183v4.471c0,1.855.7,2.757,2.145,2.757a2.984,2.984,0,0,0,2.34-1.274h.039L269.832,62h.988V54.941h-1.183v5c-.706.883-1.207,1.2-1.912,1.2-.929,0-1.326-.56-1.326-1.872V54.941Zm-5.044-.183a3.393,3.393,0,0,0-3.276,3.718,3.3,3.3,0,1,0,6.552,0A3.393,3.393,0,0,0,260.173,54.759Zm-9.724,6.513h.051a3.152,3.152,0,0,0,2,.9c1.525,0,3.068-1.313,3.068-3.822,0-2.247-1.055-3.588-2.822-3.588a3.523,3.523,0,0,0-2.21,1l.039-1.274V51.652H249.4V62h.949l.1-.727Zm-33.891-6.513c-1.544,0-3.185,1.3-3.185,3.718a3.393,3.393,0,0,0,3.38,3.693,4.163,4.163,0,0,0,2.34-.728l-.429-.78a3.037,3.037,0,0,1-1.768.559,2.34,2.34,0,0,1-2.34-2.47h4.757a4.612,4.612,0,0,0,.052-.676C219.366,56,218.316,54.759,216.558,54.759Zm-8.944,5.656-.585.779a4.283,4.283,0,0,0,2.639.976c1.778,0,2.574-1.051,2.574-2.093,0-1.326-1.13-1.755-2.127-2.133l-.03-.011L210,57.9c-.769-.289-1.433-.538-1.433-1.189,0-.49.345-1.014,1.313-1.014a2.594,2.594,0,0,1,1.6.625l.572-.768a3.614,3.614,0,0,0-2.184-.793c-1.439,0-2.443.823-2.443,2s1.067,1.672,2.066,2.041l.022.008c.782.3,1.59.609,1.59,1.33,0,.534-.365,1.105-1.391,1.105A3.16,3.16,0,0,1,207.614,60.414Zm-4.68-4.667c.966,0,1.456.6,1.456,1.781-3.043.343-4.342,1.132-4.342,2.639a1.907,1.907,0,0,0,2.066,2,3.715,3.715,0,0,0,2.34-1.014h.04l.1.845h.975V57.658c0-1.9-.845-2.9-2.443-2.9a5.2,5.2,0,0,0-2.782.923l.468.819A3.794,3.794,0,0,1,202.934,55.747Zm-6.955-3.458c-2.527,0-4.225,1.99-4.225,4.953,0,2.947,1.667,4.927,4.147,4.927a3.686,3.686,0,0,0,2.925-1.365l-.663-.754a2.888,2.888,0,0,1-2.21,1.067c-1.829,0-2.965-1.5-2.965-3.913,0-2.345,1.179-3.861,3-3.861a2.6,2.6,0,0,1,1.95.91l.65-.78A3.536,3.536,0,0,0,195.979,52.289Zm-70.417-.637V60.6c0,1.059.408,1.573,1.248,1.573a1.853,1.853,0,0,0,.689-.1l-.169-.91a1.038,1.038,0,0,1-.248.026c-.1,0-.337-.049-.337-.507V51.652Zm-3.7,0V60.6c0,1.059.408,1.573,1.247,1.573a1.853,1.853,0,0,0,.689-.1l-.169-.91a1.028,1.028,0,0,1-.247.026c-.215,0-.338-.185-.338-.507V51.652Zm-4.888,4.1c.966,0,1.455.6,1.455,1.781-3.043.343-4.342,1.132-4.342,2.639a1.908,1.908,0,0,0,2.067,2,3.72,3.72,0,0,0,2.34-1.014h.039l.1.845h.976V57.658c0-1.9-.845-2.9-2.444-2.9a5.2,5.2,0,0,0-2.782.923l.468.819A3.847,3.847,0,0,1,116.969,55.747Zm-6.955-3.458c-2.527,0-4.226,1.99-4.226,4.953,0,2.947,1.667,4.927,4.147,4.927a3.686,3.686,0,0,0,2.925-1.365l-.663-.754a2.885,2.885,0,0,1-2.21,1.067c-1.828,0-2.964-1.5-2.964-3.913,0-2.345,1.178-3.861,3-3.861a2.6,2.6,0,0,1,1.95.91l.65-.78A3.535,3.535,0,0,0,110.014,52.289Zm-12.208,2.47c-1.481,0-3.055,1.3-3.055,3.718,0,2.312,1.089,3.693,2.912,3.693a3.173,3.173,0,0,0,2.145-1h.039l.1.833h.962V51.652h-1.17v2.717l.051,1.222A2.86,2.86,0,0,0,97.807,54.759Zm-18.473.183v4.471c0,1.855.7,2.757,2.145,2.757a2.981,2.981,0,0,0,2.34-1.274h.04L83.949,62h.987V54.941H83.754v5c-.706.883-1.206,1.2-1.911,1.2-.93,0-1.327-.56-1.327-1.872V54.941Zm-5.045-.183a3.393,3.393,0,0,0-3.276,3.718,3.3,3.3,0,1,0,6.552,0A3.393,3.393,0,0,0,74.29,54.759Zm-9.724,6.513h.052a3.151,3.151,0,0,0,2,.9c1.525,0,3.068-1.313,3.068-3.822,0-2.247-1.054-3.588-2.821-3.588a3.523,3.523,0,0,0-2.21,1l.039-1.274V51.652H63.513V62h.949l.1-.727ZM30.558,54.759c-1.544,0-3.185,1.3-3.185,3.718a3.393,3.393,0,0,0,3.38,3.693,4.158,4.158,0,0,0,2.34-.728l-.429-.78a3.033,3.033,0,0,1-1.768.559,2.341,2.341,0,0,1-2.34-2.47h4.758a4.777,4.777,0,0,0,.051-.676C33.366,56,32.316,54.759,30.558,54.759Zm-8.943,5.656-.585.779a4.283,4.283,0,0,0,2.639.976c1.778,0,2.574-1.051,2.574-2.093,0-1.326-1.13-1.755-2.128-2.133l-.03-.012L24,57.9c-.769-.289-1.433-.538-1.433-1.189,0-.49.345-1.014,1.313-1.014a2.6,2.6,0,0,1,1.6.625l.572-.768a3.614,3.614,0,0,0-2.184-.793c-1.439,0-2.444.823-2.444,2s1.021,1.655,2.067,2.041l.024.009c.781.3,1.587.608,1.587,1.329,0,.534-.365,1.105-1.391,1.105A3.156,3.156,0,0,1,21.614,60.414Zm-4.68-4.667c.966,0,1.455.6,1.455,1.781-3.043.343-4.342,1.132-4.342,2.639a1.908,1.908,0,0,0,2.067,2,3.72,3.72,0,0,0,2.34-1.014h.039l.1.845h.976V57.658c0-1.9-.845-2.9-2.444-2.9a5.2,5.2,0,0,0-2.782.923l.468.819A3.847,3.847,0,0,1,16.934,55.747ZM9.979,52.289c-2.527,0-4.226,1.99-4.226,4.953,0,2.947,1.667,4.927,4.147,4.927A3.686,3.686,0,0,0,12.826,60.8l-.663-.754a2.885,2.885,0,0,1-2.209,1.067c-1.828,0-2.964-1.5-2.964-3.913,0-2.345,1.179-3.861,3-3.861a2.6,2.6,0,0,1,1.95.91l.65-.78A3.535,3.535,0,0,0,9.979,52.289Zm266.34,3.51c.939,0,1.339.564,1.339,1.885V62h1.183V57.528c0-1.863-.706-2.769-2.157-2.769a3.427,3.427,0,0,0-2.366,1.2h-.04l-.1-1.013H273.2V62h1.184V56.878A2.685,2.685,0,0,1,276.319,55.8Zm-31.746,0c.939,0,1.339.564,1.339,1.885V62h1.183V57.528c0-1.863-.706-2.769-2.158-2.769a3.427,3.427,0,0,0-2.366,1.2h-.039l-.1-1.013h-.975V62h1.184V56.878A2.685,2.685,0,0,1,244.573,55.8Zm-6.826-3.341V62h1.21V52.458Zm-13.78,8.554V62h5.226v-.988h-1.911V52.731h-.91a5.532,5.532,0,0,1-1.976.676v.767h1.69v6.838ZM90.436,55.8c.939,0,1.339.564,1.339,1.885V62h1.183V57.528c0-1.863-.706-2.769-2.158-2.769a3.427,3.427,0,0,0-2.366,1.2H88.4l-.1-1.013h-.975V62H88.5V56.878A2.688,2.688,0,0,1,90.436,55.8Zm-31.746,0c.939,0,1.339.564,1.339,1.885V62h1.183V57.528c0-1.863-.706-2.769-2.157-2.769a3.427,3.427,0,0,0-2.366,1.2h-.04l-.1-1.013H55.57V62h1.184V56.878A2.685,2.685,0,0,1,58.69,55.8Zm-6.825-3.341V62h1.209V52.458Zm-13.9,8.554V62h5.225v-.988H41.283V52.731h-.91a5.532,5.532,0,0,1-1.976.676v.767h1.69v6.838ZM288.175,30.106V44.627h.832V30.106Zm-51.271,0V44.627h.832V30.106ZM280.778,42.95l-.234.949a2.189,2.189,0,0,0,.832.143c1.211,0,2.046-.781,2.626-2.457l2.665-7.645H285.51l-1.261,3.926c-.114.366-.235.769-.351,1.159l0,.006c-.083.276-.165.55-.245.812h-.065c-.16-.462-.331-.963-.5-1.448l-.009-.026-.171-.5-1.443-3.926h-1.235l2.834,7.072-.157.533c-.227.694-.689,1.521-1.6,1.521a1.619,1.619,0,0,1-.533-.117h0ZM94.9,42.95l-.234.949a2.189,2.189,0,0,0,.832.143c1.212,0,2.047-.781,2.626-2.457l2.665-7.645H99.627l-1.261,3.926c-.112.357-.229.75-.343,1.13l0,.007c-.085.285-.171.569-.253.84H97.7c-.188-.541-.4-1.168-.572-1.671l-.1-.305-1.444-3.926H94.349l2.834,7.072-.156.533c-.228.694-.69,1.521-1.6,1.521a1.632,1.632,0,0,1-.533-.117h0ZM51.553,41h0a1.953,1.953,0,0,1-1.3,1.766l.285.7a2.886,2.886,0,0,0,1.9-2.717c0-.879-.374-1.4-1-1.4a.848.848,0,0,0-.9.833.818.818,0,0,0,.871.832A.551.551,0,0,0,51.552,41Zm225.208-9.049-.143,1.989-1.1.065v.9h1.053v3.913c0,1.583.659,2.353,2.014,2.353a4.472,4.472,0,0,0,1.3-.26l-.234-.884a2.534,2.534,0,0,1-.806.182c-.755,0-1.092-.421-1.092-1.364V34.9h1.911v-.962h-1.911V31.952Zm-18.824,0-.143,1.989-1.105.065v.9h1.053v3.913c0,1.583.659,2.353,2.015,2.353a4.455,4.455,0,0,0,1.3-.26l-.234-.884a2.532,2.532,0,0,1-.805.182c-.756,0-1.093-.421-1.093-1.364V34.9h1.912v-.962h-1.912V31.952Zm-4,1.807a3.45,3.45,0,0,0-3.406,3.718c0,2.208,1.332,3.692,3.316,3.692a3.433,3.433,0,0,0,2.288-.9l-.52-.793a2.508,2.508,0,0,1-1.664.7c-1.306,0-2.183-1.087-2.183-2.7s.914-2.73,2.223-2.73a2.111,2.111,0,0,1,1.4.624l.61-.78A3.008,3.008,0,0,0,253.933,33.759Zm-37.375,0c-1.544,0-3.185,1.3-3.185,3.718a3.392,3.392,0,0,0,3.38,3.692,4.164,4.164,0,0,0,2.34-.728l-.429-.779a3.037,3.037,0,0,1-1.768.559,2.34,2.34,0,0,1-2.34-2.471h4.757a4.582,4.582,0,0,0,.052-.676C219.366,35,218.316,33.759,216.558,33.759Zm-8.944,5.655-.585.78a4.282,4.282,0,0,0,2.639.975c1.778,0,2.574-1.051,2.574-2.092,0-1.325-1.129-1.755-2.125-2.133l-.032-.012-.09-.034c-.768-.288-1.431-.537-1.431-1.187,0-.49.345-1.014,1.313-1.014a2.6,2.6,0,0,1,1.6.624l.572-.767a3.608,3.608,0,0,0-2.184-.793c-1.462,0-2.443.8-2.443,2,0,1.182,1.067,1.673,2.066,2.041l.02.007c.783.3,1.592.61,1.592,1.332,0,.534-.365,1.105-1.391,1.105A3.161,3.161,0,0,1,207.614,39.414Zm-4.68-4.667c.966,0,1.456.6,1.456,1.781-3.043.342-4.342,1.131-4.342,2.639a1.907,1.907,0,0,0,2.066,2,3.714,3.714,0,0,0,2.34-1.013h.04l.1.845h.975V36.658c0-1.9-.845-2.9-2.443-2.9a5.189,5.189,0,0,0-2.782.923l.468.819A3.8,3.8,0,0,1,202.934,34.747Zm-6.955-3.458c-2.527,0-4.225,1.99-4.225,4.953,0,2.947,1.667,4.927,4.147,4.927a3.688,3.688,0,0,0,2.925-1.364l-.663-.754a2.887,2.887,0,0,1-2.21,1.066c-1.829,0-2.965-1.5-2.965-3.912,0-2.345,1.179-3.861,3-3.861a2.6,2.6,0,0,1,1.95.91l.65-.78A3.536,3.536,0,0,0,195.979,31.289Zm-105.1.662-.143,1.989-1.105.065v.9h1.053v3.913c0,1.583.659,2.353,2.015,2.353a4.472,4.472,0,0,0,1.3-.26l-.234-.884a2.533,2.533,0,0,1-.806.182c-.756,0-1.093-.421-1.093-1.364V34.9h1.912v-.962H91.866V31.952Zm-18.824,0-.143,1.989-1.105.065v.9h1.053v3.913c0,1.583.659,2.353,2.015,2.353a4.473,4.473,0,0,0,1.3-.26l-.234-.884a2.535,2.535,0,0,1-.806.182c-.755,0-1.092-.421-1.092-1.364V34.9h1.911v-.962H73.042V31.952Zm-4,1.807a3.449,3.449,0,0,0-3.406,3.718c0,2.208,1.332,3.692,3.315,3.692a3.433,3.433,0,0,0,2.288-.9l-.52-.793a2.508,2.508,0,0,1-1.663.7c-1.307,0-2.184-1.087-2.184-2.7s.914-2.73,2.223-2.73a2.106,2.106,0,0,1,1.4.624l.611-.78A3.014,3.014,0,0,0,68.05,33.759Zm-37.492,0c-1.544,0-3.185,1.3-3.185,3.718a3.392,3.392,0,0,0,3.38,3.692,4.158,4.158,0,0,0,2.34-.728l-.429-.779a3.033,3.033,0,0,1-1.768.559,2.341,2.341,0,0,1-2.34-2.471h4.758a4.745,4.745,0,0,0,.051-.676C33.366,35,32.316,33.759,30.558,33.759Zm-8.943,5.655-.585.78a4.282,4.282,0,0,0,2.639.975c1.778,0,2.574-1.051,2.574-2.092,0-1.325-1.129-1.754-2.126-2.133l-.033-.012-.09-.034c-.768-.288-1.431-.537-1.431-1.187,0-.49.345-1.014,1.313-1.014a2.6,2.6,0,0,1,1.6.624l.572-.767a3.608,3.608,0,0,0-2.184-.793c-1.462,0-2.444.8-2.444,2,0,1.182,1.067,1.673,2.067,2.041l.022.008c.782.3,1.59.609,1.59,1.331,0,.534-.365,1.105-1.391,1.105A3.156,3.156,0,0,1,21.614,39.414Zm-4.68-4.667c.966,0,1.455.6,1.455,1.781-3.043.342-4.342,1.131-4.342,2.639a1.907,1.907,0,0,0,2.067,2,3.719,3.719,0,0,0,2.34-1.013h.039l.1.845h.976V36.658c0-1.9-.845-2.9-2.444-2.9a5.189,5.189,0,0,0-2.782.923l.468.819A3.847,3.847,0,0,1,16.934,34.747ZM9.979,31.289c-2.527,0-4.226,1.99-4.226,4.953,0,2.947,1.667,4.927,4.147,4.927A3.688,3.688,0,0,0,12.826,39.8l-.663-.754a2.884,2.884,0,0,1-2.209,1.066c-1.828,0-2.964-1.5-2.964-3.912,0-2.345,1.179-3.861,3-3.861a2.6,2.6,0,0,1,1.95.91l.65-.78A3.535,3.535,0,0,0,9.979,31.289Zm262.8,2.651V41h1.183v-7.06Zm-7.8,0L267.531,41h1.378l2.509-7.06h-1.17l-1.339,4.018c-.209.692-.431,1.422-.65,2.08h-.052c-.136-.407-.274-.845-.407-1.269-.086-.274-.171-.545-.257-.811l-1.326-4.018Zm-2.549,0V41h1.184v-7.06Zm-18.277,4.147h3.484l.91,2.912h1.273l-3.236-9.543h-1.339L242.012,41h1.222l.923-2.912Zm-16.224-6.63V41h2.443c2.826,0,4.446-1.748,4.446-4.8s-1.6-4.746-4.5-4.746Zm-3.809,0V41h1.209V31.458ZM86.9,33.941V41h1.183v-7.06Zm-7.8,0L81.648,41h1.378l2.509-7.06h-1.17l-1.339,4.018c-.209.692-.431,1.422-.65,2.08h-.052c-.134-.4-.271-.839-.4-1.26l0-.014c-.085-.27-.17-.541-.255-.806l-1.326-4.018Zm-2.548,0V41h1.183v-7.06ZM58.274,38.088h3.484L62.668,41h1.274L60.7,31.458H59.366L56.129,41h1.221l.923-2.912Zm-16.341-6.63V41h2.444c2.826,0,4.446-1.748,4.446-4.8s-1.6-4.746-4.5-4.746Zm-3.809,0V41h1.209V31.458Zm235.257-.533a.78.78,0,1,0,.793.767A.746.746,0,0,0,273.381,30.925Zm-10.348,0a.78.78,0,1,0,.793.767A.746.746,0,0,0,263.033,30.925Zm-175.535,0a.78.78,0,1,0,.793.767A.746.746,0,0,0,87.5,30.925Zm-10.348,0a.78.78,0,1,0,.793.767A.746.746,0,0,0,77.15,30.925ZM232.985,9.5l-1.364.585a14.376,14.376,0,0,1,1.83,7.17,14.4,14.4,0,0,1-1.83,7.185l1.364.585a14.515,14.515,0,0,0,0-15.525Zm-186,0-1.365.585a14.376,14.376,0,0,1,1.83,7.17,14.4,14.4,0,0,1-1.83,7.185l1.365.585a14.515,14.515,0,0,0,0-15.525ZM214.91,9.46V23.32h1.98V9.46Zm-186,0V23.32h1.98V9.46Zm172.71,0V23.275H203.5V9.46Zm-186,0V23.275H17.5V9.46ZM197.3,18.385h1.575V22.66h1.845V9.7h-1.845v2.82h-1.589a2.755,2.755,0,0,0-2.52-2.07c-1.851,0-3,1.92-3,5.01s1.15,5.025,3,5.025a2.782,2.782,0,0,0,2.534-2.1Zm-186,0h1.575V22.66H14.72V9.7H12.875v2.82h-1.59a2.755,2.755,0,0,0-2.52-2.07c-1.85,0-3,1.92-3,5.01s1.149,5.025,3,5.025a2.784,2.784,0,0,0,2.535-2.1ZM225.785,12.43a1.58,1.58,0,0,1,1.665,1.8c0,1.54-1.435,3.482-4.8,6.5V22h7.44V20.14h-2.4c-.661,0-1.557.092-1.815.12,2.483-2.428,3.69-4.439,3.69-6.15a3.24,3.24,0,0,0-3.495-3.42,4.461,4.461,0,0,0-3.525,1.679l1.2,1.2A2.926,2.926,0,0,1,225.785,12.43ZM37.235,20.215V22H43.91V20.215H41.825v-9.33H40.19a6.942,6.942,0,0,1-2.58.945v1.365h2.01v7.02ZM208.82,10.54v2.01c0,2.353-.934,5.267-3.555,6.39l1.185,1.635a6.676,6.676,0,0,0,3.39-4.11,6.331,6.331,0,0,0,3.27,3.78l1.125-1.6a5.307,5.307,0,0,1-2.6-2.46,7.819,7.819,0,0,1-.84-3.63V10.54Zm-186,0v2.01c0,2.352-.934,5.266-3.555,6.39l1.184,1.635a6.67,6.67,0,0,0,3.39-4.11,6.332,6.332,0,0,0,3.27,3.78l1.125-1.6a5.305,5.305,0,0,1-2.595-2.46,7.822,7.822,0,0,1-.84-3.63V10.54ZM54.406,129.776H49.184v-1.163h5.222v1.162Zm-4.7-5.125c-1.036,0-1.679-.445-1.679-1.162,0-.7.659-1.147,1.679-1.147s1.695.45,1.695,1.147S50.731,124.652,49.7,124.652Zm-7.251-1.834H36.822V121.4H42.45v1.413Zm218.623-9.859c-1.886,0-2.884-.411-2.884-1.19s1.024-1.191,2.884-1.191,2.9.423,2.9,1.191S262.943,112.958,261.074,112.958Zm-160.37-.182H95.188v-2.128H100.7v2.127Zm45.095-2.6a1.764,1.764,0,1,1,1.764-1.764A1.688,1.688,0,0,1,145.8,110.172ZM273.142,108.1c-1.943,0-3.248-.956-3.248-2.38s1.305-2.38,3.248-2.38a4.034,4.034,0,0,1,2.322.644,2.09,2.09,0,0,1,0,3.472A4.034,4.034,0,0,1,273.142,108.1ZM138.6,105.818h-5.628V104.4H138.6v1.414Zm-96.852,0H36.122V104.4H41.75v1.414Zm135.31-.407h-5.7v-2.268h5.7v2.267Zm-120.932,0h-5.7v-2.268h5.7v2.267Zm53.27-.5c-1.969,0-3.01-.378-3.01-1.092s1.041-1.106,3.01-1.106,3.01.382,3.01,1.106S111.367,104.908,109.4,104.908ZM302.371,82.22c-.793,0-1.248-.412-1.248-1.131,0-.98.953-1.512,3.185-1.781v1.976A2.913,2.913,0,0,1,302.371,82.22Zm-99.918,0c-.793,0-1.248-.412-1.248-1.131,0-.98.953-1.512,3.185-1.781v1.976A2.913,2.913,0,0,1,202.453,82.22Zm-85.965,0c-.793,0-1.248-.412-1.248-1.131,0-.98.953-1.512,3.185-1.781v1.976A2.909,2.909,0,0,1,116.488,82.22Zm-100.035,0c-.793,0-1.248-.412-1.248-1.131,0-.98.953-1.512,3.185-1.781v1.976A2.909,2.909,0,0,1,16.453,82.22Zm267.354-.04c-1.239,0-1.95-.99-1.95-2.717,0-1.567.858-2.7,2.041-2.7a2.539,2.539,0,0,1,1.729.741v3.705A2.474,2.474,0,0,1,283.807,82.181Zm-23.634,0c-1.221,0-2.041-1.086-2.041-2.7,0-1.633.82-2.731,2.041-2.731s2.054,1.1,2.054,2.731C262.227,81.094,261.4,82.181,260.173,82.181Zm-7.865,0a2.74,2.74,0,0,1-1.729-.741V77.735a2.9,2.9,0,0,1,1.9-.975c1.234,0,1.859.879,1.859,2.613C254.336,81.052,253.521,82.181,252.308,82.181Zm-154.384,0c-1.239,0-1.949-.99-1.949-2.717,0-1.567.858-2.7,2.041-2.7a2.54,2.54,0,0,1,1.729.741v3.705A2.477,2.477,0,0,1,97.924,82.181Zm-23.634,0c-1.22,0-2.04-1.086-2.04-2.7,0-1.633.82-2.731,2.04-2.731s2.055,1.1,2.055,2.731C76.344,81.094,75.519,82.181,74.29,82.181Zm-7.864,0a2.744,2.744,0,0,1-1.73-.741V77.735a2.907,2.907,0,0,1,1.9-.975c1.234,0,1.859.879,1.859,2.613C68.453,81.052,67.638,82.181,66.425,82.181Zm151.9-3.289h-3.783a2.163,2.163,0,0,1,2.028-2.184c1.115,0,1.755.8,1.755,2.183Zm-186,0H28.543a2.163,2.163,0,0,1,2.029-2.184c1.115,0,1.755.8,1.755,2.183ZM302.371,61.22c-.793,0-1.248-.412-1.248-1.13,0-.981.953-1.513,3.185-1.781v1.976A2.909,2.909,0,0,1,302.371,61.22Zm-99.918,0c-.793,0-1.248-.412-1.248-1.13,0-.981.953-1.513,3.185-1.781v1.976A2.908,2.908,0,0,1,202.453,61.22Zm-85.965,0c-.793,0-1.248-.412-1.248-1.13,0-.981.953-1.513,3.185-1.781v1.976A2.9,2.9,0,0,1,116.488,61.22Zm-100.035,0c-.793,0-1.248-.412-1.248-1.13,0-.981.953-1.513,3.185-1.781v1.976A2.9,2.9,0,0,1,16.453,61.22Zm267.354-.039c-1.239,0-1.95-.99-1.95-2.717,0-1.567.858-2.7,2.041-2.7a2.54,2.54,0,0,1,1.729.741v3.705A2.474,2.474,0,0,1,283.807,61.181Zm-23.634,0c-1.221,0-2.041-1.087-2.041-2.7,0-1.633.82-2.73,2.041-2.73s2.054,1.1,2.054,2.73C262.227,60.094,261.4,61.181,260.173,61.181Zm-7.865,0a2.744,2.744,0,0,1-1.729-.741V56.735a2.9,2.9,0,0,1,1.9-.975c1.234,0,1.859.879,1.859,2.613C254.336,60.053,253.521,61.181,252.308,61.181Zm-154.384,0c-1.239,0-1.949-.99-1.949-2.717,0-1.567.858-2.7,2.041-2.7a2.54,2.54,0,0,1,1.729.741v3.705A2.478,2.478,0,0,1,97.924,61.181Zm-23.634,0c-1.22,0-2.04-1.087-2.04-2.7,0-1.633.82-2.73,2.04-2.73s2.055,1.1,2.055,2.73C76.344,60.094,75.519,61.181,74.29,61.181Zm-7.864,0a2.748,2.748,0,0,1-1.73-.741V56.735a2.907,2.907,0,0,1,1.9-.975c1.234,0,1.859.879,1.859,2.613C68.453,60.053,67.638,61.181,66.425,61.181Zm151.9-3.289h-3.783a2.162,2.162,0,0,1,2.028-2.183c1.115,0,1.755.8,1.755,2.182Zm-186,0H28.543a2.163,2.163,0,0,1,2.029-2.183c1.115,0,1.755.8,1.755,2.182ZM202.453,40.22c-.793,0-1.248-.412-1.248-1.131,0-.98.953-1.513,3.185-1.781v1.976A2.909,2.909,0,0,1,202.453,40.22Zm-186,0c-.793,0-1.248-.412-1.248-1.131,0-.98.953-1.513,3.185-1.781v1.976A2.9,2.9,0,0,1,16.453,40.22Zm213.768-.208h-1.079V32.446h1.079a3.184,3.184,0,0,1,2.521.972,4.131,4.131,0,0,1,.834,2.786C233.575,38.7,232.415,40.012,230.221,40.012Zm-186,0H43.142V32.446h1.078a3.184,3.184,0,0,1,2.521.972,4.131,4.131,0,0,1,.834,2.786C47.575,38.7,46.415,40.012,44.221,40.012Zm203.121-2.886h-2.885l.468-1.456c.359-1.146.657-2.133.949-3.224h.052c.288,1.018.6,2.105.962,3.224l.454,1.455Zm-185.882,0H58.573l.468-1.456c.3-.972.631-2.035.95-3.224h.051c.275.972.6,2.1.962,3.224l.455,1.455Zm156.866-.234h-3.783a2.163,2.163,0,0,1,2.028-2.184c1.115,0,1.755.8,1.755,2.183Zm-186,0H28.543a2.163,2.163,0,0,1,2.029-2.184c1.115,0,1.755.8,1.755,2.183ZM194.765,18.625c-.8,0-1.23-1.094-1.23-3.164s.425-3.15,1.23-3.15,1.215,1.089,1.215,3.15C195.98,17.5,195.549,18.625,194.765,18.625Zm-186,0c-.8,0-1.23-1.094-1.23-3.164s.425-3.15,1.23-3.15S9.98,13.4,9.98,15.46C9.98,17.5,9.549,18.625,8.765,18.625Zm190.11-1.845h-1.2a11.989,11.989,0,0,0,.075-1.319,9.553,9.553,0,0,0-.09-1.35h1.215v2.668Zm-186,0h-1.2a11.994,11.994,0,0,0,.076-1.319,9.68,9.68,0,0,0-.09-1.35h1.215v2.668Z" transform="translate(0 0.47)" fill="#f2f2f2"/>
  </g>
</svg>
