<svg xmlns="http://www.w3.org/2000/svg" xmlns:xlink="http://www.w3.org/1999/xlink" width="24" height="24" viewBox="0 0 24 24">
  <defs>
    <clipPath id="clip-ico_standard">
      <rect width="24" height="24"/>
    </clipPath>
  </defs>
  <g id="ico_standard" clip-path="url(#clip-ico_standard)">
    <path id="iconmonstr-code-fork-1" d="M21,3a3,3,0,1,0-3.95,2.832c.168,4.3-2.021,4.764-5,5.391A10.219,10.219,0,0,0,7,13.308V5.816a3,3,0,1,0-2,0V18.183a3,3,0,1,0,2.027.009c.27-3.922,2.57-4.408,5.437-5.012,3.038-.64,6.774-1.442,6.579-7.377A2.992,2.992,0,0,0,21,3ZM4.2,3A1.8,1.8,0,1,1,6,4.8,1.8,1.8,0,0,1,4.2,3ZM7.8,21A1.8,1.8,0,1,1,6,19.2,1.8,1.8,0,0,1,7.8,21ZM18,4.8A1.8,1.8,0,1,1,19.8,3,1.8,1.8,0,0,1,18,4.8Z" fill="#0367a6"/>
  </g>
</svg>
