<svg xmlns="http://www.w3.org/2000/svg" xmlns:xlink="http://www.w3.org/1999/xlink" width="24" height="24" viewBox="0 0 24 24">
  <defs>
    <clipPath id="clip-ico_discovery">
      <rect width="24" height="24"/>
    </clipPath>
  </defs>
  <g id="ico_discovery" clip-path="url(#clip-ico_discovery)">
    <path id="ico-discovery" d="M41.5-2948.525v-1.5l.225-.225L49-2942.975l-.976.975ZM25-2942v-24H41.5v8.024a5.9,5.9,0,0,0-3-1.537v-1.237H28v1.5h7.312a5.934,5.934,0,0,0-2.288,1.5H28v1.5h3.975a7.012,7.012,0,0,0-.488,1.5H28v1.5h3.375a6.7,6.7,0,0,0,.3,1.5H28v1.5h4.425a5.559,5.559,0,0,0,1.462,1.5H28v1.5H38.5v-.488a5.864,5.864,0,0,0,2.587-1.2l.412.412V-2942Zm3-2.25h5.25v-1.5H28Zm0-18H38.5v-1.5H28Zm5.963,12H38.5v-1.5H32.988a4.028,4.028,0,0,1-.375-1.5H38.5v-1.5H32.725a4.42,4.42,0,0,1,.637-1.5H38.5v-1.5H34.937a4.843,4.843,0,0,1,2.438-.675,4.741,4.741,0,0,1,4.125,2.363v4.875a4.744,4.744,0,0,1-4.125,2.363A4.814,4.814,0,0,1,33.962-2950.251Z" transform="translate(-25 2966)" fill="#0367a6"/>
  </g>
</svg>
