<svg xmlns="http://www.w3.org/2000/svg" xmlns:xlink="http://www.w3.org/1999/xlink" width="24" height="24" viewBox="0 0 24 24">
  <defs>
    <clipPath id="clip-ico_social">
      <rect width="24" height="24"/>
    </clipPath>
  </defs>
  <g id="ico_social" clip-path="url(#clip-ico_social)">
    <path id="ico_chart_social" d="M17.588,12.75h2.85a1.878,1.878,0,1,0,1.725-2.625,1.9,1.9,0,0,0-1.725,1.125h-2.85A5.991,5.991,0,0,0,16.5,8.587l3-3A3.04,3.04,0,0,0,21.037,6a3,3,0,1,0-3-3,3.04,3.04,0,0,0,.413,1.538l-3,3A5.44,5.44,0,0,0,12.787,6.45V3.6a1.924,1.924,0,0,0,1.088-1.725,1.875,1.875,0,0,0-3.75,0A1.9,1.9,0,0,0,11.25,3.6V6.45A5.991,5.991,0,0,0,8.587,7.538l-3-3A3.04,3.04,0,0,0,6,3,3,3,0,1,0,3,6a3.04,3.04,0,0,0,1.538-.413l3,3A5.44,5.44,0,0,0,6.45,11.25H3.6a1.9,1.9,0,0,0-1.725-1.125,1.875,1.875,0,0,0,0,3.75A1.9,1.9,0,0,0,3.6,12.75H6.45a5.991,5.991,0,0,0,1.088,2.662l-3,3A3.04,3.04,0,0,0,3,18a3,3,0,1,0,3,3,3.04,3.04,0,0,0-.413-1.537l3-3A5.44,5.44,0,0,0,11.25,17.55V20.4a1.878,1.878,0,1,0,2.625,1.725A1.9,1.9,0,0,0,12.75,20.4V17.55a5.991,5.991,0,0,0,2.662-1.087l3,3A3.04,3.04,0,0,0,18,21a3,3,0,1,0,3-3,3.04,3.04,0,0,0-1.537.412l-3-3A5.64,5.64,0,0,0,17.588,12.75Z" fill="#8c8079"/>
  </g>
</svg>
