<svg xmlns="http://www.w3.org/2000/svg" xmlns:xlink="http://www.w3.org/1999/xlink" width="32" height="32" viewBox="0 0 32 32">
  <defs>
    <clipPath id="clip-path">
      <rect width="32" height="32" fill="none"/>
    </clipPath>
    <clipPath id="clip-ico_user">
      <rect width="32" height="32"/>
    </clipPath>
  </defs>
  <g id="ico_user" clip-path="url(#clip-ico_user)">
    <g id="반복_그리드_1" data-name="반복 그리드 1" clip-path="url(#clip-path)">
      <path id="iconmonstr-user-20" d="M16,0A16,16,0,1,0,32,16,16,16,0,0,0,16,0ZM26.337,24.407a3.162,3.162,0,0,0-2.495-1.655c-3.057-.705-5.9-1.324-4.524-3.927C23.512,10.9,20.429,6.667,16,6.667c-4.517,0-7.525,4.4-3.319,12.159,1.421,2.619-1.531,3.236-4.524,3.927a3.14,3.14,0,0,0-2.489,1.661,13.333,13.333,0,1,1,20.669-.007Z" fill="#8c8079"/>
    </g>
  </g>
</svg>
