<svg xmlns="http://www.w3.org/2000/svg" xmlns:xlink="http://www.w3.org/1999/xlink" width="24" height="24" viewBox="0 0 24 24">
  <defs>
    <clipPath id="clip-ico_svg">
      <rect width="24" height="24"/>
    </clipPath>
  </defs>
  <g id="ico_svg" clip-path="url(#clip-ico_svg)">
    <path id="ico-svg" d="M28-2942v-5H25v-14h3v-5H46v5h3v14H46v5Zm1-1H45v-4H29Zm12.7-14.1a4.657,4.657,0,0,0-.8,2.8v.7a4.054,4.054,0,0,0,.4,1.9,3.029,3.029,0,0,0,1.2,1.3,3.364,3.364,0,0,0,1.7.5,4.343,4.343,0,0,0,1.7-.3,2.448,2.448,0,0,0,1.1-.9v-2.9H44.2v.7H46v1.8a1.6,1.6,0,0,1-.7.4,3.039,3.039,0,0,1-1,.1,2.132,2.132,0,0,1-1.7-.8,3.3,3.3,0,0,1-.6-2.1v-.6a3.2,3.2,0,0,1,.5-2.1,1.868,1.868,0,0,1,1.6-.7,1.718,1.718,0,0,1,1.9,1.6h1a2.625,2.625,0,0,0-.9-1.8,3.171,3.171,0,0,0-2-.6A2.723,2.723,0,0,0,41.7-2957.1Zm-5.4,7.1h.9l2.9-8H39l-2.3,6.6-2.3-6.6H33.3Zm-9-1.2a3.134,3.134,0,0,0,1.1.9,3.647,3.647,0,0,0,1.5.3,3.163,3.163,0,0,0,2-.6,1.761,1.761,0,0,0,.8-1.5,1.808,1.808,0,0,0-.3-1.1,2.047,2.047,0,0,0-.8-.8,5.7,5.7,0,0,0-1.5-.6,4.895,4.895,0,0,1-1.4-.6.914.914,0,0,1-.4-.8.971.971,0,0,1,.4-.9,2.148,2.148,0,0,1,1.2-.3,2.3,2.3,0,0,1,1.3.3,1.3,1.3,0,0,1,.5,1.1h1a2.856,2.856,0,0,0-.4-1.2,1.794,1.794,0,0,0-1-.9,4.039,4.039,0,0,0-1.5-.3,2.434,2.434,0,0,0-1.9.6,2.133,2.133,0,0,0-.7,1.6,1.812,1.812,0,0,0,.6,1.4,5.439,5.439,0,0,0,2,1,3.42,3.42,0,0,1,1.5.7.971.971,0,0,1,.4.9.966.966,0,0,1-.4.9,2.25,2.25,0,0,1-1.3.3,2.6,2.6,0,0,1-1.4-.4,1.291,1.291,0,0,1-.5-1.1H27A1.538,1.538,0,0,0,27.3-2951.2ZM29-2961H45v-4H29Z" transform="translate(-25 2966)" fill="#a4a4a4"/>
  </g>
</svg>
