<svg xmlns="http://www.w3.org/2000/svg" xmlns:xlink="http://www.w3.org/1999/xlink" width="24" height="24" viewBox="0 0 24 24">
  <defs>
    <clipPath id="clip-ico_png">
      <rect width="24" height="24"/>
    </clipPath>
  </defs>
  <g id="ico_png" clip-path="url(#clip-ico_png)">
    <path id="ico-png" d="M28-2942v-5H25v-14h3v-5H46v5h3v14H46v5Zm1-1H45v-4H29Zm12.9-14a4.537,4.537,0,0,0-.8,2.7v.7a3.736,3.736,0,0,0,.4,1.9,2.543,2.543,0,0,0,1.1,1.2,3.268,3.268,0,0,0,1.7.4,4.14,4.14,0,0,0,1.6-.3,2.237,2.237,0,0,0,1.1-.8v-2.8H44.3v.9h1.8v1.7a1.622,1.622,0,0,1-.7.4,3.039,3.039,0,0,1-1,.1,1.929,1.929,0,0,1-1.6-.8,3,3,0,0,1-.6-2v-.6a4.1,4.1,0,0,1,.5-2.1,1.572,1.572,0,0,1,1.5-.7,1.674,1.674,0,0,1,1.8,1.5h1a2.575,2.575,0,0,0-.9-1.7,2.88,2.88,0,0,0-1.9-.6A2.867,2.867,0,0,0,41.9-2957Zm-7.1.9,3.8,5.9h1v-7.6h-1v5.9l-3.8-5.9h-1v7.6h1v-5.9Zm-7.8,5.9h1v-3h1.8a3,3,0,0,0,2-.6,2.052,2.052,0,0,0,.7-1.7,2.052,2.052,0,0,0-.7-1.7,3.157,3.157,0,0,0-2-.6H27Zm2-10.8H45v-4H29Zm-1,7v-3h1.9a1.607,1.607,0,0,1,1.1.4,1.37,1.37,0,0,1,.4,1.1,1.37,1.37,0,0,1-.4,1.1,1.575,1.575,0,0,1-1.2.4Z" transform="translate(-25 2966)" fill="#a4a4a4"/>
  </g>
</svg>
