<svg xmlns="http://www.w3.org/2000/svg" xmlns:xlink="http://www.w3.org/1999/xlink" width="125" height="62" viewBox="0 0 125 62">
  <defs>
    <clipPath id="clip-logo_ipr">
      <rect width="125" height="62"/>
    </clipPath>
  </defs>
  <g id="logo_ipr" clip-path="url(#clip-logo_ipr)">
    <path id="logo-ipr" d="M-457.1-1134.2l-10.7-20.8h-9.3v20.8h-11.7V-1191h21.1c6.7,0,11.9,1.5,15.5,4.5s5.5,7.2,5.5,12.7a17.279,17.279,0,0,1-2.5,9.7,16.968,16.968,0,0,1-7.6,6.2l12.3,23.2v.5Zm-20-30.3h9.5c2.9,0,5.2-.7,6.8-2.2a8.135,8.135,0,0,0,2.4-6.2,8.541,8.541,0,0,0-2.3-6.3c-1.5-1.5-3.9-2.3-7-2.3h-9.4Zm-63.4,30.3V-1191h22.2a26.828,26.828,0,0,1,11.3,2.3,16.88,16.88,0,0,1,7.5,6.7,19.136,19.136,0,0,1,2.6,9.8q0,8.4-5.7,13.2c-3.8,3.2-9.1,4.8-15.8,4.8h-10.3v20Zm11.8-29.5h10.5c3.1,0,5.5-.7,7.1-2.2a8.068,8.068,0,0,0,2.4-6.3,9.368,9.368,0,0,0-2.5-6.8,9.18,9.18,0,0,0-6.8-2.7h-10.7Zm-34.3,29.5V-1191h11.7v56.8Z" transform="translate(566.001 1194)" fill="#d1b77a"/>
  </g>
</svg>
