<svg xmlns="http://www.w3.org/2000/svg" xmlns:xlink="http://www.w3.org/1999/xlink" width="24" height="24" viewBox="0 0 24 24">
  <defs>
    <clipPath id="clip-ico_dotted_dark">
      <rect width="24" height="24"/>
    </clipPath>
  </defs>
  <g id="ico_dotted_dark" clip-path="url(#clip-ico_dotted_dark)">
    <path id="ico-dotted" d="M2026.5-1167H2025v-24h1.5v22.5H2049v1.5Zm17.249-4.875a1.876,1.876,0,0,1,1.876-1.876,1.875,1.875,0,0,1,1.875,1.876,1.875,1.875,0,0,1-1.875,1.875A1.875,1.875,0,0,1,2043.75-1171.875Zm-5.25,0a1.875,1.875,0,0,1,1.875-1.876,1.876,1.876,0,0,1,1.876,1.876,1.875,1.875,0,0,1-1.876,1.875A1.875,1.875,0,0,1,2038.5-1171.875Zm-5.25,0a1.875,1.875,0,0,1,1.875-1.876,1.875,1.875,0,0,1,1.875,1.876,1.875,1.875,0,0,1-1.875,1.875A1.875,1.875,0,0,1,2033.25-1171.875Zm-5.251,0a1.876,1.876,0,0,1,1.876-1.876,1.875,1.875,0,0,1,1.875,1.876,1.875,1.875,0,0,1-1.875,1.875A1.875,1.875,0,0,1,2028-1171.875Zm15.75-5.251a1.875,1.875,0,0,1,1.876-1.875,1.875,1.875,0,0,1,1.875,1.875,1.875,1.875,0,0,1-1.875,1.876A1.876,1.876,0,0,1,2043.75-1177.125Zm-5.25,0a1.875,1.875,0,0,1,1.875-1.875,1.875,1.875,0,0,1,1.876,1.875,1.876,1.876,0,0,1-1.876,1.876A1.875,1.875,0,0,1,2038.5-1177.125Zm-5.25,0a1.875,1.875,0,0,1,1.875-1.875,1.875,1.875,0,0,1,1.875,1.875,1.875,1.875,0,0,1-1.875,1.876A1.875,1.875,0,0,1,2033.25-1177.125Zm10.5-5.25a1.875,1.875,0,0,1,1.876-1.875,1.875,1.875,0,0,1,1.875,1.875,1.874,1.874,0,0,1-1.875,1.875A1.875,1.875,0,0,1,2043.75-1182.375Zm-5.25,0a1.875,1.875,0,0,1,1.875-1.875,1.875,1.875,0,0,1,1.876,1.875,1.875,1.875,0,0,1-1.876,1.875A1.875,1.875,0,0,1,2038.5-1182.375Zm0-5.25a1.875,1.875,0,0,1,1.875-1.876,1.876,1.876,0,0,1,1.876,1.876,1.875,1.875,0,0,1-1.876,1.875A1.875,1.875,0,0,1,2038.5-1187.625Z" transform="translate(-2025 1191)" fill="#121212"/>
  </g>
</svg>
