<svg xmlns="http://www.w3.org/2000/svg" xmlns:xlink="http://www.w3.org/1999/xlink" width="1150" height="80" viewBox="0 0 1150 80">
  <defs>
    <clipPath id="clip-logo_ipr_fullname_gray">
      <rect width="1150" height="80"/>
    </clipPath>
  </defs>
  <g id="logo_ipr_fullname_gray" clip-path="url(#clip-logo_ipr_fullname_gray)">
    <path id="패스_251" data-name="패스 251" d="M2733.7-2528a19.285,19.285,0,0,1-8.4-2,15.74,15.74,0,0,1-6.3-5.3l2.6-2.8a17.132,17.132,0,0,0,5.412,4.588A13.788,13.788,0,0,0,2733.4-2532a14.517,14.517,0,0,0,5.225-.888,10.1,10.1,0,0,0,3.875-2.612c2.158-2.364,3.3-5.594,3.4-9.6v-5.3c-2.986,4.18-7.395,6.3-13.1,6.3a14.567,14.567,0,0,1-6.612-1.488A15.23,15.23,0,0,1,2721-2550c-2.986-3.882-4.5-9.2-4.5-15.8v-.6h.2c0-6.593,1.48-11.875,4.4-15.7a14.261,14.261,0,0,1,11.9-5.8,16.1,16.1,0,0,1,7.6,1.725,14.93,14.93,0,0,1,5.5,5.175l.2-6.1h4.4v41.4c0,5.508-1.548,9.848-4.6,12.9A16.85,16.85,0,0,1,2733.7-2528Zm.2-55.9a10.67,10.67,0,0,0-9.2,4.6c-2.153,3.034-3.2,7.515-3.2,13.7a29.663,29.663,0,0,0,.812,7.225,18.3,18.3,0,0,0,2.387,5.575,11.142,11.142,0,0,0,3.913,3.512,11.118,11.118,0,0,0,5.187,1.187,13.525,13.525,0,0,0,7.375-1.938A13.365,13.365,0,0,0,2746-2555.8v-19.8a13.623,13.623,0,0,0-4.7-6.2A12.917,12.917,0,0,0,2733.9-2583.9ZM2456-2528a19.286,19.286,0,0,1-8.4-2,15.724,15.724,0,0,1-6.3-5.3l2.6-2.8a17.147,17.147,0,0,0,5.413,4.588A13.788,13.788,0,0,0,2455.7-2532a14.518,14.518,0,0,0,5.225-.888,10.11,10.11,0,0,0,3.875-2.612c2.158-2.365,3.3-5.594,3.4-9.6v-5.3c-2.986,4.18-7.394,6.3-13.1,6.3a14.57,14.57,0,0,1-6.613-1.488A15.225,15.225,0,0,1,2443.3-2550c-2.986-3.881-4.5-9.2-4.5-15.8v-.6h.2c0-6.593,1.481-11.875,4.4-15.7a14.258,14.258,0,0,1,11.9-5.8,16.1,16.1,0,0,1,7.6,1.725,14.937,14.937,0,0,1,5.5,5.175l.2-6.1h4.4v41.4c0,5.507-1.548,9.847-4.6,12.9A16.854,16.854,0,0,1,2456-2528Zm.2-55.9a10.668,10.668,0,0,0-9.2,4.6c-2.154,3.034-3.2,7.515-3.2,13.7a29.66,29.66,0,0,0,.813,7.225A18.293,18.293,0,0,0,2447-2552.8a11.13,11.13,0,0,0,3.912,3.512,11.12,11.12,0,0,0,5.188,1.187,13.523,13.523,0,0,0,7.375-1.938,13.368,13.368,0,0,0,4.826-5.763v-19.8a13.629,13.629,0,0,0-4.7-6.2A12.912,12.912,0,0,0,2456.2-2583.9Zm148.7,39.8a17.867,17.867,0,0,1-9.7-2.7,17.955,17.955,0,0,1-6.8-7.4,23.155,23.155,0,0,1-2.4-10.6v-1.7a24.658,24.658,0,0,1,2.4-11,19.114,19.114,0,0,1,6.6-7.7,15.927,15.927,0,0,1,9.1-2.8,15.317,15.317,0,0,1,12.2,5.3,17.5,17.5,0,0,1,3.375,6.226,27.515,27.515,0,0,1,1.125,8.175v2.6h-30.2v.9a18.055,18.055,0,0,0,4.1,12,13.048,13.048,0,0,0,10.4,4.8,15.308,15.308,0,0,0,6.6-1.4,14.3,14.3,0,0,0,5.2-4.4l2.9,2.2C2616.415-2546.623,2611.4-2544.1,2604.9-2544.1Zm-.9-39.9a11.679,11.679,0,0,0-8.9,3.9,17.683,17.683,0,0,0-4.4,10.4h25.4v-.5a15.086,15.086,0,0,0-3.5-9.9A10.642,10.642,0,0,0,2604-2584Zm-40.5,39.9a17.859,17.859,0,0,1-9.7-2.7,17.951,17.951,0,0,1-6.8-7.4,23.154,23.154,0,0,1-2.4-10.6v-1.7a24.654,24.654,0,0,1,2.4-11,19.117,19.117,0,0,1,6.6-7.7,15.926,15.926,0,0,1,9.1-2.8,15.32,15.32,0,0,1,12.2,5.3,17.506,17.506,0,0,1,3.375,6.226,27.508,27.508,0,0,1,1.125,8.175v2.6h-30.2v.9a18.056,18.056,0,0,0,4.1,12,13.046,13.046,0,0,0,10.4,4.8,15.31,15.31,0,0,0,6.6-1.4,14.3,14.3,0,0,0,5.2-4.4l2.9,2.2C2575.115-2546.623,2570.1-2544.1,2563.5-2544.1Zm-.8-39.9a11.675,11.675,0,0,0-8.9,3.9,17.675,17.675,0,0,0-4.4,10.4h25.4v-.5a15.087,15.087,0,0,0-3.5-9.9A10.774,10.774,0,0,0,2562.7-2584Zm-259.1,39.9a17.86,17.86,0,0,1-9.7-2.7,17.943,17.943,0,0,1-6.8-7.4,23.15,23.15,0,0,1-2.4-10.6v-1.7a24.651,24.651,0,0,1,2.4-11,19.108,19.108,0,0,1,6.6-7.7,15.932,15.932,0,0,1,9.1-2.8,15.315,15.315,0,0,1,12.2,5.3,17.506,17.506,0,0,1,3.375,6.226,27.515,27.515,0,0,1,1.125,8.175v2.6h-30.2v.9a18.056,18.056,0,0,0,4.1,12,13.047,13.047,0,0,0,10.4,4.8,15.308,15.308,0,0,0,6.6-1.4,14.3,14.3,0,0,0,5.2-4.4l2.9,2.2a16.642,16.642,0,0,1-6.25,5.625A19.035,19.035,0,0,1,2303.6-2544.1Zm-.8-39.9a11.676,11.676,0,0,0-8.9,3.9,17.67,17.67,0,0,0-4.4,10.4h25.4v-.5a15.083,15.083,0,0,0-3.5-9.9A10.774,10.774,0,0,0,2302.8-2584Zm-190.2,39.9a17.864,17.864,0,0,1-9.7-2.7,17.945,17.945,0,0,1-6.8-7.4,23.15,23.15,0,0,1-2.4-10.6v-1.7a24.65,24.65,0,0,1,2.4-11,19.11,19.11,0,0,1,6.6-7.7,15.929,15.929,0,0,1,9.1-2.8,15.317,15.317,0,0,1,12.2,5.3,17.508,17.508,0,0,1,3.375,6.226,27.517,27.517,0,0,1,1.125,8.175v2.6h-30.2v.9a18.054,18.054,0,0,0,4.1,12,13.047,13.047,0,0,0,10.4,4.8,15.308,15.308,0,0,0,6.6-1.4,14.305,14.305,0,0,0,5.2-4.4l2.9,2.2C2124.115-2546.623,2119.1-2544.1,2112.6-2544.1Zm-.9-39.9a11.679,11.679,0,0,0-8.9,3.9,17.679,17.679,0,0,0-4.4,10.4h25.4v-.5a15.086,15.086,0,0,0-3.5-9.9A10.777,10.777,0,0,0,2111.7-2584Zm-41,39.9a18.429,18.429,0,0,1-7.425-1.437,15.882,15.882,0,0,1-5.775-4.362,20.462,20.462,0,0,1-3.65-6.775,28.643,28.643,0,0,1-1.25-8.724v-1.4a25.692,25.692,0,0,1,2.2-11.1,16.4,16.4,0,0,1,6.3-7.4,17.724,17.724,0,0,1,9.6-2.6,18.846,18.846,0,0,1,6.35,1.037,15.4,15.4,0,0,1,5.15,3.063,14.669,14.669,0,0,1,3.449,4.812,16.869,16.869,0,0,1,1.35,6.088h-4.6a11.315,11.315,0,0,0-3.6-8,11.632,11.632,0,0,0-8.2-3c-4.238,0-7.535,1.548-9.8,4.6-2.322,3.028-3.5,7.335-3.5,12.8v1.4c0,5.332,1.178,9.571,3.5,12.6a11.845,11.845,0,0,0,9.8,4.4,11.994,11.994,0,0,0,8.2-2.8,9.684,9.684,0,0,0,3.6-7.1h4.5a13.189,13.189,0,0,1-2.4,7.1,15.886,15.886,0,0,1-5.9,5A17.489,17.489,0,0,1,2070.7-2544.1Zm-44.2,0a17.635,17.635,0,0,1-13.7-5.9c-3.516-3.919-5.3-9.2-5.3-15.7l.1-1a24.665,24.665,0,0,1,2.4-11,17.726,17.726,0,0,1,6.7-7.6,18.042,18.042,0,0,1,9.8-2.7,17.633,17.633,0,0,1,13.7,5.9c3.451,3.845,5.2,9.127,5.2,15.7v1a24.383,24.383,0,0,1-2.4,11,17.721,17.721,0,0,1-6.7,7.6A18.042,18.042,0,0,1,2026.5-2544.1Zm0-39.9a13.118,13.118,0,0,0-5.7,1.212,12.745,12.745,0,0,0-4.5,3.688c-2.624,3.331-3.9,7.518-3.9,12.8l-.1.9a23.046,23.046,0,0,0,.975,6.912A16.523,16.523,0,0,0,2016.2-2553a13.243,13.243,0,0,0,4.513,3.65,13.225,13.225,0,0,0,5.788,1.25,12.605,12.605,0,0,0,10.3-4.9,15.99,15.99,0,0,0,2.962-5.65,24.673,24.673,0,0,0,.937-7.15v-.9a21.759,21.759,0,0,0-1.8-8.9,14.146,14.146,0,0,0-5-6.2A12.713,12.713,0,0,0,2026.5-2584ZM1884-2544.1a14.568,14.568,0,0,1-6.612-1.488A15.217,15.217,0,0,1,1872.2-2550a20.31,20.31,0,0,1-3.375-6.9,33.228,33.228,0,0,1-1.125-9v-.5h.1a32.773,32.773,0,0,1,1.113-8.863,20.907,20.907,0,0,1,3.287-6.837,14.086,14.086,0,0,1,5.162-4.362,15.339,15.339,0,0,1,6.737-1.437c5.719,0,10.093,2.288,13,6.8v-23.8h4.6v60h-4.3l-.2-5.6a14.357,14.357,0,0,1-5.55,4.813A17.477,17.477,0,0,1,1884-2544.1Zm.9-39.8a10.671,10.671,0,0,0-9.2,4.6c-2.153,3.034-3.2,7.515-3.2,13.7a29.661,29.661,0,0,0,.812,7.225,18.305,18.305,0,0,0,2.387,5.575,11.144,11.144,0,0,0,3.913,3.512,11.118,11.118,0,0,0,5.187,1.187c5.77,0,9.793-2.486,12.3-7.6v-20a13.847,13.847,0,0,0-4.863-6.162A12.951,12.951,0,0,0,1884.9-2583.9Zm-69.9,39.8a17.635,17.635,0,0,1-13.7-5.9c-3.516-3.919-5.3-9.2-5.3-15.7v-1h.1a24.665,24.665,0,0,1,2.4-11,17.726,17.726,0,0,1,6.7-7.6,18.041,18.041,0,0,1,9.8-2.7,17.634,17.634,0,0,1,13.7,5.9c3.451,3.845,5.2,9.127,5.2,15.7v1a24.383,24.383,0,0,1-2.4,11,17.719,17.719,0,0,1-6.7,7.6A18.042,18.042,0,0,1,1815-2544.1Zm-14.2-21.3a23.047,23.047,0,0,0,.975,6.912A16.523,16.523,0,0,0,1804.7-2553a13.243,13.243,0,0,0,4.513,3.65,13.225,13.225,0,0,0,5.788,1.25,12.605,12.605,0,0,0,10.3-4.9,15.99,15.99,0,0,0,2.962-5.65,24.684,24.684,0,0,0,.937-7.15v-.9a21.76,21.76,0,0,0-1.8-8.9,14.146,14.146,0,0,0-5-6.2,12.714,12.714,0,0,0-7.4-2.2,13.118,13.118,0,0,0-5.7,1.212,12.741,12.741,0,0,0-4.5,3.688c-2.624,3.33-3.9,7.517-3.9,12.8v.9Zm-77.5,21.3a21.41,21.41,0,0,1-5.938-.812,20.294,20.294,0,0,1-5.263-2.387,20.281,20.281,0,0,1-7.5-9,31.108,31.108,0,0,1-2.7-13.3v-7.4a31.348,31.348,0,0,1,2.7-13.4,22.955,22.955,0,0,1,3.237-5.176,19.11,19.11,0,0,1,4.362-3.824,20.041,20.041,0,0,1,5.338-2.388,22.787,22.787,0,0,1,6.163-.813,25.559,25.559,0,0,1,8.175,1.213,16.873,16.873,0,0,1,6.225,3.688,18.752,18.752,0,0,1,4.187,5.863,24.624,24.624,0,0,1,2.013,7.737h-4.9a22.671,22.671,0,0,0-1.652-6.358,13.549,13.549,0,0,0-3.161-4.53,12.734,12.734,0,0,0-4.68-2.711,19.783,19.783,0,0,0-6.208-.9,16.3,16.3,0,0,0-6.975,1.437,14.476,14.476,0,0,0-5.325,4.363,19.761,19.761,0,0,0-3.463,6.912,33.213,33.213,0,0,0-1.138,9.087v7a32.275,32.275,0,0,0,1.125,8.862,20.342,20.342,0,0,0,3.375,6.837,15,15,0,0,0,5.263,4.413,15.385,15.385,0,0,0,6.838,1.488,22.05,22.05,0,0,0,6.6-.9,12.574,12.574,0,0,0,4.8-2.7c2.548-2.353,4.085-5.885,4.7-10.8h4.688a26.1,26.1,0,0,1-2.119,7.888,17.651,17.651,0,0,1-4.27,5.812C1734.218-2545.715,1729.339-2544.1,1723.3-2544.1Zm-53.6-.1a20.448,20.448,0,0,1-16.1-7.1,23.952,23.952,0,0,1-4.587-8.4,35.919,35.919,0,0,1-1.512-10.8v-5.9a37.452,37.452,0,0,1,.687-7.35,27.813,27.813,0,0,1,2.112-6.451,20.285,20.285,0,0,1,7.8-9.2,21.438,21.438,0,0,1,11.6-3.2,21.438,21.438,0,0,1,11.6,3.2,21.908,21.908,0,0,1,7.8,8.9,32.885,32.885,0,0,1,2.9,13.4v6.8h-.2a33.477,33.477,0,0,1-2.7,13.8,21.729,21.729,0,0,1-3.3,5.262,19.291,19.291,0,0,1-4.5,3.838A21.442,21.442,0,0,1,1669.7-2544.2Zm0-54.1a17,17,0,0,0-7.125,1.438,14.93,14.93,0,0,0-5.475,4.363,20.18,20.18,0,0,0-3.512,6.987,33.588,33.588,0,0,0-1.187,9.313v5.9c0,6.693,1.581,12.077,4.7,16a15.251,15.251,0,0,0,5.525,4.412,16.9,16.9,0,0,0,7.175,1.488c5.466,0,9.74-1.952,12.7-5.8,3.052-3.967,4.6-9.451,4.6-16.3l-.1-5.9a33.685,33.685,0,0,0-1.137-9.138,19.759,19.759,0,0,0-3.463-6.962,14.874,14.874,0,0,0-5.487-4.363A17.3,17.3,0,0,0,1669.7-2598.3Zm522.8,54c-4.878,0-8.915-1.211-12-3.6a12.119,12.119,0,0,1-3.463-4.05,10.813,10.813,0,0,1-1.137-4.95h4.7a8.049,8.049,0,0,0,3.5,6.4,14.194,14.194,0,0,0,8.4,2.3,13.379,13.379,0,0,0,7.9-2.1,6.491,6.491,0,0,0,2.9-5.4,6.618,6.618,0,0,0-2.8-5.6,22.321,22.321,0,0,0-8.4-3.3,37.706,37.706,0,0,1-8.7-2.7,11.129,11.129,0,0,1-4.6-3.8,9.555,9.555,0,0,1-1.5-5.4,10.184,10.184,0,0,1,4.2-8.3,16.869,16.869,0,0,1,10.7-3.3c4.67,0,8.472,1.177,11.3,3.5a11.071,11.071,0,0,1,4.3,9.1h-4.7a7.424,7.424,0,0,0-.762-3.4,8.483,8.483,0,0,0-2.338-2.8,11.89,11.89,0,0,0-7.8-2.5,12.058,12.058,0,0,0-7.4,2.1,6.189,6.189,0,0,0-2.8,5.3,5.911,5.911,0,0,0,2.3,4.9c1.4,1.12,4.023,2.107,8.5,3.2a39.608,39.608,0,0,1,9.2,3.1,12.829,12.829,0,0,1,4.6,3.9,9.921,9.921,0,0,1,1.5,5.6,10.2,10.2,0,0,1-4.3,8.6C2200.826-2545.347,2197.13-2544.3,2192.5-2544.3Zm-40.5,0c-4.878,0-8.915-1.211-12-3.6a12.119,12.119,0,0,1-3.463-4.05,10.813,10.813,0,0,1-1.137-4.95h4.7a8.049,8.049,0,0,0,3.5,6.4,14.194,14.194,0,0,0,8.4,2.3,13.379,13.379,0,0,0,7.9-2.1,6.491,6.491,0,0,0,2.9-5.4,6.618,6.618,0,0,0-2.8-5.6,22.321,22.321,0,0,0-8.4-3.3,37.706,37.706,0,0,1-8.7-2.7,11.126,11.126,0,0,1-4.6-3.8,9.553,9.553,0,0,1-1.5-5.4,10.184,10.184,0,0,1,4.2-8.3,16.869,16.869,0,0,1,10.7-3.3c4.67,0,8.472,1.177,11.3,3.5a11.071,11.071,0,0,1,4.3,9.1h-4.7a7.424,7.424,0,0,0-.762-3.4,8.483,8.483,0,0,0-2.338-2.8,11.89,11.89,0,0,0-7.8-2.5,12.058,12.058,0,0,0-7.4,2.1,6.189,6.189,0,0,0-2.8,5.3,5.911,5.911,0,0,0,2.3,4.9c1.4,1.12,4.023,2.107,8.5,3.2a39.608,39.608,0,0,1,9.2,3.1,12.829,12.829,0,0,1,4.6,3.9,9.921,9.921,0,0,1,1.5,5.6,10.2,10.2,0,0,1-4.3,8.6C2160.326-2545.347,2156.63-2544.3,2152-2544.3Zm94-.6h-7.5v-56.9h18.8a29.742,29.742,0,0,1,8.488,1.113,17.821,17.821,0,0,1,6.313,3.287c3.45,2.859,5.2,7.132,5.2,12.7a15.846,15.846,0,0,1-2.9,9.3,17.309,17.309,0,0,1-8,5.9l13.4,24.1v.5h-8l-12.4-23H2246v23Zm0-50.8v21.6h11.5a13.2,13.2,0,0,0,8.9-2.9,9.693,9.693,0,0,0,3.3-7.7,13.112,13.112,0,0,0-.763-4.65,8.822,8.822,0,0,0-2.338-3.45c-2.044-1.849-5.021-2.8-9.1-2.9Zm416,50.8h-4.7v-42.3h4.7Zm-171.5,0h-4.7v-42.3h4.7Zm-102.5,0h-35.4v-56.9h35.2v4.1h-30.4v21.5H2384v4h-26.6v23.2H2388v4.1Zm-446.4,0h-7.5v-56.9h21c6.2,0,11.117,1.615,14.6,4.8a16.351,16.351,0,0,1,5.3,12.6,19.585,19.585,0,0,1-1.287,7.337,14.039,14.039,0,0,1-3.912,5.462,17.4,17.4,0,0,1-6.313,3.375A29.306,29.306,0,0,1,1955-2567.1l-13.4-.1v22.3Zm0-50.7v22.3h13.5c4.051,0,7.147-.942,9.2-2.8a9.153,9.153,0,0,0,2.387-3.462,12.9,12.9,0,0,0,.812-4.737,10.71,10.71,0,0,0-3.2-8.1,10.842,10.842,0,0,0-3.8-2.313,15.856,15.856,0,0,0-5-.888Zm-306.1,50.7H1628v-56.9h7.5Zm124-.1h-4.6v-60h4.6l-.1,25a16.611,16.611,0,0,1,5.9-5.9,15.256,15.256,0,0,1,7.9-2.1c4.484,0,7.882,1.279,10.1,3.8,2.187,2.584,3.3,6.346,3.4,11.5v27.7h-4.6v-27.7c0-3.782-.807-6.609-2.4-8.4-1.651-1.858-4.207-2.8-7.6-2.8a12.083,12.083,0,0,0-7.7,2.7,15.819,15.819,0,0,0-4.9,7.3v28.9Zm919.9,0h-4.6v-42.2h4.3l.2,7.2a17.841,17.841,0,0,1,5.9-6,15.257,15.257,0,0,1,7.9-2.1c4.483,0,7.881,1.279,10.1,3.8,2.187,2.584,3.3,6.345,3.4,11.5v27.7H2702v-27.6c0-3.782-.807-6.609-2.4-8.4-1.652-1.858-4.209-2.8-7.6-2.8a12.078,12.078,0,0,0-7.7,2.7,15.814,15.814,0,0,0-4.9,7.3v28.9Zm-44.9,0h-4.6v-42.2h4.6l.1,6.7a13.728,13.728,0,0,1,4.825-5.625A13.014,13.014,0,0,1,2646.5-2588a8.73,8.73,0,0,1,3.1.5l-.2,4.3a15.965,15.965,0,0,0-3.2-.3,11.521,11.521,0,0,0-7.4,2.4,13.114,13.114,0,0,0-4.3,7.1v29Zm-126.5,0h-4.6v-42.2h4.3l.2,7.2a17.834,17.834,0,0,1,5.9-6,15.255,15.255,0,0,1,7.9-2.1c4.483,0,7.881,1.279,10.1,3.8,2.187,2.585,3.3,6.347,3.4,11.5v27.7h-4.6v-27.6c0-3.782-.808-6.609-2.4-8.4-1.652-1.858-4.208-2.8-7.6-2.8a12.085,12.085,0,0,0-7.7,2.7,15.824,15.824,0,0,0-4.9,7.3v28.9Zm-106.3,0h-4.6v-42.2h4.3l.2,7.2a17.839,17.839,0,0,1,5.9-6,15.257,15.257,0,0,1,7.9-2.1c4.483,0,7.882,1.279,10.1,3.8,2.187,2.584,3.3,6.346,3.4,11.5v27.7h-4.6v-27.6c0-3.783-.808-6.609-2.4-8.4-1.652-1.858-4.209-2.8-7.6-2.8a12.083,12.083,0,0,0-7.7,2.7,15.818,15.818,0,0,0-4.9,7.3v28.9Zm-413,0h-4.6v-42.2h4.6l.1,6.7a13.728,13.728,0,0,1,4.825-5.625A13.015,13.015,0,0,1,2000.7-2588a8.719,8.719,0,0,1,3.1.5l-.2,4.3a15.95,15.95,0,0,0-3.2-.3,11.524,11.524,0,0,0-7.4,2.4,13.114,13.114,0,0,0-4.3,7.1v29Zm-140.6,0h-4.6v-42.2h4.6l.1,6.7a13.722,13.722,0,0,1,4.825-5.625A13.016,13.016,0,0,1,1860.1-2588a8.726,8.726,0,0,1,3.1.5l-.2,4.3a15.954,15.954,0,0,0-3.2-.3,11.52,11.52,0,0,0-7.4,2.4,13.105,13.105,0,0,0-4.3,7.1v29Zm495-23h-18.7v-3.9h18.7v3.9Zm316.6-28.3a2.875,2.875,0,0,1-2.3-.9,2.93,2.93,0,0,1-.9-2.2,2.933,2.933,0,0,1,.9-2.2,3.173,3.173,0,0,1,2.3-.9,3.261,3.261,0,0,1,2.4.9,3.086,3.086,0,0,1,.9,2.2,3.082,3.082,0,0,1-.9,2.2A3.258,3.258,0,0,1,2659.7-2596.3Zm-171.5,0a2.872,2.872,0,0,1-2.3-.9,2.928,2.928,0,0,1-.9-2.2,2.93,2.93,0,0,1,.9-2.2,3.174,3.174,0,0,1,2.3-.9,3.258,3.258,0,0,1,2.4.9,3.087,3.087,0,0,1,.9,2.2,3.083,3.083,0,0,1-.9,2.2A3.255,3.255,0,0,1,2488.2-2596.3Z" transform="translate(-1614 2607)" fill="#6f6f7a"/>
  </g>
</svg>
