<svg xmlns="http://www.w3.org/2000/svg" xmlns:xlink="http://www.w3.org/1999/xlink" width="32" height="32" viewBox="0 0 32 32">
  <defs>
    <clipPath id="clip-ico_log_disabled">
      <rect width="32" height="32"/>
    </clipPath>
  </defs>
  <g id="ico_log_disabled" clip-path="url(#clip-ico_log_disabled)">
    <path id="ico-log-disabled" d="M3,5878v-8H0v-16H3v-8H29v8h3v16H29v8Zm.813-1H28.188v-7H3.813ZM21.5,5858.508a3.3,3.3,0,0,0-1.291,1.468,5.332,5.332,0,0,0-.448,2.271v.6a5.019,5.019,0,0,0,.485,2.22,3.339,3.339,0,0,0,1.339,1.441,4.032,4.032,0,0,0,2.02.5,5.925,5.925,0,0,0,2-.323,3.2,3.2,0,0,0,1.4-.9v-3.5H23.51v1.329h1.661v1.511a2.046,2.046,0,0,1-1.468.432,1.834,1.834,0,0,1-1.553-.7,3.451,3.451,0,0,1-.53-2.082v-.561a3.629,3.629,0,0,1,.493-2.058,1.633,1.633,0,0,1,1.419-.69,1.521,1.521,0,0,1,1.689,1.449H27a3.181,3.181,0,0,0-1.055-2.163,3.752,3.752,0,0,0-2.467-.743A3.788,3.788,0,0,0,21.5,5858.508Zm-8.6.018a3.5,3.5,0,0,0-1.334,1.511,5.212,5.212,0,0,0-.474,2.276v.435a5.1,5.1,0,0,0,.482,2.233,3.494,3.494,0,0,0,1.339,1.494,3.953,3.953,0,0,0,3.946,0,3.467,3.467,0,0,0,1.323-1.5,5.242,5.242,0,0,0,.463-2.268v-.392a5.194,5.194,0,0,0-.472-2.271,3.5,3.5,0,0,0-1.334-1.511,3.953,3.953,0,0,0-3.942,0ZM5,5866.879h5.707v-1.45H6.827v-7.309H5ZM3.813,5854H28.188v-7H3.813Zm9.637,10.781a3.71,3.71,0,0,1-.5-2.082v-.428a3.617,3.617,0,0,1,.506-2.073,1.779,1.779,0,0,1,2.846.009,3.671,3.671,0,0,1,.5,2.093v.426a3.7,3.7,0,0,1-.5,2.08,1.763,1.763,0,0,1-2.852-.027Z" transform="translate(0 -5846)" fill="#a4a4a4"/>
  </g>
</svg>
