<svg xmlns="http://www.w3.org/2000/svg" xmlns:xlink="http://www.w3.org/1999/xlink" width="32" height="32" viewBox="0 0 32 32">
  <defs>
    <clipPath id="clip-ico_flow_discovery_disabled">
      <rect width="32" height="32"/>
    </clipPath>
  </defs>
  <g id="ico_flow_discovery_disabled" clip-path="url(#clip-ico_flow_discovery_disabled)">
    <path id="ico-flow-discovary-disabled" d="M47-2942.7v-2l.3-.3,9.7,9.7-1.3,1.3ZM25-2934v-32H47v10.7a7.871,7.871,0,0,0-4-2.05V-2959H29v2h9.75a7.909,7.909,0,0,0-3.05,2H29v2h5.3a9.349,9.349,0,0,0-.65,2H29v2h4.5a8.936,8.936,0,0,0,.4,2H29v2h5.9a7.415,7.415,0,0,0,1.95,2H29v2H43v-.651a7.818,7.818,0,0,0,3.45-1.6l.55.549v8.7Zm4-3h7v-2H29Zm0-24H43v-2H29Zm7.95,16H43v-2H35.65a5.372,5.372,0,0,1-.5-2H43v-2H35.3a5.893,5.893,0,0,1,.85-2H43v-2H38.249a6.458,6.458,0,0,1,3.251-.9,6.321,6.321,0,0,1,5.5,3.15v6.5a6.325,6.325,0,0,1-5.5,3.15A6.418,6.418,0,0,1,36.95-2945Z" transform="translate(-25 2966)" fill="#a4a4a4"/>
  </g>
</svg>
