<svg xmlns="http://www.w3.org/2000/svg" xmlns:xlink="http://www.w3.org/1999/xlink" width="24" height="24" viewBox="0 0 24 24">
  <defs>
    <clipPath id="clip-ico_manage">
      <rect width="24" height="24"/>
    </clipPath>
  </defs>
  <g id="ico_manage" clip-path="url(#clip-ico_manage)">
    <path id="ico_setting_01" d="M24,13.65V10.388L20.175,8.963c-.075-.187-.15-.337-.225-.525l1.688-3.75L19.313,2.363,15.563,4.05c-.187-.075-.338-.15-.525-.225L13.65,0H10.388L8.963,3.825c-.187.075-.337.15-.525.225L4.688,2.363,2.363,4.688,4.05,8.438c-.075.188-.15.337-.225.525L0,10.35v3.262l3.825,1.425c.075.188.15.338.225.525l-1.688,3.75,2.325,2.325,3.75-1.687c.188.075.337.15.525.225L10.35,24h3.262l1.425-3.825c.188-.075.338-.15.525-.225l3.75,1.688,2.325-2.325-1.687-3.75c.075-.187.15-.338.225-.525ZM12,16.912A4.912,4.912,0,1,1,16.912,12,4.929,4.929,0,0,1,12,16.912Z" fill="#6f6f7a"/>
  </g>
</svg>
