<svg xmlns="http://www.w3.org/2000/svg" xmlns:xlink="http://www.w3.org/1999/xlink" width="32" height="32" viewBox="0 0 32 32">
  <defs>
    <clipPath id="clip-ico_datasource">
      <rect width="32" height="32"/>
    </clipPath>
  </defs>
  <g id="ico_datasource" clip-path="url(#clip-ico_datasource)">
    <path id="iconmonstr-database-1" d="M28.667,24.073v3.277C28.667,29.917,22.46,32,15.333,32S2,29.917,2,27.351V24.073c3.224,2.317,9.34,3.008,13.333,3.008S25.451,26.384,28.667,24.073ZM15.333,19.528c-4.008,0-10.117-.7-13.333-3.008v3.245c0,2.568,6.208,4.649,13.333,4.649s13.333-2.083,13.333-4.649V16.52C25.443,18.837,19.327,19.528,15.333,19.528ZM15.333,0C8.208,0,2,2.083,2,4.651S8.208,9.3,15.333,9.3,28.667,7.217,28.667,4.651,22.46,0,15.333,0Zm0,11.967c-4.008,0-10.117-.7-13.333-3.008v3.253c0,2.568,6.208,4.649,13.333,4.649s13.333-2.083,13.333-4.649V8.959C25.443,11.276,19.327,11.967,15.333,11.967Z" transform="translate(1)" fill="#6f6f7a"/>
  </g>
</svg>
