<svg xmlns="http://www.w3.org/2000/svg" xmlns:xlink="http://www.w3.org/1999/xlink" width="24" height="24" viewBox="0 0 24 24">
  <defs>
    <clipPath id="clip-ico_bottleneck">
      <rect width="24" height="24"/>
    </clipPath>
  </defs>
  <g id="ico_bottleneck" clip-path="url(#clip-ico_bottleneck)">
    <path id="합치기_65" data-name="합치기 65" d="M37.733-2942.334a1.333,1.333,0,0,1,1.333-1.333,1.334,1.334,0,0,1,1.334,1.333A1.334,1.334,0,0,1,39.065-2941,1.333,1.333,0,0,1,37.733-2942.334Zm-.7-2.266v-6.378L30.467-2961H47.534l-6.565,10.021v6.378Zm.985-1.692a1,1,0,0,0,.985.976,1,1,0,0,0,.985-.976,1,1,0,0,0-.985-.977A1,1,0,0,0,38.015-2946.292Zm0-2.994a1,1,0,0,0,.985.977,1,1,0,0,0,.985-.977,1,1,0,0,0-.985-.976A1,1,0,0,0,38.015-2949.287Zm0-3.058a1.006,1.006,0,0,0,.985.977,1,1,0,0,0,.985-.977,1,1,0,0,0-.985-.977A1,1,0,0,0,38.015-2952.345Zm1.9-3.254a1.006,1.006,0,0,0,.985.977,1,1,0,0,0,.985-.977,1,1,0,0,0-.985-.976A1,1,0,0,0,39.919-2955.6Zm-3.807,0a1.006,1.006,0,0,0,.985.977,1,1,0,0,0,.985-.977,1,1,0,0,0-.985-.976A.962.962,0,0,0,36.112-2955.6Zm5.776-3.124a1,1,0,0,0,.985.977,1,1,0,0,0,.985-.977,1,1,0,0,0-.985-.976A1,1,0,0,0,41.888-2958.723Zm-3.873,0a1,1,0,0,0,.985.977,1,1,0,0,0,.985-.977A1,1,0,0,0,39-2959.7,1,1,0,0,0,38.015-2958.723Zm-3.873,0a1,1,0,0,0,.985.977,1,1,0,0,0,.985-.977,1,1,0,0,0-.985-.976A1,1,0,0,0,34.142-2958.723Zm12.19-4.944A1.334,1.334,0,0,1,47.667-2965,1.333,1.333,0,0,1,49-2963.667a1.334,1.334,0,0,1-1.333,1.334A1.334,1.334,0,0,1,46.333-2963.667Zm-5.777,0A1.333,1.333,0,0,1,41.889-2965a1.334,1.334,0,0,1,1.334,1.333,1.334,1.334,0,0,1-1.334,1.334A1.334,1.334,0,0,1,40.556-2963.667Zm-5.778,0A1.333,1.333,0,0,1,36.111-2965a1.333,1.333,0,0,1,1.334,1.333,1.334,1.334,0,0,1-1.334,1.334A1.334,1.334,0,0,1,34.778-2963.667Zm-5.778,0A1.334,1.334,0,0,1,30.334-2965a1.333,1.333,0,0,1,1.333,1.333,1.334,1.334,0,0,1-1.333,1.334A1.334,1.334,0,0,1,29-2963.667Z" transform="translate(-27 2965)" fill="#6f6f7a"/>
  </g>
</svg>
