<svg xmlns="http://www.w3.org/2000/svg" xmlns:xlink="http://www.w3.org/1999/xlink" width="1150" height="80" viewBox="0 0 1150 80">
  <defs>
    <clipPath id="clip-logo_ipr_fullname_brown">
      <rect width="1150" height="80"/>
    </clipPath>
  </defs>
  <g id="logo_ipr_fullname_brown" clip-path="url(#clip-logo_ipr_fullname_brown)">
    <g id="logo_ipr_fullname_purple" transform="translate(-4.6 -29.5)">
      <path id="패스_223" data-name="패스 223" d="M26.1,91.6H18.6V34.7h7.5Z" fill="#8c8079"/>
      <path id="패스_224" data-name="패스 224" d="M82.4,66.2A33.317,33.317,0,0,1,79.7,80a19.982,19.982,0,0,1-7.8,9.1,21.491,21.491,0,0,1-11.6,3.2,20.43,20.43,0,0,1-16.1-7.1C40.1,80.4,38.1,74,38.1,66V60.1a31.8,31.8,0,0,1,2.8-13.8,20.247,20.247,0,0,1,7.8-9.2,21.491,21.491,0,0,1,11.6-3.2,21.491,21.491,0,0,1,11.6,3.2A21.877,21.877,0,0,1,79.7,46a33.008,33.008,0,0,1,2.9,13.4v6.8h-.2Zm-4.8-6.1c0-6.8-1.5-12.2-4.6-16.1s-7.3-5.8-12.7-5.8c-5.3,0-9.5,1.9-12.6,5.8S43,53.3,43,60.3v5.9c0,6.7,1.6,12.1,4.7,16a15.476,15.476,0,0,0,12.7,5.9c5.4,0,9.7-1.9,12.7-5.8S77.7,73,77.7,66l-.1-5.9Z" fill="#8c8079"/>
      <path id="패스_225" data-name="패스 225" d="M134.8,73.8c-.7,6-2.8,10.6-6.4,13.8s-8.5,4.8-14.5,4.8A19.837,19.837,0,0,1,95.2,80.2a31.286,31.286,0,0,1-2.7-13.3V59.5a31.431,31.431,0,0,1,2.7-13.4,20.466,20.466,0,0,1,7.6-9,20.906,20.906,0,0,1,11.5-3.2c6.1,0,10.9,1.6,14.4,4.9s5.6,7.8,6.2,13.6H130c-1.2-9.7-6.4-14.5-15.7-14.5A14.637,14.637,0,0,0,102,43.7c-3.1,3.9-4.6,9.2-4.6,16v7c0,6.6,1.5,11.8,4.5,15.7A14.477,14.477,0,0,0,114,88.3q7.5,0,11.4-3.6c2.6-2.4,4.1-6,4.7-10.8h4.7Z" fill="#8c8079"/>
      <path id="패스_226" data-name="패스 226" d="M150,56.5a16.672,16.672,0,0,1,5.9-5.9,15.311,15.311,0,0,1,7.9-2.1c4.5,0,7.9,1.3,10.1,3.8,2.2,2.6,3.3,6.4,3.4,11.5V91.5h-4.6V63.8q0-5.7-2.4-8.4c-1.6-1.8-4.1-2.8-7.6-2.8a12.054,12.054,0,0,0-7.7,2.7,15.775,15.775,0,0,0-4.9,7.3V91.5h-4.6v-60h4.6l-.1,25Z" fill="#8c8079"/>
      <path id="패스_227" data-name="패스 227" d="M186.7,69.8a24.676,24.676,0,0,1,2.4-11,17.757,17.757,0,0,1,6.7-7.6,18.04,18.04,0,0,1,9.8-2.7,17.63,17.63,0,0,1,13.7,5.9c3.5,3.9,5.2,9.2,5.2,15.7v1a24.374,24.374,0,0,1-2.4,11,17.757,17.757,0,0,1-6.7,7.6,18.04,18.04,0,0,1-9.8,2.7,17.63,17.63,0,0,1-13.7-5.9c-3.5-3.9-5.3-9.2-5.3-15.7v-1Zm4.7,1.3c0,5.1,1.3,9.2,3.9,12.4a13.276,13.276,0,0,0,20.6,0c2.7-3.3,3.9-7.5,3.9-12.8v-.9a21.78,21.78,0,0,0-1.8-8.9,14.2,14.2,0,0,0-5-6.2,12.648,12.648,0,0,0-7.4-2.2,12.326,12.326,0,0,0-10.2,4.9c-2.6,3.3-3.9,7.5-3.9,12.8v.9Z" fill="#8c8079"/>
      <path id="패스_228" data-name="패스 228" d="M253.6,53.3a15.823,15.823,0,0,0-3.2-.3,11.534,11.534,0,0,0-7.4,2.4,13.03,13.03,0,0,0-4.3,7.1v29h-4.6V49.3h4.6l.1,6.7c2.5-5,6.4-7.5,11.9-7.5a8.719,8.719,0,0,1,3.1.5Z" fill="#8c8079"/>
      <path id="패스_229" data-name="패스 229" d="M258.4,70.1c0-6.6,1.5-11.8,4.4-15.7a14.028,14.028,0,0,1,11.9-5.8c5.7,0,10.1,2.3,13,6.8V31.6h4.6v60H288l-.2-5.6c-3,4.3-7.4,6.4-13.2,6.4a14.187,14.187,0,0,1-11.8-5.9q-4.5-5.85-4.5-15.9v-.5Zm4.7.8c0,5.4,1.1,9.6,3.2,12.8a10.556,10.556,0,0,0,9.1,4.7c5.8,0,9.8-2.5,12.3-7.6v-20c-2.4-5.5-6.5-8.2-12.2-8.2a10.644,10.644,0,0,0-9.2,4.6C264.1,60.3,263.1,64.9,263.1,70.9Z" fill="#8c8079"/>
      <path id="패스_230" data-name="패스 230" d="M332.2,69.3V91.6h-7.5V34.7h21c6.2,0,11.1,1.6,14.6,4.8a16.3,16.3,0,0,1,5.3,12.6c0,5.5-1.7,9.8-5.2,12.8s-8.4,4.5-14.8,4.5l-13.4-.1Zm0-6.1h13.5c4,0,7.1-.9,9.2-2.8s3.2-4.6,3.2-8.2a10.69,10.69,0,0,0-3.2-8.1,12.913,12.913,0,0,0-8.8-3.2H332.2V63.2Z" fill="#8c8079"/>
      <path id="패스_231" data-name="패스 231" d="M394.2,53.3A15.823,15.823,0,0,0,391,53a11.534,11.534,0,0,0-7.4,2.4,13.03,13.03,0,0,0-4.3,7.1v29h-4.6V49.3h4.6l.1,6.7c2.5-5,6.4-7.5,11.9-7.5a8.719,8.719,0,0,1,3.1.5Z" fill="#8c8079"/>
      <path id="패스_232" data-name="패스 232" d="M398.2,69.8a24.676,24.676,0,0,1,2.4-11,17.757,17.757,0,0,1,6.7-7.6,18.04,18.04,0,0,1,9.8-2.7,17.63,17.63,0,0,1,13.7,5.9c3.5,3.9,5.2,9.2,5.2,15.7v1a24.374,24.374,0,0,1-2.4,11,17.757,17.757,0,0,1-6.7,7.6,18.04,18.04,0,0,1-9.8,2.7,17.63,17.63,0,0,1-13.7-5.9c-3.5-3.9-5.3-9.2-5.3-15.7l.1-1Zm4.7,1.3c0,5.1,1.3,9.2,3.9,12.4a13.275,13.275,0,0,0,20.6,0c2.7-3.3,3.9-7.5,3.9-12.8v-.9a21.781,21.781,0,0,0-1.8-8.9,14.2,14.2,0,0,0-5-6.2,12.648,12.648,0,0,0-7.4-2.2,12.326,12.326,0,0,0-10.2,4.9c-2.6,3.3-3.9,7.5-3.9,12.8l-.1.9Z" fill="#8c8079"/>
      <path id="패스_233" data-name="패스 233" d="M461.2,88.4a12.01,12.01,0,0,0,8.2-2.8,9.687,9.687,0,0,0,3.6-7.1h4.5a13.146,13.146,0,0,1-2.4,7.1,15.953,15.953,0,0,1-5.9,5,17.617,17.617,0,0,1-7.9,1.8c-5.5,0-9.9-1.9-13.2-5.8-3.2-3.9-4.9-9-4.9-15.5V69.7a25.884,25.884,0,0,1,2.2-11.1,16.4,16.4,0,0,1,6.3-7.4,17.664,17.664,0,0,1,9.6-2.6,16.687,16.687,0,0,1,11.5,4.1,15.158,15.158,0,0,1,4.8,10.9H473a11.315,11.315,0,0,0-3.6-8,11.678,11.678,0,0,0-8.2-3c-4.2,0-7.5,1.5-9.8,4.6-2.3,3-3.5,7.3-3.5,12.8v1.4c0,5.4,1.2,9.6,3.5,12.6A11.863,11.863,0,0,0,461.2,88.4Z" fill="#8c8079"/>
      <path id="패스_234" data-name="패스 234" d="M503.2,92.4a18.323,18.323,0,0,1-16.5-10.1,23.267,23.267,0,0,1-2.4-10.6V70a24.676,24.676,0,0,1,2.4-11,19.148,19.148,0,0,1,6.6-7.7,15.987,15.987,0,0,1,9.1-2.8,15.32,15.32,0,0,1,12.2,5.3q4.5,5.25,4.5,14.4v2.6H488.9v.9a18,18,0,0,0,4.1,12,13.037,13.037,0,0,0,10.4,4.8,15.258,15.258,0,0,0,6.6-1.4,14.264,14.264,0,0,0,5.2-4.4l2.9,2.2C514.7,89.9,509.7,92.4,503.2,92.4Zm-.9-39.9a11.679,11.679,0,0,0-8.9,3.9A17.74,17.74,0,0,0,489,66.8h25.4v-.5a15.049,15.049,0,0,0-3.5-9.9A10.777,10.777,0,0,0,502.3,52.5Z" fill="#8c8079"/>
      <path id="패스_235" data-name="패스 235" d="M553.4,80.8a6.611,6.611,0,0,0-2.8-5.6,22.224,22.224,0,0,0-8.4-3.3,37.6,37.6,0,0,1-8.7-2.7,11.084,11.084,0,0,1-4.6-3.8,9.509,9.509,0,0,1-1.5-5.4,10.188,10.188,0,0,1,4.2-8.3,16.86,16.86,0,0,1,10.7-3.3c4.7,0,8.5,1.2,11.3,3.5a11.09,11.09,0,0,1,4.3,9.1h-4.7a7.578,7.578,0,0,0-3.1-6.2,13.733,13.733,0,0,0-15.2-.4,6.214,6.214,0,0,0-2.8,5.3,5.935,5.935,0,0,0,2.3,4.9c1.5,1.2,4.4,2.2,8.5,3.2a40.261,40.261,0,0,1,9.2,3.1,12.867,12.867,0,0,1,4.6,3.9,9.955,9.955,0,0,1,1.5,5.6,10.174,10.174,0,0,1-4.3,8.6c-2.9,2.1-6.6,3.2-11.3,3.2q-7.35,0-12-3.6a10.913,10.913,0,0,1-4.6-9h4.7a8.047,8.047,0,0,0,3.5,6.4,14.17,14.17,0,0,0,8.4,2.3,13.434,13.434,0,0,0,7.9-2.1A6.484,6.484,0,0,0,553.4,80.8Z" fill="#8c8079"/>
      <path id="패스_236" data-name="패스 236" d="M593.9,80.8a6.611,6.611,0,0,0-2.8-5.6,22.224,22.224,0,0,0-8.4-3.3,37.6,37.6,0,0,1-8.7-2.7,11.084,11.084,0,0,1-4.6-3.8,9.509,9.509,0,0,1-1.5-5.4,10.188,10.188,0,0,1,4.2-8.3,16.86,16.86,0,0,1,10.7-3.3c4.7,0,8.5,1.2,11.3,3.5a11.09,11.09,0,0,1,4.3,9.1h-4.7a7.578,7.578,0,0,0-3.1-6.2,13.733,13.733,0,0,0-15.2-.4,6.214,6.214,0,0,0-2.8,5.3,5.935,5.935,0,0,0,2.3,4.9c1.5,1.2,4.4,2.2,8.5,3.2a40.261,40.261,0,0,1,9.2,3.1,12.867,12.867,0,0,1,4.6,3.9,9.955,9.955,0,0,1,1.5,5.6,10.174,10.174,0,0,1-4.3,8.6c-2.9,2.1-6.6,3.2-11.3,3.2q-7.35,0-12-3.6a10.913,10.913,0,0,1-4.6-9h4.7a8.047,8.047,0,0,0,3.5,6.4,14.17,14.17,0,0,0,8.4,2.3,13.434,13.434,0,0,0,7.9-2.1A6.484,6.484,0,0,0,593.9,80.8Z" fill="#8c8079"/>
      <path id="패스_237" data-name="패스 237" d="M650,68.6H636.6v23h-7.5V34.7h18.8c6.4,0,11.3,1.5,14.8,4.4s5.2,7.2,5.2,12.7a15.8,15.8,0,0,1-2.9,9.3,17.353,17.353,0,0,1-8,5.9l13.4,24.1v.5h-8Zm-13.4-6.2h11.5a13.231,13.231,0,0,0,8.9-2.9,9.7,9.7,0,0,0,3.3-7.7c0-3.5-1-6.2-3.1-8.1s-5.1-2.8-9.1-2.9H636.6V62.4Z" fill="#8c8079"/>
      <path id="패스_238" data-name="패스 238" d="M694.2,92.4a18.323,18.323,0,0,1-16.5-10.1,23.268,23.268,0,0,1-2.4-10.6V70a24.675,24.675,0,0,1,2.4-11,19.148,19.148,0,0,1,6.6-7.7,15.987,15.987,0,0,1,9.1-2.8,15.32,15.32,0,0,1,12.2,5.3q4.5,5.25,4.5,14.4v2.6H679.9v.9a18,18,0,0,0,4.1,12,13.037,13.037,0,0,0,10.4,4.8,15.258,15.258,0,0,0,6.6-1.4,14.263,14.263,0,0,0,5.2-4.4l2.9,2.2C705.7,89.9,700.8,92.4,694.2,92.4Zm-.8-39.9a11.679,11.679,0,0,0-8.9,3.9,17.74,17.74,0,0,0-4.4,10.4h25.4v-.5a15.049,15.049,0,0,0-3.5-9.9A10.776,10.776,0,0,0,693.4,52.5Z" fill="#8c8079"/>
      <path id="패스_239" data-name="패스 239" d="M733.7,68.5H715V64.6h18.7Z" fill="#8c8079"/>
      <path id="패스_240" data-name="패스 240" d="M774.6,64.3H748V87.5h30.6v4.1H743.2V34.7h35.2v4.1H748V60.3h26.6Z" fill="#8c8079"/>
      <path id="패스_241" data-name="패스 241" d="M792,49.3l.2,7.2a17.841,17.841,0,0,1,5.9-6,15.311,15.311,0,0,1,7.9-2.1c4.5,0,7.9,1.3,10.1,3.8,2.2,2.6,3.3,6.4,3.4,11.5V91.4h-4.6V63.8q0-5.7-2.4-8.4c-1.6-1.8-4.1-2.8-7.6-2.8a12.054,12.054,0,0,0-7.7,2.7,15.775,15.775,0,0,0-4.9,7.3V91.5h-4.6V49.3Z" fill="#8c8079"/>
      <path id="패스_242" data-name="패스 242" d="M829.6,70.1c0-6.6,1.5-11.9,4.4-15.7a14.284,14.284,0,0,1,11.9-5.8c5.8,0,10.1,2.3,13.1,6.9l.2-6.1h4.4V90.8c0,5.4-1.5,9.8-4.6,12.9a16.8,16.8,0,0,1-12.4,4.8,19.2,19.2,0,0,1-8.4-2,15.722,15.722,0,0,1-6.3-5.3l2.6-2.8c3.3,4.1,7.2,6.1,11.8,6.1,3.9,0,7-1.2,9.1-3.5s3.3-5.5,3.4-9.6V86.1c-3,4.2-7.4,6.3-13.1,6.3a14.187,14.187,0,0,1-11.8-5.9c-3-3.9-4.5-9.2-4.5-15.8v-.6Zm4.8.8c0,5.4,1.1,9.6,3.2,12.8a10.555,10.555,0,0,0,9.1,4.7c5.8,0,9.8-2.6,12.2-7.7V60.9a13.681,13.681,0,0,0-4.7-6.2,12.877,12.877,0,0,0-7.4-2.1,10.644,10.644,0,0,0-9.2,4.6C835.4,60.3,834.4,64.9,834.4,70.9Z" fill="#8c8079"/>
      <path id="패스_243" data-name="패스 243" d="M875.6,37.1a2.94,2.94,0,0,1,.9-2.2,3.168,3.168,0,0,1,2.3-.9,3.244,3.244,0,0,1,2.4.9,3.139,3.139,0,0,1,0,4.4,3.244,3.244,0,0,1-2.4.9,2.869,2.869,0,0,1-2.3-.9A2.94,2.94,0,0,1,875.6,37.1Zm5.5,54.5h-4.7V49.3h4.7Z" fill="#8c8079"/>
      <path id="패스_244" data-name="패스 244" d="M898.3,49.3l.2,7.2a17.841,17.841,0,0,1,5.9-6,15.311,15.311,0,0,1,7.9-2.1c4.5,0,7.9,1.3,10.1,3.8,2.2,2.6,3.3,6.4,3.4,11.5V91.4h-4.6V63.8q0-5.7-2.4-8.4c-1.6-1.8-4.1-2.8-7.6-2.8a12.054,12.054,0,0,0-7.7,2.7,15.775,15.775,0,0,0-4.9,7.3V91.5H894V49.3Z" fill="#8c8079"/>
      <path id="패스_245" data-name="패스 245" d="M954.1,92.4a18.323,18.323,0,0,1-16.5-10.1,23.268,23.268,0,0,1-2.4-10.6V70a24.675,24.675,0,0,1,2.4-11,19.148,19.148,0,0,1,6.6-7.7,15.987,15.987,0,0,1,9.1-2.8,15.32,15.32,0,0,1,12.2,5.3q4.5,5.25,4.5,14.4v2.6H939.8v.9a18,18,0,0,0,4.1,12,13.037,13.037,0,0,0,10.4,4.8,15.258,15.258,0,0,0,6.6-1.4,14.263,14.263,0,0,0,5.2-4.4l2.9,2.2C965.7,89.9,960.7,92.4,954.1,92.4Zm-.8-39.9a11.679,11.679,0,0,0-8.9,3.9A17.74,17.74,0,0,0,940,66.8h25.4v-.5a15.049,15.049,0,0,0-3.5-9.9A10.776,10.776,0,0,0,953.3,52.5Z" fill="#8c8079"/>
      <path id="패스_246" data-name="패스 246" d="M995.5,92.4A18.323,18.323,0,0,1,979,82.3a23.268,23.268,0,0,1-2.4-10.6V70A24.675,24.675,0,0,1,979,59a19.148,19.148,0,0,1,6.6-7.7,15.987,15.987,0,0,1,9.1-2.8,15.32,15.32,0,0,1,12.2,5.3q4.5,5.25,4.5,14.4v2.6H981.2v.9a18,18,0,0,0,4.1,12,13.037,13.037,0,0,0,10.4,4.8,15.258,15.258,0,0,0,6.6-1.4,14.263,14.263,0,0,0,5.2-4.4l2.9,2.2C1007,89.9,1002,92.4,995.5,92.4Zm-.9-39.9a11.679,11.679,0,0,0-8.9,3.9,17.74,17.74,0,0,0-4.4,10.4h25.4v-.5a15.049,15.049,0,0,0-3.5-9.9A10.639,10.639,0,0,0,994.6,52.5Z" fill="#8c8079"/>
      <path id="패스_247" data-name="패스 247" d="M1040,53.3a15.823,15.823,0,0,0-3.2-.3,11.534,11.534,0,0,0-7.4,2.4,13.03,13.03,0,0,0-4.3,7.1v29h-4.6V49.3h4.6l.1,6.7c2.5-5,6.4-7.5,11.9-7.5a8.718,8.718,0,0,1,3.1.5Z" fill="#8c8079"/>
      <path id="패스_248" data-name="패스 248" d="M1047.1,37.1a2.94,2.94,0,0,1,.9-2.2,3.168,3.168,0,0,1,2.3-.9,3.244,3.244,0,0,1,2.4.9,3.139,3.139,0,0,1,0,4.4,3.244,3.244,0,0,1-2.4.9,2.869,2.869,0,0,1-2.3-.9A2.94,2.94,0,0,1,1047.1,37.1Zm5.5,54.5h-4.7V49.3h4.7Z" fill="#8c8079"/>
      <path id="패스_249" data-name="패스 249" d="M1069.7,49.3l.2,7.2a17.841,17.841,0,0,1,5.9-6,15.311,15.311,0,0,1,7.9-2.1c4.5,0,7.9,1.3,10.1,3.8,2.2,2.6,3.3,6.4,3.4,11.5V91.4h-4.6V63.8q0-5.7-2.4-8.4c-1.6-1.8-4.1-2.8-7.6-2.8a12.054,12.054,0,0,0-7.7,2.7,15.775,15.775,0,0,0-4.9,7.3V91.5h-4.6V49.3Z" fill="#8c8079"/>
      <path id="패스_250" data-name="패스 250" d="M1107.3,70.1c0-6.6,1.5-11.9,4.4-15.7a14.284,14.284,0,0,1,11.9-5.8c5.8,0,10.1,2.3,13.1,6.9l.2-6.1h4.4V90.8c0,5.4-1.5,9.8-4.6,12.9a16.8,16.8,0,0,1-12.4,4.8,19.2,19.2,0,0,1-8.4-2,15.722,15.722,0,0,1-6.3-5.3l2.6-2.8c3.3,4.1,7.2,6.1,11.8,6.1,3.9,0,7-1.2,9.1-3.5s3.3-5.5,3.4-9.6V86.1c-3,4.2-7.4,6.3-13.1,6.3a14.187,14.187,0,0,1-11.8-5.9c-3-3.9-4.5-9.2-4.5-15.8v-.6Zm4.8.8c0,5.4,1.1,9.6,3.2,12.8a10.555,10.555,0,0,0,9.1,4.7c5.8,0,9.8-2.6,12.2-7.7V60.9a13.681,13.681,0,0,0-4.7-6.2,12.877,12.877,0,0,0-7.4-2.1,10.644,10.644,0,0,0-9.2,4.6C1113.1,60.3,1112.1,64.9,1112.1,70.9Z" fill="#8c8079"/>
    </g>
  </g>
</svg>
